<svg xmlns="http://www.w3.org/2000/svg" preserveAspectRatio='none' xmlns:xlink="http://www.w3.org/1999/xlink" viewBox="1 1 750 500"><defs><style>.cls-1{isolation:isolate;}.cls-2{fill:#bad6dd;}.cls-3{fill:#6495a0;}.cls-4{fill:#80acb7;}.cls-5{fill:#95adb5;}.cls-6{fill:url(#Nueva_muestra_de_degradado_2);}.cls-7{fill:#a5c1c6;}.cls-8{fill:#576870;}.cls-9{fill:#526872;}.cls-10{fill:url(#Nueva_muestra_de_degradado_5);}.cls-11{fill:url(#linear-gradient);}.cls-12,.cls-13,.cls-18,.cls-19{fill:#fff;}.cls-13{opacity:0.29;}.cls-14{fill:#76a3b2;}.cls-15{fill:#617a87;}.cls-16{fill:#3c525b;}.cls-17,.cls-39,.cls-40{fill:#30484f;}.cls-18{opacity:0.46;}.cls-19{opacity:0.33;}.cls-20{fill:#544d30;}.cls-21{fill:url(#Degradado_sin_nombre_18);}.cls-22{opacity:0.5;fill:url(#Degradado_sin_nombre_19);}.cls-23{fill:url(#Nueva_muestra_de_degradado_4);}.cls-24{fill:url(#Nueva_muestra_de_degradado_4-2);}.cls-25{fill:url(#Nueva_muestra_de_degradado_4-3);}.cls-26{fill:url(#Nueva_muestra_de_degradado_4-4);}.cls-27{fill:url(#Nueva_muestra_de_degradado_4-5);}.cls-28{fill:url(#Nueva_muestra_de_degradado_4-6);}.cls-29{fill:url(#Nueva_muestra_de_degradado_4-7);}.cls-30{fill:url(#Nueva_muestra_de_degradado_4-8);}.cls-31{fill:url(#Nueva_muestra_de_degradado_4-9);}.cls-32{fill:url(#Nueva_muestra_de_degradado_4-10);}.cls-33{fill:url(#Nueva_muestra_de_degradado_4-11);}.cls-34{fill:url(#Nueva_muestra_de_degradado_4-12);}.cls-35{fill:url(#Nueva_muestra_de_degradado_4-13);}.cls-36{fill:url(#Nueva_muestra_de_degradado_4-14);}.cls-37{fill:#2c6f84;}.cls-38{fill:#26414f;}.cls-39{stroke:#93835c;stroke-width:5px;}.cls-39,.cls-57{stroke-miterlimit:10;}.cls-40{opacity:0.1;}.cls-40,.cls-53{mix-blend-mode:multiply;}.cls-41{fill:#b2a983;}.cls-42{fill:#6d6954;}.cls-43{fill:#7a7561;}.cls-44{fill:#87826b;}.cls-45{fill:#a39454;}.cls-46{fill:#5b5749;}.cls-47{fill:#303030;}.cls-48{fill:#b2b2b2;}.cls-49{fill:#005284;}.cls-50{fill:#ffeead;}.cls-51{fill:#514d3f;}.cls-52{fill:#7396c0;}.cls-53{fill:#394c77;opacity:0.45;}.cls-54{fill:#a4bdda;}.cls-55{fill:#6b7c53;}.cls-56{fill:#576049;}.cls-57,.cls-59{fill:none;}.cls-57{stroke:#2f3f2c;}.cls-58{fill:#c4c3c2;}</style><linearGradient id="Nueva_muestra_de_degradado_2" x1="127.76" y1="191.8" x2="1080.29" y2="191.8" gradientUnits="userSpaceOnUse"><stop offset="0" stop-color="#7db0bc"/><stop offset="0.25" stop-color="#557880"/><stop offset="0.5" stop-color="#314549"/><stop offset="0.72" stop-color="#161f21"/><stop offset="0.89" stop-color="#060809"/><stop offset="1"/></linearGradient><linearGradient id="Nueva_muestra_de_degradado_5" x1="1.17" y1="467.31" x2="751.17" y2="467.31" gradientUnits="userSpaceOnUse"><stop offset="0.22" stop-color="#bad4e0"/><stop offset="0.33" stop-color="#9bc1cd"/><stop offset="0.42" stop-color="#85b5c1"/><stop offset="0.48" stop-color="#7db0bc"/><stop offset="0.55" stop-color="#7aabb7"/><stop offset="0.62" stop-color="#709ea9"/><stop offset="0.71" stop-color="#618891"/><stop offset="0.79" stop-color="#4b6971"/><stop offset="0.88" stop-color="#2f4246"/><stop offset="0.97" stop-color="#0d1213"/><stop offset="1"/></linearGradient><linearGradient id="linear-gradient" x1="67.23" y1="90.43" x2="817.23" y2="90.43" gradientUnits="userSpaceOnUse"><stop offset="0.06" stop-color="#bad6dd"/><stop offset="0.31" stop-color="#b8d4db"/><stop offset="0.44" stop-color="#b1ccd3"/><stop offset="0.55" stop-color="#a6bfc5"/><stop offset="0.64" stop-color="#96acb2"/><stop offset="0.73" stop-color="#809498"/><stop offset="0.8" stop-color="#66767a"/><stop offset="0.88" stop-color="#475255"/><stop offset="0.94" stop-color="#242a2b"/><stop offset="1"/></linearGradient><radialGradient id="Degradado_sin_nombre_18" cx="172.66" cy="342.92" r="832.01" gradientTransform="translate(27.79) scale(0.99 1)" gradientUnits="userSpaceOnUse"><stop offset="0.32" stop-color="#fff" stop-opacity="0"/><stop offset="0.68" stop-color="#ffeead"/><stop offset="0.8" stop-color="#fff"/></radialGradient><radialGradient id="Degradado_sin_nombre_19" cx="349.91" cy="382.87" r="836.35" gradientTransform="translate(29.69) scale(0.98 1)" gradientUnits="userSpaceOnUse"><stop offset="0.29" stop-color="#fff" stop-opacity="0"/><stop offset="0.46" stop-color="#ffeead"/><stop offset="0.8" stop-color="#fff"/></radialGradient><radialGradient id="Nueva_muestra_de_degradado_4" cx="916.57" cy="-3045.29" r="5.76" gradientTransform="translate(-6.87 1880.22) scale(0.5 0.5)" gradientUnits="userSpaceOnUse"><stop offset="0.26" stop-color="#ffefb2" stop-opacity="0.94"/><stop offset="0.54" stop-color="#fff" stop-opacity="0"/></radialGradient><radialGradient id="Nueva_muestra_de_degradado_4-2" cx="1007.26" cy="-3027.04" r="5.76" xlink:href="#Nueva_muestra_de_degradado_4"/><radialGradient id="Nueva_muestra_de_degradado_4-3" cx="624.11" cy="-753.48" r="5.76" gradientTransform="translate(4.36 966.94) scale(0.73 0.74)" xlink:href="#Nueva_muestra_de_degradado_4"/><radialGradient id="Nueva_muestra_de_degradado_4-4" cx="422.15" cy="-852.33" r="5.76" gradientTransform="translate(4.36 966.94) scale(0.73 0.74)" xlink:href="#Nueva_muestra_de_degradado_4"/><radialGradient id="Nueva_muestra_de_degradado_4-5" cx="401.54" cy="-733.64" r="5.76" gradientTransform="translate(4.36 966.94) scale(0.73 0.74)" xlink:href="#Nueva_muestra_de_degradado_4"/><radialGradient id="Nueva_muestra_de_degradado_4-6" cx="718.69" cy="-701.91" r="5.76" gradientTransform="translate(4.36 966.94) scale(0.73 0.74)" xlink:href="#Nueva_muestra_de_degradado_4"/><radialGradient id="Nueva_muestra_de_degradado_4-7" cx="804.36" cy="-727.88" r="5.76" gradientTransform="translate(4.36 966.94) scale(0.73 0.74)" xlink:href="#Nueva_muestra_de_degradado_4"/><radialGradient id="Nueva_muestra_de_degradado_4-8" cx="817.5" cy="-841.64" r="5.76" gradientTransform="translate(4.36 966.94) scale(0.73 0.74)" xlink:href="#Nueva_muestra_de_degradado_4"/><radialGradient id="Nueva_muestra_de_degradado_4-9" cx="798.61" cy="-913.45" r="5.76" gradientTransform="translate(4.36 966.94) scale(0.73 0.74)" xlink:href="#Nueva_muestra_de_degradado_4"/><radialGradient id="Nueva_muestra_de_degradado_4-10" cx="787.57" cy="-945.75" r="5.76" gradientTransform="translate(4.36 966.94) scale(0.73 0.74)" xlink:href="#Nueva_muestra_de_degradado_4"/><radialGradient id="Nueva_muestra_de_degradado_4-11" cx="727.72" cy="-902.69" r="5.76" gradientTransform="translate(4.36 966.94) scale(0.73 0.74)" xlink:href="#Nueva_muestra_de_degradado_4"/><radialGradient id="Nueva_muestra_de_degradado_4-12" cx="935.77" cy="-880.87" r="5.76" gradientTransform="translate(4.36 966.94) scale(0.73 0.74)" xlink:href="#Nueva_muestra_de_degradado_4"/><radialGradient id="Nueva_muestra_de_degradado_4-13" cx="912.03" cy="-759.23" r="5.76" gradientTransform="translate(4.36 966.94) scale(0.73 0.74)" xlink:href="#Nueva_muestra_de_degradado_4"/><radialGradient id="Nueva_muestra_de_degradado_4-14" cx="1111.82" cy="-3101.27" r="5.76" gradientTransform="translate(30.36 1916.64) scale(0.48 0.49)" xlink:href="#Nueva_muestra_de_degradado_4"/></defs><g class="cls-1"><g id="OBJECTS"><polygon class="cls-2" points="160.75 179.92 1.17 0.94 1.17 500.94 160.75 433.67 160.75 179.92"/><polygon class="cls-3" points="1.17 399.42 160.75 381.94 160.75 433.67 1.17 500.94 1.17 399.42"/><polygon class="cls-4" points="0 54.35 161.24 204.63 161.24 180.64 0 0 0 54.35"/><rect class="cls-2" x="160.75" y="180.03" width="393.76" height="253.75"/><rect class="cls-5" x="161.25" y="381.94" width="393.27" height="51.73"/><rect class="cls-6" x="160.75" y="179.92" width="393.76" height="23.77"/><polygon class="cls-7" points="552.91 179.92 751.17 0.94 751.17 500.94 552.91 433.67 552.91 179.92"/><polygon class="cls-8" points="552.91 381.94 751.17 396.97 751.17 500.94 552.91 433.67 552.91 381.94"/><polygon class="cls-9" points="552.91 179.92 751.17 0.94 751.17 49.9 552.91 203.69 552.91 179.92"/><polygon class="cls-10" points="160.75 433.67 552.91 433.67 751.17 500.94 1.17 500.94 160.75 433.67"/><polygon class="cls-11" points="160.75 179.92 552.91 179.92 751.17 0.94 1.17 0.94 160.75 179.92"/><polygon class="cls-12" points="106.58 49.9 285.18 49.9 296.37 127.14 160.75 127.14 106.58 49.9"/><polygon class="cls-13" points="106.11 43.84 284.71 43.84 295.9 121.08 160.29 121.08 106.11 43.84"/><polygon class="cls-12" points="432.68 127.14 468.56 49.9 639.41 49.9 561.76 127.14 432.68 127.14"/><polygon class="cls-13" points="432.68 120.62 468.56 43.38 639.41 43.38 561.76 120.62 432.68 120.62"/><polygon class="cls-14" points="563.02 214.9 563.02 374.27 623.94 376.14 623.94 175.75 563.02 214.9"/><polygon class="cls-15" points="563.02 374.27 563.02 383.48 742.75 397.46 742.75 379.98 563.02 374.27"/><polygon class="cls-15" points="623.94 376.14 623.94 175.75 640.21 165.38 640.21 376.73 623.94 376.14"/><polygon class="cls-16" points="563.02 214.9 578.25 214.9 623.94 188.33 623.94 175.75 563.02 214.9"/><polygon class="cls-17" points="563.02 214.9 563.02 374.27 578.25 374.74 578.25 214.9 563.02 214.9"/><polygon class="cls-18" points="570.63 214.9 570.63 374.52 623.94 376.14 623.94 182.16 570.63 214.9"/><polygon class="cls-16" points="640.21 165.38 742.75 100.02 742.75 118.9 658.9 168.53 640.21 165.38"/><polygon class="cls-17" points="658.9 168.53 658.9 377.37 640.21 376.73 640.21 165.38 658.9 168.53"/><polygon class="cls-18" points="649.55 166.96 649.55 377.05 742.75 379.98 742.75 110.86 649.55 166.96"/><polygon class="cls-19" points="658.9 168.53 742.75 118.9 742.75 379.98 658.9 377.37 658.9 168.53"/><polygon class="cls-20" points="570.63 214.9 570.63 283.52 623.94 263.83 623.94 182.16 570.63 214.9"/><polygon class="cls-20" points="649.55 166.96 649.55 288.06 742.75 263.36 742.75 110.86 649.55 166.96"/><polygon class="cls-21" points="570.63 283.52 0 420.53 0 501.43 485.14 501.69 623.94 376.14 623.94 263.83 570.63 283.52"/><polygon class="cls-22" points="650.37 288.06 121.12 486.67 121.12 501.67 692.33 501.7 742.75 379.98 742.75 263.36 650.37 288.06"/><path class="cls-23" d="M449.83,357.58A2.85,2.85,0,1,1,447,354.7,2.86,2.86,0,0,1,449.83,357.58Z"/><ellipse class="cls-24" cx="491.89" cy="366.7" rx="2.85" ry="2.88"/><path class="cls-25" d="M463.33,412.53a4.2,4.2,0,1,1-4.19-4.24A4.2,4.2,0,0,1,463.33,412.53Z"/><path class="cls-26" d="M316.16,339.79a4.19,4.19,0,1,1-4.19-4.24A4.2,4.2,0,0,1,316.16,339.79Z"/><path class="cls-27" d="M301.15,427.13a4.2,4.2,0,1,1-4.19-4.24A4.21,4.21,0,0,1,301.15,427.13Z"/><path class="cls-28" d="M532.25,450.47a4.19,4.19,0,1,1-4.19-4.24A4.2,4.2,0,0,1,532.25,450.47Z"/><ellipse class="cls-29" cx="590.49" cy="431.36" rx="4.19" ry="4.24"/><path class="cls-30" d="M604.25,347.66a4.2,4.2,0,1,1-4.19-4.23A4.22,4.22,0,0,1,604.25,347.66Z"/><path class="cls-31" d="M590.49,294.82a4.2,4.2,0,1,1-4.2-4.24A4.21,4.21,0,0,1,590.49,294.82Z"/><path class="cls-32" d="M582.44,271.05a4.19,4.19,0,1,1-4.19-4.23A4.21,4.21,0,0,1,582.44,271.05Z"/><path class="cls-33" d="M538.83,302.74a4.2,4.2,0,1,1-4.19-4.23A4.22,4.22,0,0,1,538.83,302.74Z"/><path class="cls-34" d="M690.44,318.8a4.2,4.2,0,1,1-4.2-4.24A4.21,4.21,0,0,1,690.44,318.8Z"/><path class="cls-35" d="M673.13,408.29a4.19,4.19,0,1,1-4.19-4.23A4.21,4.21,0,0,1,673.13,408.29Z"/><path class="cls-36" d="M572,398.88a2.79,2.79,0,1,1-2.79-2.82A2.8,2.8,0,0,1,572,398.88Z"/><polygon class="cls-37" points="23.74 168.04 23.74 282.68 65.69 294.33 65.69 194.83 23.74 168.04"/><polygon class="cls-38" points="53.1 265.2 53.1 335.11 84.56 339.3 84.56 278.66 53.1 265.2"/><polygon class="cls-14" points="90.15 235.38 90.15 279.81 113.92 290.37 113.92 250.94 90.15 235.38"/><rect class="cls-39" x="201.47" y="230.37" width="309.92" height="155.71"/><path class="cls-40" d="M508.32,382.32H462.49c-52.68,0-105.5,1.12-158.16,0,8.66.19,20.1-4.92,28.48-7.21,21.59-5.92,42.5-15,63.21-23.65,16.1-6.73,32.54-14.36,43.89-27.62,3.14-3.66,6-8.53,4.34-13.07s-6.61-6.43-11.16-7.56c-22.23-5.48-46.08-2.18-68-8.85-7.92-2.41-16.25-7-18.38-15a18.69,18.69,0,0,1,.34-9.84c2-7.11,7.06-13.06,12.95-17.51,16.76-12.65,38.35-14.65,58.76-14.65h89.54Z"/><polyline class="cls-41" points="326.42 458.83 330.5 450.44 331.21 411.07 326.42 416.19"/><polygon class="cls-42" points="178.69 399.42 147.47 405.94 329.22 405.94 332.01 399.42 178.69 399.42"/><polygon class="cls-43" points="147.47 405.94 147.47 416.19 328.99 416.19 329.22 405.94 147.47 405.94"/><polygon class="cls-44" points="150.27 416.19 150.27 456.04 326.42 458.83 326.42 416.19 150.27 416.19"/><polygon class="cls-45" points="328.99 416.19 332.01 409.2 332.01 399.42 329.22 405.94 328.99 416.19"/><path class="cls-44" d="M235.2,373.55h30.23a6.64,6.64,0,0,1,6.64,6.64v19.22a0,0,0,0,1,0,0H228a0,0,0,0,1,0,0v-18.7A7.16,7.16,0,0,1,235.2,373.55Z"/><path class="cls-46" d="M234,373.55h30.23a6.64,6.64,0,0,1,6.64,6.64v19.22a0,0,0,0,1,0,0h-44a0,0,0,0,1,0,0v-18.7A7.16,7.16,0,0,1,234,373.55Z"/><path class="cls-47" d="M169.43,402.68h27.21a.47.47,0,0,0,.46-.47v-3.38a.81.81,0,0,0-.81-.81H169.61a.82.82,0,0,0-.82.81V402A.64.64,0,0,0,169.43,402.68Z"/><polygon class="cls-48" points="197.1 398.02 204.09 396.62 204.09 401.16 197.1 402.68 197.1 398.02"/><polygon class="cls-49" points="169.61 398.02 180.33 396.17 204.09 396.62 196.29 398.02 169.61 398.02"/><path class="cls-50" d="M301,393.05v7.32a.62.62,0,0,0,.34.57c1,.42,3.75,1.4,6.11-.18a.63.63,0,0,0,.26-.52v-7.19a.58.58,0,0,0-.56-.6h-5.6A.57.57,0,0,0,301,393.05Z"/><path class="cls-51" d="M307.41,392.58c0,.27-1.36.49-3,.49s-3-.22-3-.49,1.36-.48,3-.48S307.41,392.32,307.41,392.58Z"/><path class="cls-50" d="M308,394.21a1.6,1.6,0,0,1,1.49.5,2.06,2.06,0,0,1,.48,1.47,3,3,0,0,1-2.09,2.69c-.29.09-.7.07-.75-.21s.21-.4.42-.51a3.91,3.91,0,0,0,1.3-1c.44-.61.61-1.71-.32-2a1,1,0,0,0-.95.22c-.18.18-.38.45-.6.34s-.16-.3-.11-.47A1.41,1.41,0,0,1,308,394.21Z"/><path class="cls-52" d="M164.68,384.06a31.09,31.09,0,0,1-4.79-22.28c5.51,3,15.27,15.77,12.68,27.39Z"/><path class="cls-53" d="M163.77,364.87A50,50,0,0,0,172.72,388l.08-.1C174.11,379.11,168.72,369.87,163.77,364.87Z"/><path class="cls-52" d="M180.92,386.66a41.7,41.7,0,0,0,12.86-20.06c4-13.26.29-19.84,2-30.83-9,15.3-19.55,40.64-19.53,53C177.67,389.51,180.92,386.66,180.92,386.66Z"/><path class="cls-53" d="M177.74,388c2.59-2.95,5.56-14.62,7-29.92-4.28,10.24-7.62,20.64-8.33,27.95C177.19,387.32,177.74,388,177.74,388Z"/><path class="cls-54" d="M175.41,388s-11-14.2-8.9-31.79,15-31.25,14.41-45.53C186.72,344.67,180.39,382.36,175.41,388Z"/><path class="cls-53" d="M174.74,385.53s6.13-35.51,4.63-48c-1.42,14.36-6.51,46.77-6.51,46.77Z"/><path class="cls-53" d="M164.68,384.06l7.89,5.11c.1-.42.17-.83.23-1.25h0c.08-.52.13-1,.16-1.56,0-.06,0-.11,0-.16,0-.53,0-1.06,0-1.59h0c0-.06,0-.13,0-.2l.11.07a38.31,38.31,0,0,0,2.32,3.55,7.9,7.9,0,0,0,.92-1.37c-.06.73-.1,1.44-.1,2.11,1.44.75,4.69-2.1,4.69-2.1A37.9,37.9,0,0,0,189,377.2c-7.63,3.52-20.76,3.21-26.59,2.86A25,25,0,0,0,164.68,384.06Z"/><polygon class="cls-55" points="173.87 382.11 159.63 382.11 164.86 401.6 173.87 401.6 182.87 401.6 188.1 382.11 173.87 382.11"/><rect class="cls-55" x="164.86" y="401.6" width="18.01" height="2.48"/><polygon class="cls-56" points="170.88 404.08 170.88 401.6 167.67 382.11 159.63 382.11 164.86 401.6 164.86 404.08 170.88 404.08"/><line class="cls-57" x1="164.86" y1="401.6" x2="182.87" y2="401.6"/><rect class="cls-12" x="248.34" y="396.33" width="47.79" height="6.28"/><rect class="cls-54" x="214.45" y="396.33" width="33.89" height="6.28"/><polygon class="cls-54" points="216.54 351.8 182.65 351.8 216.54 396.33 250.43 396.33 216.54 351.8"/><polygon class="cls-58" points="214.45 351.8 180.56 351.8 214.45 396.33 248.34 396.33 214.45 351.8"/><path class="cls-54" d="M215.33,373c3.26,1.39,5.23,4.07,4.41,6s-4.12,2.35-7.37,1-5.22-4.07-4.41-6S212.08,371.65,215.33,373Z"/><rect class="cls-54" x="252.75" y="397.85" width="10.95" height="3.01"/><rect class="cls-54" x="266.76" y="397.85" width="10.95" height="3.01"/><rect class="cls-59" y="0.94" width="751.17" height="500"/></g></g></svg>