<svg preserveAspectRatio="none"
    xmlns="http://www.w3.org/2000/svg" viewBox="0 0 1920 1080">
    <defs>
        <style>.a{opacity:0.5;}</style>
    </defs>
    <g class="a">
        <path d="M1,1080V1H1920V1080ZM952,808.88574C1044.35156,944.23047,1198.68262,1025,1365,1025c273.49512,0,496-217.3457,496-484.5S1638.49512,56,1365,56c-166.31738,0-320.64844,80.769-413,216.11377C859.648,136.769,705.31689,56,539,56,265.50488,56,43,273.3457,43,540.5S265.50488,1025,539,1025C705.31738,1025,859.648,944.23047,952,808.88574Z" transform="translate(-0.5 -0.5)"/>
        <path d="M1919.5,1.5v1078H1.5V1.5h1918M952,271.22726C859.50623,136.12,705.22754,55.5,539,55.5c-273.771,0-496.5,217.57-496.5,485s222.729,485,496.5,485c166.22754,0,320.506-80.62,413-215.72754C1044.494,944.88,1198.77246,1025.5,1365,1025.5c273.771,0,496.5-217.57,496.5-485s-222.729-485-496.5-485c-166.22754,0-320.50623,80.62-413,215.72726M1920.5.5H.5v1080h1920V.5ZM952,273.00143C1040.75806,142.51381,1192.5929,56.5,1365,56.5c273.6571,0,495.5,216.69406,495.5,484,0,267.30573-221.8429,484-495.5,484-172.4071,0-324.24194-86.014-413-216.50165C863.24188,938.486,711.40741,1024.5,539,1024.5c-273.65714,0-495.5-216.69427-495.5-484,0-267.30594,221.84286-484,495.5-484,172.40741,0,324.24188,86.01381,413,216.50143Z" transform="translate(-0.5 -0.5)"/>
    </g>
</svg>