<svg xmlns="http://www.w3.org/2000/svg" viewBox="0 0 171.81439 170.06873"><defs><style>.a{fill:#b3b3b3;}</style></defs><path class="a" d="M171.12927,84.98275q-.81694,1.53316-1.6329,3.00915l-.06037.36765-.36629.72415c.05123.17806.09087.35613.1346.53458l-.13771.63975-.48979,2.245c-.14542.74726-.367,1.48345-.56458,2.21917l-.60109,2.19731c-.03594.244-.076.4873-.11388.731-.21086-.06264-.45366-.37207-.69384-.31528.28456-.742.53649-1.494.80693-2.24815.25637-.75581.55435-1.51249.77711-2.28153-.4659-.47817-.38584-1.73037-.30465-2.94a8.86846,8.86846,0,0,0,.00859-1.67444c-.05059-.47558-.16293-.83121-.39971-.95945l.135,1.48387c-.18841-.34828-.38727-.49268-.596-.50243.00859-.1273.01777-.25506.02286-.37933.03958-.71225.08988-1.36772.1575-1.93291a11.59874,11.59874,0,0,0,.08159-1.74532c-.02621-.58574-.0769-1.16256-.13361-1.69473-.11817-1.06453-.23742-1.95-.28994-2.38639a18.547,18.547,0,0,1-.16861-3.15678c.009-.57713.041-.884.079-.74676-.17582-1.23492-.39078-2.43852-.66038-3.74267-.15484-.69117-.30741-1.41365-.44626-2.19148-.07044-.38872-.13307-.79216-.19892-1.2112-.08144-.41617-.15869-.84935-.23075-1.30279a9.59228,9.59228,0,0,0-.32187-2.07583c-.22424-.97514-.60594-2.13523-.93971-3.267-.08559-.28236-.17039-.56262-.25341-.83691l-.27735-.79078c-.17893-.5104-.34092-.98329-.472-1.39043-.26215-.81413-.40114-1.366-.30573-1.42789l-.047-.02624c-.32138-1.13223-.71384-2.22568-1.116-3.31112-.19131-.54683-.4385-1.0705-.67582-1.59894q-.36168-.78975-.72559-1.58424c-.46358-1.06991-1.046-2.09545-1.57249-3.17469-.2732-.53471-.52034-1.09-.80559-1.63478q-.43172-.81507-.84952-1.66879a1.996,1.996,0,0,1,.1847.20444c-.12853-.17947-.26131-.35533-.39211-.53293.19013-.15375.36679-.3392,1.13551.32084-.65115-.5629-1.63759-1.66815-1.79505-1.19874q-1.01581-1.32264-2.09422-2.58648a6.415,6.415,0,0,1-.16268-1.02808,6.3401,6.3401,0,0,0-.17715.63338c-1.02929-1.19445-2.086-2.35755-3.1472-3.5q.24018,1.619.44907,3.19424l.16022.31232.12823.75376c.1386.10618.26842.21884.40149.32953l.2541.56175.88689,1.975c.3085.64752.55312,1.32932.81566,1.9973l.77578,2.00123c.10948.20491.21551.41168.32331.61748-.19487.07071-.55213-.02766-.70229.14993-.2001-.72146-.43061-1.43226-.64828-2.15505-.22932-.71615-.42755-1.45627-.68965-2.16362-.62084-.10116-1.26177-1.09454-1.878-2.05635a8.35519,8.35519,0,0,0-.93161-1.27318c-.30479-.33189-.58915-.53834-.84034-.50282l.93358,1.04841c-.97786-.45815-1.07974.40433-1.15032,1.438-.08608,1.0498-.12078,2.25308-.77089,2.50467a2.51983,2.51983,0,0,1,1.12287,1.30439,16.37553,16.37553,0,0,1,.58131,2.029c.09314.36382.19388.73286.31678,1.097.06047.18258.13061.36182.2007.5426.06535.18322.13811.36413.22009.54162a4.70371,4.70371,0,0,0,1.55339,1.904c.06121.75663-.66734-.35559-.7856.12155.91038.46437,1.38324,1.349,1.87313,3.12286l-.216-.13366c.134.29065.265.57037.38243.845q.15756.4194.30514.81265c.1929.52706.36556,1.02641.5239,1.50877a23.81507,23.81507,0,0,1,.73254,2.81012c.099.46608.199.937.30253,1.42513.09028.49095.16022,1.00491.24941,1.5432.08939.537.18367,1.10377.285,1.71257.10425.6067.16708,1.26547.27246,1.96909l.57514-.55512a6.313,6.313,0,0,1-.0389,2.11223c1.29988,1.19494-.65341-3.39271.71873-2.3671a4.06934,4.06934,0,0,0-.16946,2.15505c.07464.91209.218,1.97309.37474,3.01526a15.10339,15.10339,0,0,1,.1617,1.53767c.03263.49589.05015.96668.039,1.39058a4.92981,4.92981,0,0,1-.13318,1.10932,1.40139,1.40139,0,0,1-.41817.70132c.10356,1.87652.74839-.60914.85259,1.27834l-.39271.52246.57415.45194a2.85188,2.85188,0,0,1-.34882,1.417.94265.94265,0,0,1-.58382.51684,6.486,6.486,0,0,0-.14423-1.16184,8.22572,8.22572,0,0,0-.088,2.90348,16.42142,16.42142,0,0,1,.08855,1.98245l.30139-1.65166a45.97048,45.97048,0,0,1-.43451,8.22328c-.09462.701-.15978,1.40524-.26146,2.098-.10953.69163-.20938,1.379-.29438,2.05917q-.05841.51157-.11579,1.01449-.06894.50135-.13633.99214c-.08234.65656-.144,1.30346-.17987,1.93834l.39512-.2945a9.71189,9.71189,0,0,1-.35336,2.14575,8.15116,8.15116,0,0,1-.47736,1.25644,18.03953,18.03953,0,0,0-1.3093,3.55037l-.0231-.17005a5.95439,5.95439,0,0,1-.019.71527,7.37393,7.37393,0,0,1-.1393.76287,9.88462,9.88462,0,0,1-.52656,1.59947c.03465-1.12508-1.3942,1.5865-1.27633.135a10.74475,10.74475,0,0,0-.57958,2.91894c.01974.19418.073.35558.11836.65764a6.42833,6.42833,0,0,1,.02863,1.4909l-.76329.33488a8.73374,8.73374,0,0,1-.00553,1.2652,4.37887,4.37887,0,0,1-.18372.76581,11.53294,11.53294,0,0,1-.50622,1.16036c.45909-1.734-1.36982.78168-.94213-1.19474a9.82853,9.82853,0,0,0-1.71671,2.35992,16.59144,16.59144,0,0,0-.97184,2.04814c-.5,1.26135-1.00436,2.19673-2.26707,2.53206.01915,1.24975.728.59322,1.39361-.251.68274-.82946,1.22258-1.88957,1.05328-1.31947.454-.274.46511.23251.23668.947a7.577,7.577,0,0,1-1.20714,2.13662,2.38542,2.38542,0,0,1-.84626.67151c-.35544.17377-.77129.325-1.2215.529a7.62362,7.62362,0,0,0-1.44593.83442,8.63094,8.63094,0,0,0-.77839.66351,8.77012,8.77012,0,0,0-.84143.87015c.23381-.261.16392-.35087.39709-.61047a4.66571,4.66571,0,0,0-1.26591,1.52848,5.79108,5.79108,0,0,1-.63161.85407,3.4694,3.4694,0,0,1-.95495.68515c.01955,1.26787-1.47752,1.4834-.8553,2.4698l2.05769-2.54675c-.52627.76821-.84967,1.69688-1.37258,2.6655a7.40055,7.40055,0,0,1-2.64566,2.73811,6.26312,6.26312,0,0,1,.81285-1.73525,2.63907,2.63907,0,0,0-.98768.86187,2.3433,2.3433,0,0,1-1.02816.85068c-.14106-.25716-.02527-.54712.21491-.89538a8.92946,8.92946,0,0,1,1.03986-1.166c.4232-.42269.89108-.876,1.30363-1.34571a5.51007,5.51007,0,0,0,.90534-1.50163c-.50356.16957-.968,1.00022-1.39,1.54759-.41778.55144-.72539.86941-.79765.09188.03465,1.04284-.63392,1.6119-1.41059,2.22186a5.60928,5.60928,0,0,0-2.25908,2.42315l-.31412-.62418a5.20149,5.20149,0,0,1-1.18433,1.47449l.43585-1.45277a4.56406,4.56406,0,0,1-2.19462,1.71336,7.14773,7.14773,0,0,0-2.35207,1.39166c1.55966-1.10041,1.85177-1.06831,1.9608-.81889.11269.253.03914.73286.83551.42579a6.8523,6.8523,0,0,1-1.10792,1.03793,4.324,4.324,0,0,1-.88975.53345,3.32725,3.32725,0,0,1-1.41869.24273,5.77658,5.77658,0,0,0-1.57387.15787,7.887,7.887,0,0,0-2.33114,1.19408c.69212-.42619,2.25789-.898,1.54258-.10079a13.044,13.044,0,0,1-1.53705.60364,5.33571,5.33571,0,0,1-1.38809.2519c-2.97419,1.837.80841.34626-.28924,1.44292-1.43172-.12177-1.36686,1.10832-2.65267,2.05266l-.31383-.614a9.07,9.07,0,0,0-1.10954.48015,3.12431,3.12431,0,0,0-.60984.37851.90638.90638,0,0,0-.33979.64673c-.056.4042-.07927.78072-1.865,1.27246l1.037-1.4987c-.54473.32461-1.08521.66541-1.63873.98l.0617-.87425a8.03475,8.03475,0,0,1-2.04984,1.22653,12.35742,12.35742,0,0,1-2.25794.60119c.6009.31425.1534,1.26439-1.56183,1.84725-.64434-.00489-.52647-.21555-.54972-.31355-.02176-.09384-.18495-.08949-1.39588.29144a1.85493,1.85493,0,0,1,2.11021-.97329c.04023-.24949.40322-.5855.44359-.83311a7.17563,7.17563,0,0,0-2.19239.44191c-.72746.23179-1.394.50976-1.8299.63256a3.5351,3.5351,0,0,1,.9864-.10365l-1.637.94293-1.68187.8632c-.62069-.12787-.21471-.43073.17991-.72768a17.69386,17.69386,0,0,1-2.19876.93277c.17227-.59493.00148-1.14645,1.42659-1.736-.53728.21787-1.07115.46637-1.618.66171l-1.64623.59631c-.27133-.20094-1.84441-.36292-1.43419-.642a9.82059,9.82059,0,0,0-3.286.77126,17.64724,17.64724,0,0,1-1.88015.46314,6.08454,6.08454,0,0,1-1.92709.08836,1.97358,1.97358,0,0,1-.92533.3155c-.59873-.01646-1.18028-.06809-1.75833-.123-.57815-.05336-1.15279-.16256-1.74016-.21476a12.47086,12.47086,0,0,0-1.82077-.06177,10.72128,10.72128,0,0,0-2.016.19847c-.50984-.37387-1.0132-.73521-1.507-1.11666-1.09681-.01594-.60056.362-.27656.738.32167.37614.47118.74947-1.40121.71862-2.66225.00637-.86557-.95612-1.7338-1.35516a15.37149,15.37149,0,0,1-2.66876.42222,5.53982,5.53982,0,0,1-1.643-.15314,5.80452,5.80452,0,0,1-1.66627-.67109,13.92064,13.92064,0,0,1,2.1414.34562l-1.668-.93164a18.11358,18.11358,0,0,1,2.58381-.20417c.4743-.06427.45687-.16131-.2887-.71413-.15444.463-.66186.61341-1.35017.60761a8.47625,8.47625,0,0,1-1.14317-.10573l-.62987-.10358-.63876-.14943a15.07084,15.07084,0,0,0-2.40325-.4455c-.69024-.04684-1.21079.03409-1.41662.48373l-1.02706-.75651c.3231.12253.41037.031.72933.15218a1.744,1.744,0,0,0-2.12492-.35189,3.07252,3.07252,0,0,1-2.769-.17056,3.53646,3.53646,0,0,1-1.01265-.73108c-.16432-.19892-.11822-.31847.25661-.28281l-2.361-.49211c-.52617-.26074-.38727-.46953.04156-.34078-.47859-.18216-.9473-.38648-1.416-.59221l-1.65393-.722.0499-.0389a12.48828,12.48828,0,0,1-2.45143-.20928c-.67632-.69153.50658.04427.41437-.28182l-1.99673-.5678c-.22034-.43868.08016-.52474.593-.44073a5.42079,5.42079,0,0,1,1.81564.72244c-.35075-1.3-.757-1.38438-1.46558-1.52a5.24306,5.24306,0,0,1-3.06837-1.91714l1.71662.77573a3.73891,3.73891,0,0,0-1.26168-1.79182,15.2675,15.2675,0,0,1-1.89633-1.96077c.09635.28325.69991,1.223,1.04375,2.0048.34176.7801.42163,1.3983-.60445.984a4.49154,4.49154,0,0,0-2.22858-1.32567c.39631-.56595-.6007-1.11759-1.75482-1.95031l.64157-.66089a4.39144,4.39144,0,0,0-.838-.34846,2.32456,2.32456,0,0,0-.56773-.10824,4.10062,4.10062,0,0,1-1.10111-.11494,2.42841,2.42841,0,0,1-.94158-2.65308c-.931-.977-.78747-.45159-.70988.06569.0766.517.09028,1.028-1.15368-.02391a11.2687,11.2687,0,0,0-1.08181-1.2019,14.69592,14.69592,0,0,0-1.12223-1.03751c-.79172-.66388-1.73824-1.26451-2.82626-2.14481-.81507-1.42389.60568-.15558.42533-.76346l-1.48582-.60034c-.21545-.27557.0309-.3328.15509-.3621-.98561-.74433-.77089.51361-2.14644-.83476-.54651.10153-.89409-.88827-1.31854-2.07524A10.16627,10.16627,0,0,0,27.288,125.41a4.09931,4.09931,0,0,0-1.30417-1.41063c-.08924-.63247.61807-.06847.82035-.41262-1.16236-1.15-1.64865-1.66711-2.12181-2.10367-.46383-.44589-.88891-.82549-1.98716-1.74868l-.29082-1.1367c-.092-.37964-.16032-.76985-.24058-1.152.12636,1.81067-1.53191.27913-2.98959-1.17a15.59642,15.59642,0,0,0-.03011,1.65963l-.90594-1.2848c-.16269-.23645-.3163-.4778-.46847-.72025a3.52314,3.52314,0,0,0,.1922-.7316c.11481.05217.24216.1194.37795.19558-.12913-.13761-.25193-.2639-.36358-.37088a1.17611,1.17611,0,0,0-.06664-.44747c.07577-.66657.69913-.3658,1.36765.07071-.019.4118-.04872.82859-.08115,1.23833.83013.45,1.69633.80068,2.10853.43021a3.16932,3.16932,0,0,1-.65657-.77237c.22251.10967.39852.16236.442.04373.04334-.13191-.28545-.3195-.68447-.67556l.66359-1.03615-.43491.01328-.47241-1.90033c-.15262-.63225-.25736-1.28046-.38728-1.91539-.47533-.55591-.9935-1.08085-1.49055-1.63735-.48347-.56114-.97978-1.14215-1.47643-1.78673-.24789-.32239-.498-.66-.74262-1.02-.22685-.36509-.45134-.7516-.67163-1.16468s-.43628-.85279-.64616-1.324q-.15733-.3534-.30983-.731c-.08964-.25474-.17532-.51844-.25958-.791.95959.93555,1.23872-.03816,2.11559-.171a1.52325,1.52325,0,0,0-.14388.545,2.20781,2.20781,0,0,0,.06658.58431,6.68967,6.68967,0,0,0,.50386,1.29067c.22.45562.46655.93672.68955,1.442a7.18974,7.18974,0,0,1,.58906,1.58172c-.26506-1.1657.21965-1.03482.44907-.79222l-.50909-.9016c-.16136-.304-.30919-.61309-.46507-.92089L16.545,102.414c.36447-.04166.4391-.2819.43165-.64817.00716-.3697-.06683-.86778-.02848-1.41508-.61758.54283-1.00555-.14734-1.33882-1.17717a16.53631,16.53631,0,0,1-.42207-1.68673,9.01448,9.01448,0,0,0-.44364-1.50877c.45879-.16947,1.0086.15132,1.20851,2.16068a2.33908,2.33908,0,0,0-.71793-2.47016c-.13727-.1617-.27592-.3237-.40228-.494a2.81124,2.81124,0,0,1-.30011-.54734,2.09508,2.09508,0,0,1-.039-1.42143c.06516.494.02152.77.286.93635a6.05576,6.05576,0,0,1-.40751-2.324c.02853-.77855.19112-1.332.41733-1.01444l.03924.49189c-.00651-.82292-.04659-1.85613-.1235-2.95156-.03119-1.09726-.08025-2.25765-.18105-3.33457-.10483-2.15036-.39161-3.98208-.94937-4.2733a6.13836,6.13836,0,0,1,1.65719.73915c-.60406-1.00725-1.19662-2.04172-1.79244-3.10421-.307-.53229-.57459-1.06724-.84552-1.6096l-.81265-1.64789c.48135.34038,1.40555.08347,2.23464.11239.82919.02678,1.56538.32916,1.68073,1.70443a8.1055,8.1055,0,0,0,.34848-1.328,6.90173,6.90173,0,0,0,.08441-.89631,10.00372,10.00372,0,0,0,.0148-1.12011c-.24038.49016-1.72876,1.06978-1.69115.32774a9.23224,9.23224,0,0,0,1.17387-1.59068c.09951-.18771.20612-.38865.36358-.68557a11.18946,11.18946,0,0,1,.77948-1.22342c-.39808.73-1.79939-.4758-1.4557-1.72879.193.25077,1.5944.27313,1.657.76014l-.42647-1.7225-.31205-1.57522c.20317.62878,1.28932.29075,1.86993-.21131-.19467.11273-.00725-.53612.24374-1.316a14.6261,14.6261,0,0,0,.69172-2.0877l-.775,1.14075a5.39758,5.39758,0,0,0,.19828-3.68324,7.39476,7.39476,0,0,1-.231-1.63891,4.77859,4.77859,0,0,1,.1002-.9744,5.49413,5.49413,0,0,1,.40865-1.12973,1.26236,1.26236,0,0,0,2.35913.21955c-.10479-.27064-.29053-.71507-.496-1.28609-.10272-.28549-.21032-.60262-.31521-.9453-.09532-.33809-.18342-.69959-.2625-1.0806a9.489,9.489,0,0,1,.09122-4.95081l.72045-.31785.39038-1.23384c.13638-.40923.29379-.80771.44093-1.214.06.50154.06713,1.17475.12527,1.98161.0462.80006.083,1.69712.10879,2.59911.01155.89488.068,1.82454.09744,2.672.02828.8473.036,1.61632.00947,2.23144.92973-1.01656.66616-.08552,1.511-1.86068.70174-.41309.11654,1.25706-.11678,1.77681l1.144-1.9563c.38021-.651.81724-1.26985,1.221-1.9048-.46586-.14783-.2544-1.02648-.00326-1.89974.27977-.85454.58343-1.71169.19872-1.85194-.64409,1.57434-1.14543,3.207-1.67071,4.79859-.47218-.13959-.71877-1.08638-.61063-2.37616a8.84632,8.84632,0,0,1,.14813-1.02127,6.01188,6.01188,0,0,1,.31363-1.08287,9.69641,9.69641,0,0,1,1.131-2.1534c.77055-.50336,1.09375,1.47118,1.40476,1.5793a4.35512,4.35512,0,0,1,.61532-1.685,4.0926,4.0926,0,0,1,.9631-1.34869l-.3737,1.42653a4.66145,4.66145,0,0,0,1.08205-2.2152,3.536,3.536,0,0,1,1.684-2.12867c.49641-.58063,2.37749-.941,2.025-1.40355-1.62466.20627-4.43617-1.72319-4.497-2.91618.09028-.06226.61428-.43428,1.28166-.88632.03149.15519.0616.31279.09339.467a4.90988,4.90988,0,0,1,.10968-.60357q.24174-.16248.49616-.33016a14.78323,14.78323,0,0,1,1.47525-.87,6.62309,6.62309,0,0,1,1.1169-.49843c.75584-.1713.78778.53873.8053,1.24185.01555.70523.016,1.40391.652,1.27056-.16121-.21158.08025-.9359.20528-1.219.7127-.42449.3584.803,1.4639-.53251-.47745-.88807,2.6152-2.37818.01555-1.15153a4.91,4.91,0,0,1,1.29667-1.24847,14.3091,14.3091,0,0,0,1.60842-1.2349c-.44986-.02749-.46655-.71968-.21432-1.58635a6.6498,6.6498,0,0,1,1.38058-2.5616c.0734.25669.58678.26629.82771.26525.71911-.53229,1.36947-.98294,1.98059-1.3906.62563-.38813,1.223-.71847,1.80443-1.055l1.75971-1.02393c.61723-.33656,1.2591-.70616,1.9607-1.14561.38362.03391,1.87585-.56069,1.51671.15593a4.29157,4.29157,0,0,1,1.40536-1.39894c2.11623-.22407-1.89935,1.21749-.0968,1.36639-.08672-.27582.3819-.76349,1.012-1.31188.31708-.27014.66526-.57209,1.01981-.83891.35544-.26508.70075-.52627.98447-.76635a.91932.91932,0,0,0-.83486-.0193,4.05276,4.05276,0,0,0-1.133.6223,23.63134,23.63134,0,0,0-2.14693,1.84172c-.30948-.51726-.07394-1.35756.60821-2.35632a10.77383,10.77383,0,0,1,.74582-.95031c.23366.02043.4194-.01451,1.47189-.57556.23021.02421.28382.11886.234.24843l-.16051.10121a.137.137,0,0,0,.01673.11289,6.30906,6.30906,0,0,1-1.31128.98l2.21095-.9473c.73531-.31556,1.49885-.56776,2.24412-.85478-.3042-.42015.43076-1.03647,1.19628-1.62313.75672-.53748,1.53147-1.06227,1.35289-1.42417a9.98812,9.98812,0,0,0,.89883-.76295c-.09882.435-.22409.8439-.14072.966a4.6215,4.6215,0,0,1,1.58853-1.04943,4.34346,4.34346,0,0,1,1.67308-.543l-1.21927.98143a4.947,4.947,0,0,0,2.32146-1.20735,5.03224,5.03224,0,0,1,.95965-.53029c.032.42666-.28352.93491.0269,1.16838a8.96423,8.96423,0,0,1-2.68742.75485,10.2446,10.2446,0,0,0-2.21307.49426l1.90462-.33646a6.62845,6.62845,0,0,1-2.77828,1.3042,6.80246,6.80246,0,0,0,2.02906-.43152c.45534-.14423.9593-.31763,1.49692-.50944.545-.17039,1.12638-.35215,1.727-.54l1.8414-.57474c.63111-.16108,1.26528-.31849,1.88577-.46276.62144-.14041,1.22525-.28392,1.80591-.37521.58318-.08068,1.13546-.1403,1.63952-.17017.63461-.40341,1.78691-.93242,1.15629-1.109l-1.22322.38012c-1.28887-.3493,2.18282-1.36008.53288-1.29159.14275-.07483.29014-.14892.43718-.22305a.73119.73119,0,0,0,.13426.08023.36031.36031,0,0,1,.072-.18441c.39231-.19349.80189-.38229,1.2325-.56146.16151.24764-.12887.63977,1.22535.30474.15257-1.05562,3.707-.38364.76788-.96731.03687-.00891.07177-.01992.10889-.02856.36595-.058.73042-.11207,1.095-.16491.28224-.01927.57228-.02611.8709-.02231l.56437.81374c-.07838-.2425-1.65847-.33636-2.3.03781a5.32645,5.32645,0,0,1,2.41564-.0024,5.58757,5.58757,0,0,0,1.38345-.0089,1.587,1.587,0,0,0,1.0434-.50878l-.88457-.239c-.20824-.05158-.41708-.096-.62592-.142.11012-.00723.22468-.0155.34739-.02569a.34818.34818,0,0,1-.1231-.23l.06175-.02493c2.178-.24171,4.25363-.38636,6.05653-.42138,1.58365-.0882,2.9587-.03736,4.01938-.03889.04808.00049.092.00044.13875.00071.42454.1181.98472.25018,1.43329.41975.69735.25514,1.12327.51724.37879.722a4.74436,4.74436,0,0,1-1.937-.11214,5.88963,5.88963,0,0,0-1.0477-.49416c.4698.36267-.27005.60282-1.052.8837-.78412.27725-1.60773.66732-1.35392,1.17039l.98491-.20492.98985-.16056c.034.16229-.68209.40363-.13672.56326.06733-.28165.58965-.54251,1.30921-.65228a5.05275,5.05275,0,0,1,1.18886-.03522,4.30205,4.30205,0,0,1,1.26454.34184c1.41133-.259.98245-1.66667-.06116-2.78876.166.01049.33427.01832.49745.03248.50948.03522,1.00416.06543,1.48976.09921.518.23579,1.064.51085.56378.76458a4.55624,4.55624,0,0,1,2.08218-.30674,2.33734,2.33734,0,0,1,.44541.31128.24679.24679,0,0,0-.07354.19384c-.52686.08351-2.32251-.28093-1.31686.59976.08776-.2543.64256-.37817,1.37357-.45216a1.03372,1.03372,0,0,0,.2273.2373,3.74476,3.74476,0,0,0,1.71484-.07244,2.46539,2.46539,0,0,1,1.117-.29568l-.01939-.0024.00172-.0001a.578.578,0,0,0-.13021-.21189q.9942.17417,1.96307.34388c1.67215.37355,3.31631.71011,5.0041,1.15933l-.25366.75228,1.04958-.084a1.50207,1.50207,0,0,1-.6206-.62188c.1469.03974.29172.07441.4394.11614l1.46054.37778c.49493.12892.98813.29672,1.49949.44549.32276.10163.65435.19867.9895.296l-.24482.14837.8942.08172-.35371-.144c.18544.05392.372.11039.56032.16691-.0692-.00635-.137-.018-.20661-.02293.557.2136,1.09335.484,1.63655.73111a.66079.66079,0,0,0-.01811-.17619c.519.149,1.24464.30637,2.77128.84738.52686.20889,1.151.46681,1.89678.78957.37172.1638.77489.3415,1.213.53459l1.38108.71253q.73928.39207,1.59272.84463c.38974.20474.784.44964,1.19578.70453l-.85939-.23517c-.54577-.14107-1.10383-.25191-1.65132-.377l.48076.22281c.71487.11473,1.41158.27643,2.113.44073.16422.10155.331.2042.50238.30686.62543.39377,1.30738.78612,2.00009,1.26086q1.029.72311,2.19057,1.53947l-.01856.02912a6.90889,6.90889,0,0,1,.826.49626c-.527-.41625-1.0712-.80843-1.61129-1.21l1.02282.54177c.17039.08845.34118.1772.514.267.16753.09845.33693.19808.50983.29973.69054.40934,1.43256.86337,2.30385,1.44877.34749.28039.42434.43335.42572.50512,1.3599,1.03855,2.77217,2.01421,4.06469,3.14041l1.05373,1.18717c.64349.45418.88284.50759,1.34968.80211a7.07228,7.07228,0,0,1,.92262.7343c.20346.185.43752.40872.71092.68209a12.34454,12.34454,0,0,1,.92362,1.00281c-.86962-1.37848,1.58892,1.37276,1.34879.88176.11861.182.41037.57288.63895.89155.455.43369.94489,1.02378,1.49658,1.6237.54177.60865,1.13664,1.23679,1.67515,1.85828,1.04854,1.26631,2.01011,2.39244,2.43934,2.80563,0,0-.09576-.14243-.26229-.39043.37187.46235.67089-.03991.81625-.01933-.65613-.67649-.882-.27555-.90352-.11061l-.53486-.79629c-.54818-.79863-1.24751-1.92926-2.11-3.04174-.419-.56815-.85041-1.15321-1.27451-1.7282-.20686-.29312-.428-.56948-.64927-.83619-.21827-.26982-.432-.53392-.63851-.78908-.82771-1.02019-1.51672-1.926-1.96194-2.4326.64918.6221.97781,1.01258,1.15314,1.18558.17147.17678.16841.15743.0766.03658-.18243-.24275-.72-.893-.95071-1.16562l-.23134-.10576c-1.5178-1.5329-1.37338-1.69324-2.13233-2.468-.01105.01239.00064.04864.00992.08347.04181.02233.08179.04667.12118.07174.05015.09714-.01061.07463-.10849.01086-.00819.04432-.08944.01695-.41719-.26415.006-.00708.013-.01256.01886-.01982a4.09429,4.09429,0,0,0,.39833.284.14881.14881,0,0,0-.01269-.0826l-.37908-.2083a3.233,3.233,0,0,0,.38629-2.23477c.135.11375.2737.22661.404.34169.98121.83632,1.92447,1.60109,2.74842,2.4156q.63023.59709,1.23216,1.16744c.0657.06232.12942.1237.19477.18555-.65959-.19448-1.21424-.32718-.99992.49048a3.97471,3.97471,0,0,0,1.509,1.02053,2.61672,2.61672,0,0,1,1.13981.4527c-1.43241-1.35351-1.02929-1.0999-.60312-.91977.70682.74289,1.39331,1.46442,2.07032,2.176,1.33581,1.5411,2.67365,3.01094,3.96035,4.6743l1.00791,1.24423c.34093.42237.65589.87684.99835,1.32653.21125.29043.433.58254.65751.87714l-.30252-.02789.71141.6341-.211-.34614c.12424.16309.24779.329.37281.49611-.055-.04908-.10558-.10182-.16185-.15.34048.53382.62751,1.1031.93512,1.65681a.70363.70363,0,0,0,.0957-.1618c.34887.45475.86873,1.047,1.82995,2.47222.31778.51079.68753,1.12477,1.12021,1.87091.21382.37442.44571.78049.69764,1.22174q.33674.68364.72879,1.47972.38339.80113.826,1.726c.20336.42072.38525.87855.57573,1.356l-.58491-.7431c-.37666-.46482-.78293-.91164-1.17115-1.364l.26965.49356c.53758.5491,1.03,1.12683,1.52491,1.70974.076.1903.15351.38312.235.57893.2852.73077.61946,1.496.91093,2.3383q.42165,1.26648.8976,2.69625l-.03426.01311a7.32969,7.32969,0,0,1,.39157.94471c-.18693-.6878-.40376-1.36587-.61117-2.0494l.53086,1.10787.27014.55223.24586.57756c.33091.78513.67751,1.6409,1.0515,2.69033.11955.45857.0886.63765.04448.69974.50494,1.74453,1.09424,3.46843,1.4864,5.24527l.14986,1.67806c.26244.79373.433.99035.64547,1.53634a7.50441,7.50441,0,0,1,.3238,1.20888c.05686.28626.1154.62494.17616,1.03077a13.09982,13.09982,0,0,1,.15519,1.43868c.128-1.72516.48944,2.17425.59443,1.60373-.01362.23011-.0114.74787-.01747,1.164.11451.65724.16012,1.47.25227,2.33013.07814.86132.18925,1.77276.25657,2.643.09546,1.74236.20524,3.31024.31067,3.93369l.02265-.49867c.02552.62923.59765.38934.70871.49867-.13288-.99138-.57869-.79179-.7012-.66467l.0462-1.017c.03628-1.02748.15316-2.43366.11935-3.92732.00108-.74922.00217-1.52081.00321-2.27912.00849-.38068-.00578-.75606-.02626-1.12332-.016-.368-.03169-.72829-.04684-1.07635-.06239-1.39294-.07863-2.60079-.1388-3.31408.1613.94059.19526,1.4812.23569,1.73947.03475.25911.04437.24068.0423.07959-.00242-.32227-.05074-1.21641-.07557-1.5947l-.13065-.23626c-.32765-2.266-.10321-2.31167-.26186-3.45182-.01722.00361-.03015.04191-.04422.07747.02157.04544.04037.09146.05814.13771-.01851.11457-.05617.057-.09941-.0592-.03934.03665-.09975-.059-.22932-.66981l.04976.1117c-.24981-.92655-.59345-2.54487-.74267-3.25083l.17395-.05967a16.82213,16.82213,0,0,1-.75678-2.43068c-.14443-.57733-.30474-1.21831-.47365-1.89374-.1889-.67-.38737-1.374-.58718-2.08277-.20672-.70687-.37113-1.43564-.60455-2.11258-.22355-.68182-.43905-1.33909-.637-1.94258-.20208-.60295-.37686-1.15745-.54967-1.61876-.18263-.4571-.338-.83183-.45672-1.09423a55.53949,55.53949,0,0,0-3.6058-7.22536,21.07521,21.07521,0,0,1-1.46444-2.82172,3.97861,3.97861,0,0,0-.58185-1.35242c-1.48808-2.498.142.60944-.50341-.3601l-.84474-1.52457-.91334-1.48381c1.2014,1.628.65021.67528.49043.33278-.4348-.61608-.918-1.33154-1.41217-2.06746-.50435-.728-1.06034-1.44566-1.56405-2.12154a11.34558,11.34558,0,0,0-2.40587-2.6408c-.63417-.79772-1.11053-1.397-1.48562-1.86884-.38524-.4625-.6663-.8-.90085-1.08154-.46447-.56753-.74143-.91292-1.34415-1.5486a13.53151,13.53151,0,0,1,1.08017,1.40514c-1.0201-1.28625-.57054-.53261-.13238-.02806-.90214-.85634-3.07651-3.24545-5.25281-5.30257a24.25329,24.25329,0,0,0-4.62907-3.81054l.04408-.05839c-.64182-.10835-.06812.66664-1.557-.22792l-.86724-.77094-1.49707-.89247c-.90022-.74905-.38723-.48663-.36645-.51677-.60919-.36469-1.28284-.75744-1.97851-1.19758L131.45,13.38663c-.35973-.23717-.73022-.47185-1.116-.69027-1.53-.89476-3.09735-1.8835-4.64121-2.64366l1.43379,1.17994,1.378,1.24738-.98285-.64653-.53979-.35319-.575-.33915L124.0626,9.78036a21.82252,21.82252,0,0,0-2.03355-1.024,4.277,4.277,0,0,0-1.12445-.40366c-.49434-.31114-.97707-.655-1.48582-.94116-2.60884-1.29052-3.57643-1.625-4.1636-1.68986a4.88708,4.88708,0,0,1-1.83454-.43111l-1.3372-.6027c-.45-.19-.90673-.36059-1.36108-.54211.46561.13386.93432.25765,1.39731.39993l1.37822.46205c-.67983-.259-1.24939-.50919-1.77531-.68607l-1.43483-.50521-1.32959-.48377c-.4547-.16627-.9322-.35485-1.49124-.52087l-.0269.00208a.90814.90814,0,0,1,.268.10664l-.39952-.08359a19.58621,19.58621,0,0,1-3.88689-.61559c-1.43216-.26442-2.714-.475-4.21287-.686-.75209-.08925-1.55655-.19357-2.45967-.33116L95.314.97229c-.50948-.06271-1.04982-.1345-1.62732-.21737l-1.179.21718c-.5774-.06866-1.15451-.158-1.73394-.20953L89.03255.62806l.00671-.24238c1.71583.01062,4.18246.187,6.76924.39549,1.28951.15043,2.60938.30438,3.88087.45268l3.56508.60556.09807-.09519c-1.29208-.2213-2.67364-.45778-3.95086-.62878-1.28246-.13712-2.45287-.26262-3.31-.38185-.20825-.03625-.49591-.10345-.788-.16449C95.011.51392,94.71529.45037,94.4948.38887c-.34922-.09741-.50159-.18893-.15953-.23421L93.06678.24353C90.88332.04819,89.235.07062,87.85582.02514c-1.37969-.0597-2.49324.00511-3.61947.0094-.56333.00486-1.12963.00977-1.73384.015C81.898.0489,81.258.10547,80.54359.13286l-2.3965.11341c-.89464.04859-1.891.16945-3.03377.26994l.8048.02192c-.8968.15-1.79184.29243-2.52709.39428a5.66242,5.66242,0,0,1-1.57185.14536,146.38286,146.38286,0,0,0-14.45754,3.2188c-.21624.17545-.4355.34006-.647.52368-1.08813.405-2.8817.63905-3.26137,1.21619l-.56808.25538-.55642.28211-1.11153.564c-.73135.31385-1.30269.60737-1.90581.89575a22.63375,22.63375,0,0,1-2.06075.95562l0-.00012L47.2414,8.993l-.32059.12411c.00395.0078.01624.01.02858.01219-1.6367.75725-1.60092.807-1.62041.88916-.02143.08034-.10035.18708-1.933,1.131-1.24924.48429-1.1062,1.0057-2.82212,2.02983l-1.92363.731c-3.13847,1.86588-3.45881,2.51115-7.55766,5.80821-2.01509,1.5274-3.18826,2.07119-2.10808.73945-.76176.89464-.91888,1.11145-1.15175,1.38875-.23624.27226-.559.59181-1.61529,1.70845-.451.21207-.23628-.035.16442-.60226-2.1224,1.74285-1.13,1.25989-2.57749,2.724a5.338,5.338,0,0,1-.79415,1.93377l.61561-.5061c-.71121.81393-1.39292,1.7183-2.15591,2.60723q-.56914.66962-1.18221,1.34366c-.3885.46625-.79034.935-1.21024,1.4025l-.05518-.16555c-.5314.71664-1.08443,1.41589-1.596,2.14562l-.24822.024c-.72751,1.04746-1.46834,2.08472-2.18188,3.13968.10637-.13883.22434-.26956.34023-.40159-.26017.3654-.7473,1.19528-1.32411,2.08234l-1.66474,2.56417-.0582-.10647c-.66279.98929-1.28783,1.94513-1.82955,2.9314-.52415.99612-1.01611,1.99446-1.50852,3.01909-.9168,2.08341-1.82358,4.27706-2.80119,6.88234l.07409-.7571c-.45105.84368-.42345.99509-.39991,1.19178.0346.20137.01515.42955-.39073,1.4832l-.28214.01841a6.86964,6.86964,0,0,1-.64537,2.11354,14.58077,14.58077,0,0,0-.8009,1.57587l.5045-.516-.78546,2.464c-.45331,1.3521-.66951,1.7489-.7815,1.75-.1199-.00082-.1546-.40349-.1771-.62662-.08964.64979-.1314,1.31-.19833,1.96139l-.38036.30149a4.26159,4.26159,0,0,1-.23184,1.54815,9.955,9.955,0,0,0-.44976,2.32169c-.14892.18194-.1003-.45326-.3.3757L.74794,71.84442l-.058,2.07052.06559-1.24306c.0197-.41517.04132-.83047.09181-1.24188l.38175.36617a16.7119,16.7119,0,0,1-.27118,2.92742,12.121,12.121,0,0,0-.305,2.36481c-.01-.42452-.02893-.85056-.00958-1.27347C.53471,77.31266.48668,78.101.38278,78.72227c-.09245.6221-.20346,1.08-.311,1.92424.116-.52175.30316-1.31389.26659-.09965-.00444.89157-.169.4755-.24073,1.3176a3.0565,3.0565,0,0,1,.27883,1.50469c.01886.40326.02291.86038.01057,1.33845-.0159.478.00034.97707-.028,1.46444-.04245-.02339-.08376-.06439-.11367-.19114a6.59445,6.59445,0,0,1,.094,1.6193L0,87.09854l.35371,1.65815a9.90562,9.90562,0,0,0,.11708,1.76016c.06071.52306.09324.89031-.02221.82595L.3348,90.7166l.1427,2.104c.02769.35038.03949.70233.08031,1.05148l.12463,1.04728.25035,2.0952c.04369.349.07972.69918.12982,1.04726L1.24055,99.102l-.23648.15943a9.47307,9.47307,0,0,1,.58145,2.52c.16491.99942.38327,1.84673.561,1.66447A12.46261,12.46261,0,0,0,2.438,105.059c.14679.63143.30755,1.31811.49966,1.9146.356,1.19987.59433,2.10552.22157,1.72565.19117.66891.366,1.30138.56324,1.89752l.62805,1.702c.418,1.09318.80046,2.13286,1.28734,3.17145.22977.52422.46324,1.05689.70535,1.60919.2421.552.46841,1.13393.75973,1.72467.27883.59611.56591,1.22551.86448,1.90082.29848.67544.59843,1.40166.97381,2.15715a20.81417,20.81417,0,0,0,.94657,2.314c.109.23256.21886.47629.34334.72173l.40667.7456c.285.507.58343,1.0379.88926,1.582.59734,1.098,1.32446,2.18731,2.01652,3.25048.34715.53084.68876,1.05318,1.01789,1.5565.34887.48982.68457.9611.99972,1.40363q.48.63574.93961,1.24457l.45593.60263q.23967.28764.47494.57c.62775.75162,1.23324,1.47651,1.82417,2.184.289.35869.59947.69172.90574,1.0226l.90826.98657q.45083.48928.89721.97381l.4466.484.46822.46289c1.253,1.22974,2.476,2.495,3.88241,3.71612l1.05061.94891c.35252.32458.7162.64831,1.10506.95776l2.39323,1.97381a34.81544,34.81544,0,0,0,3.25545,2.82883c.619.46516,1.28156.90789,1.948,1.36525.6745.44577,1.33932.92789,2.05049,1.3448,2.81431,1.71755,5.74246,3.31159,8.16881,4.70787l1.47308.47686a20.61433,20.61433,0,0,0,2.75726,1.45153c.51808.2331,1.0553.47479,1.60759.72329.55144.25069,1.14311.44739,1.73271.67918,2.35888.93144,4.94116,1.77864,7.3876,2.70417,1.26138.24539,1.91411.39357,2.20242.46534-.22474-.07466-.55925-.21511-.62771-.3911,1.39065.55223,4.36233,1.05081,4.08587,1.30393l-.37612-.05373c-.14018.11932.97021.34751,2.31426.59488a27.13857,27.13857,0,0,1,3.7367.70354l-.84651-.477c.46116.08749.92074.18655,1.38364.26432l1.39361.2026-.75713-.03246,2.21644.1619c.71339.05511,1.40091.12833,2.07353.14356,1.34262.0561,2.60143.13855,3.80546.20706,1.206.02318,2.35611.05827,3.47627.09934l.83487.03122.826-.00676c.54839-.00331,1.09228-.00659,1.63474-.0099l1.62713-.00965c.54344.003,1.08605-.0522,1.63487-.078,1.09637-.07238,2.21426-.12762,3.36981-.24553,1.15269-.14742,2.34734-.31358,3.60541-.50813,1.25515-.21351,2.56273-.53114,3.95871-.851-.71541.30524-.16752.16168.58654-.01434.749-.20054,1.69589-.464,1.81163-.28981a13.94882,13.94882,0,0,0,2.08923-.28463,13.03389,13.03389,0,0,0,1.88617-.57847c.60179-.22177,1.18152-.45751,1.75038-.68533l.84671-.33354c.27646-.12106.55184-.2374.82781-.34636-.00573-.01806.01471-.04827.13415-.11935l1.96939-.63246.98492-.31674.96922-.36124c-2.13381,1.35166,2.63455-1.457.66561-.24734a74.24041,74.24041,0,0,0,16.13965-8.03049c.33792-.21886.68294-.42851,1.01661-.6564l.99153-.70117,1.98913-1.40813c.66062-.47473,1.28892-.99476,1.93523-1.48978.63663-.50752,1.29617-.98623,1.913-1.51521,2.4846-2.09385,4.89995-4.23888,7.08948-6.47538l-.471.3064c.55539-.56526,1.1364-1.17322,1.72343-1.79177.58348-.6219,1.1283-1.29568,1.68547-1.9254.54345-.64175,1.10871-1.23357,1.5835-1.82353.48332-.58281.94-1.11039,1.35437-1.55a12.30308,12.30308,0,0,0,1.1712-1.43781c.34734-.51637.66812-1.04057.95559-1.53049.57109-.98294,1.02821-1.8138,1.25881-2.21934a19.68534,19.68534,0,0,1,1.84856-2.80015c.372-.48678.59295-.72847.53871-.58738.62943-1.16473,1.20565-2.32749,1.7987-3.61051.3041-.68755.62992-1.40032,1.00239-2.15167.18524-.37619.38643-.76.59468-1.15913q.28986-.60975.62538-1.25733A10.17945,10.17945,0,0,0,165.568,118.361c.42414-.97364.83062-2.20449,1.26014-3.38094.10524-.29493.20973-.5876.312-.87408l.26245-.84985c.16945-.54848.32972-1.05421.47483-1.48436.29014-.86018.51986-1.41883.64034-1.4114l-.02359-.0521c.44038-1.169.79567-2.34972,1.13753-3.52983.18189-.58735.30149-1.19023.43249-1.79095q.18984-.90217.38076-1.80981c.27972-1.20558.43-2.44827.6619-3.70153.10435-.62872.244-1.25859.34438-1.90345q.146-.968.32839-1.96018a2.12924,2.12924,0,0,1,.02853.291A86.21,86.21,0,0,0,171.12927,84.98275ZM19.27767,113.56787a4.15066,4.15066,0,0,1-.53989-1.66425A2.39669,2.39669,0,0,1,19.27767,113.56787ZM162.78118,86.16178c-.12191-.041-.24413-.19495-.357-.58291.1381-.28742.282-.57684.42227-.86725C162.82709,85.19517,162.80986,85.67887,162.78118,86.16178ZM160.5303,102.038a2.13181,2.13181,0,0,0-.012-.30105c-.04856-.37621-.239-.44164-.69083.07185.38333-1.17947.581-.69883.91285-.69419Zm2.38524-20.56761a1.57715,1.57715,0,0,1-.019-1.106C162.90275,80.73307,162.91465,81.10176,162.91554,81.47037Zm-6.02529-27.82505q1.15212,2.57385,2.12166,5.22811a81.88595,81.88595,0,0,1,3.03189,11.12285,79.43251,79.43251,0,0,1,.84815,10.10294c-.17237.208-.36428.32034-.45722-.20822a45.59347,45.59347,0,0,0-2.1768-15.6399C159.22712,60.68151,158.01115,57.204,156.89025,53.64532Zm-1.849,62.89178c.16091-.49428.30637-1.00083.50055-1.49981.1885-.50161.40154-1.007.635-1.52786.11436-.26139.24378-.52247.35948-.79639l.35233-.84215c-.3852.515-1.37352.49949-.50164-1.43337.7438.705,1.31967-.125,1.8874-1.30982.16748-.3643.33989-.75858.52331-1.14928l-.26985.81724-.21866.66307c-.07789.21923-.16565.43488-.248.65253l-1.0017,2.60706c-.21269.52032-.43969,1.03477-.66793,1.5487-.23525.43085-.49409.87736-.74952,1.35841l.16027-.0211c-.1385.31844-.27493.6379-.42992.94859l-.6243,1.24946-.05681.11389A12.556,12.556,0,0,1,155.04125,116.5371Zm-3.069,6.23105c.17661-.31822.35041-.63143.51951-.9361.33811-.60907.65737-1.184.942-1.69656.29774-.50536.51926-.97045.72613-1.32641a5.61129,5.61129,0,0,1,.4002-.6298l-.43559.87312-.3118.625-.34211.60892-1.367,2.43707c-.242.40751-.49271.80986-.74523,1.21118a1.59979,1.59979,0,0,1-.15661.07325q.09543-.14978.19067-.29946C151.588,123.39279,151.79415,123.0855,151.97223,122.76815Zm-1.34469,2.12709a.55219.55219,0,0,0,.1233.00735c-.04043.06486-.08164.12922-.12187.1942-.1737.27106-.34241.54547-.51556.81693l-.01179.0035.00281.01032c-.07448.11651-.14719.23421-.22587.34793l-.79932,1.14627-.22528.32355a.93546.93546,0,0,1-.44739.01989c.16668-.17937.33643-.36829.511-.57007A19.98918,19.98918,0,0,0,150.62754,124.89524Zm-3.55244,4.03532-.04038.06639c-.10034.0308-.21278.06843-.35385.12181A1.99365,1.99365,0,0,0,147.0751,128.93056Zm-6.08877,8.00837c-.116.1238-.23426.2449-.3502.3682a.16871.16871,0,0,0-.01279-.07863C140.75864,137.11561,140.87651,137.02274,140.98633,136.93893Zm-1.99466,1.81875a1.305,1.305,0,0,1,.3165-.09687q-.43188.4355-.85086.87346l-.73911.79261-.23534.241c-.14384-.02056-.28737-.04077-.43338-.06505C137.71475,139.942,138.3428,139.33881,138.99167,138.75768ZM68.92658,158.67322a7.03066,7.03066,0,0,1-1.32392-.39934l.0311-.01061A3.48464,3.48464,0,0,1,68.92658,158.67322ZM60.528,155.88553a1.23031,1.23031,0,0,0,.06269.20607,1.19743,1.19743,0,0,1-.18481-.1843C60.44714,155.90031,60.49191,155.89545,60.528,155.88553Zm26.49855,4.18128c.05291.01969.11007.03894.1767.0573a6.68519,6.68519,0,0,1-.741.1288C86.64114,160.19571,86.83023,160.13319,87.02659,160.06681Zm24.5296-5.329c.31-.448.87218-1.0227.03485-.93243a5.85585,5.85585,0,0,1,2.33627-.51834c.61255-.02268.85263.179-.01861.60968l-.33135-.01174c-.04131.37532.23959.48.69261.43771a8.5568,8.5568,0,0,0,1.68094-.51434c.624-.23774,1.26043-.49577,1.75921-.64.49695-.14773.84577-.20709.92218.01584q1.34077-.682,2.68766-1.32969l2.6355-1.39c.09654-.04805.18894-.10247.2846-.1519q-.03473.03612-.06515.06989c-.41255.22239-.825.43967-1.237.64517l-.03317.3452c-.58283.33-1.01087.57091-1.34519.72978-.33816.1517-.57118.24319-.74858.30464-.35489.123-.48772.12609-.79454.25131-.28233.13952-.56328.28264-.84453.425a10.42649,10.42649,0,0,0-2.9201.924,17.61854,17.61854,0,0,0-2.122,1.13433,4.235,4.235,0,0,1-2.86664.91122l.50964-.32118,1.35141-.85473C111.19774,155.50406,111.248,155.185,111.55619,154.73778Zm-1.17771,1.875a.30673.30673,0,0,0,.15676.09726c-.0728.02424-.14531.04939-.21827.07328C110.34017,156.7278,110.35967,156.67044,110.37848,156.61279ZM47.18306,143.73408c.36624.1331.67825.3139.7353.58836-.93758.34712-1.15219-.2093-1.76494-.925C46.41562,143.48566,46.8178,143.6,47.18306,143.73408ZM12.27842,68.65329l-.2812-.195.159-.38342A2.73562,2.73562,0,0,0,12.27842,68.65329Zm-.60208,6.1883c-.59053,1.10974-.95885,1.69482-1.33635,1.012l.19467-1.53223c.04472-.37047.106-.7384.17113-1.10573q.14-.30429.28115-.607C11.20012,73.35972,11.41286,74.10174,11.67634,74.84159Zm-.91917,5.65583c.04551.19411.09566.40031.15682.63548l-.55238-.178c-.00228.07189-.0006.14712.0033.22431a4.00447,4.00447,0,0,0-.1846-.71645C10.38441,80.08619,10.5584,80.31763,10.75717,80.49742ZM9.77063,86.755l-.02315-1.24869c-.00371-.12448-.00425-.24892-.00593-.37338.05716-.19748.11758-.40025.18165-.6123a10.79764,10.79764,0,0,0,.47967-2.031A4.74959,4.74959,0,0,0,10.423,81.703c.15286.99082.50934,2.15049.12034,2.63937a10.52611,10.52611,0,0,0-.49755,3.80809,2.45468,2.45468,0,0,1-.26476-.79875C9.77759,87.15279,9.77,86.954,9.77063,86.755Zm6.87061,29.31344c-.0574-.41494.00005-.42965.096-.327a4.72613,4.72613,0,0,0,.13189.55621C16.78552,116.21427,16.70734,116.13566,16.64124,116.06846Zm-.31506-1.07668c.10262-.01779.20529-.036.30623-.05706.0153.18922.03519.36272.05785.52914ZM11.84377,72.00034l-.63743.20356a10.04822,10.04822,0,0,0,.55406-1.24467L11.17159,72.215l-.27187.08682.078.27454a1.75815,1.75815,0,0,1-.20094.24223c.05824-.3184.117-.63674.1693-.95614.04141-.26849.0927-.535.14171-.802.08361.12962.20815.08678.38332-.27456a.607.607,0,0,1-.36284.15859q.0693-.37.14512-.73876a.09506.09506,0,0,0,.06076-.01046c.05987-.04243.04961-.15506.01007-.3259.05824-.2716.11629-.54327.17764-.8143l.81147-.30949a1.27949,1.27949,0,0,0,.08786.181,12.5227,12.5227,0,0,0-.49236,1.52232A4.38158,4.38158,0,0,0,11.84377,72.00034Zm.56116-3.0676a.78173.78173,0,0,0,.19877.22132C12.44526,69.15162,12.3115,69.39666,12.40493,68.93274Zm1.53957-8.546.19684-.59053c.04344-.12066.09142-.23984.13628-.36-.00325.04064-.00834.08307-.01071.12288a4.82069,4.82069,0,0,0,.0238.64322A.95321.95321,0,0,0,13.9445,60.38671ZM30.458,27.00454l.54157-.37821q-.20568.21282-.41032.42283ZM55.99251,10.84638a7.13534,7.13534,0,0,1-1.0634.61886l.00978-.0071c.253-.1777.51116-.34574.76971-.51391l.31145-.14312ZM53.4512,12.18q-.32408.15111-.67514.31183c-.22557.11017-.4427.21814-.66053.32641.138-.13369.27928-.26323.42736-.38436q.31125-.16518.629-.31671Zm1.15733,5.48153-.45712.2883c-.20277-.30787-.05943-.88017.36536-1.55358.74749-.39732,1.02331-.32271,1.10219-.17668.10079.186-.05775.50341.13051.32752.45716-.17927.85707-.35729,1.21127-.5337C56.16537,16.55382,55.38411,17.10978,54.60853,17.66152ZM89.79979,8.30114,88.4812,8.13877c.67006.00585,1.318.00817,1.94693.02081C90.26041,8.20521,90.05251,8.2523,89.79979,8.30114Zm5.11022.516a1.00575,1.00575,0,0,1,.12093-.36748c.25741.0265.5122.05585.76285.09188l.85051.10393C96.00031,8.691,95.38149,8.762,94.91,8.81712Zm17.25626.03334c.22868.07875.45213.15654.69123.23638.15336.048.31471.10694.47079.15886a1.21265,1.21265,0,0,1,.066.1137l-1.38275-.55578C112.06839,8.82109,112.11474,8.83486,112.16627,8.85046Zm26.119,13.43854c-.172-.06693-.37908-.158-.62558-.27579l-1.02267-.97078C137.20506,21.47033,137.75651,21.88127,138.28524,22.289Zm-9.71381-6.04123c2.01109,1.16843,3.87357,2.355,5.43411,3.46307,1.407.92428,2.54828,1.8355,3.45437,2.50368.04072.03075.07823.05844.118.0882.28772.36872.68235.835.95812,1.26281.434.65784.632,1.15032-.13248.85513a5.03578,5.03578,0,0,1-1.58207-1.31822,6.24883,6.24883,0,0,0-.58209-1.08292c.132.46536-.30035.41785-.89.25625-.17256-.13517-.35307-.27908-.54295-.43429-.43283-.35639-.9134-.75211-1.41977-1.1691-.51847-.40166-1.06325-.82375-1.61168-1.24869-.55263-.41963-1.08551-.87953-1.64159-1.26152-.37765-.268-.73951-.52474-1.09094-.77408l-.44774-.56511c-.20588-.24882-.41941-.48723-.63042-.73225C128.161,16.14078,128.3654,16.19382,128.57143,16.24777ZM124.961,14.26044c.34887.18144.694.36536,1.03847.5504q.37946.24248.75722.53062l-.0148.48448c-.1772-.10642-.33367-.1981-.46176-.26955a25.57665,25.57665,0,0,0-3.91237-2.11663c.39187.08932.78936.18809,1.19786.30914A12.64769,12.64769,0,0,1,124.961,14.26044ZM68.5666,7.39569c-.25618.01553-.51206.03317-.765.06481-.27439.04921-.52588.09591-.76487.14127a1.05271,1.05271,0,0,1,.11589-.24919C67.25789,7.35606,67.82641,7.36729,68.5666,7.39569ZM56.06991,10.71935l-.03949.01449.05094-.03332ZM40.59724,18.20244c.11323-.07554.22938-.147.34354-.22117-.02843.03262-.05957.06562-.08672.09807a5.11448,5.11448,0,0,0-.38564.56393,1.01155,1.01155,0,0,0-.41186-.06115ZM27.2187,29.50531l1.13319-1.18463c.60588-.6414,1.27061-1.22344,1.9031-1.83851,1.25441-1.24341,2.626-2.35789,3.95886-3.51818.25662-.21679.52178-.42333.78634-.63057-.05962.06207-.11935.1236-.17863.18621a7.673,7.673,0,0,0-1.32367,1.84286c-.30543.24911-.62795.5121-.97351.79392-.63165.52254-1.30007,1.1518-2.07926,1.84376l-.50707-.17238c-.17646.469-.35109.93375-.51881,1.40118-.037.03651-.077.07659-.113.11188a5.33488,5.33488,0,0,1-1.10925.99079q-.337.343-.671.69105C27.28119,30.02126,27.16993,29.87294,27.2187,29.50531Zm-12.941,17.99127c.389-.80086.846-1.56351,1.28833-2.33327.45134-.76425.86621-1.55,1.345-2.29572.9631-1.48772,1.88464-3.00053,2.94132-4.41924l.76838-1.08015c.25208-.363.512-.72.79153-1.062L23.04986,34.225l.40983-.51973.434-.49949.86759-.99914c.58584-.65916,1.13654-1.35061,1.76153-1.9738l.25479-.26639c-.163.2871-.30681.52844-.43618.73577-.26916.43866-.457.75142-.64711,1.0383-.15079.23414-.29551.46178-.45464.74964q-.62386.69491-1.22214,1.38209l-.00015-.0002-.00158.0022C22.04954,36.1316,20.31738,38.27466,19.049,39.87c-.021.08142-.04309.16185-.065.24248-.64325.87526-1.31948,1.87168-2.00256,2.939-.4817.76321-.9439,1.575-1.436,2.38025q-.36746.60526-.73728,1.21436-.34843.62026-.695,1.23747c-.09087.16175-.18618.31775-.27918.47732Q14.05573,47.92892,14.27767,47.49658ZM11.386,53.52964l.47952-1.05535c.27726.1045-.05612.53743-.48377,1.06569Zm-.85708,2.1437a.52624.52624,0,0,0,.08174.06491,1.18653,1.18653,0,0,0-.131.05938ZM7.14106,66.40258a4.06957,4.06957,0,0,0,.52064.29647c-.54532,1.76112-1.004,2.6123-1.05328,1.72664.08194-.34347.16738-.68163.26027-1.01024l-.03465.29211C6.93656,67.27162,7.03874,66.83761,7.14106,66.40258Zm.02206,37.5959c-.01935-.07392-.0383-.14776-.058-.22163-.24152-.95394-.51181-1.90665-.722-2.87443q-.28484-1.45895-.57035-2.92129l-.13944-.73177-.10059-.73785-.19858-1.4753-.19536-1.47335c-.07379-.48967-.08658-.98521-.13223-1.47634q-.11181-1.476-.22266-2.93989-.03154-1.46712-.06279-2.91676l.04077.29166c-.01876-.606-.0657-1.21217-.06194-1.81857l.01821-1.81988c.02868-.1536.06505-.17137.08529-.05437-.02028-.51356-.03144-1.0644-.03509-1.64482-.01022-.58081.05276-1.18744.08761-1.81783.09526-1.25889.16782-2.6101.39927-3.97182.20484-1.36432.38549-2.76059.698-4.103.194-.92342.37463-1.83143.578-2.70233-.03785.6278-.04032.84938-.057,1.11937-.01668.21333-.04886.46077-.114.97381-.05735.23345-.12206.49715-.1924.78366-.04348.18759-.08924.3849-.13618.58762a3.957,3.957,0,0,1-.03667-.69429c-.63121,2.5093-.15006,1.58745-.42622,3.5075l.01012.02875c-.11763,1.21157-.09477,2.17749.30094,2.26177a3.575,3.575,0,0,0-.10992,1.94342c-.06925.654-.12271,1.15881-.16817,1.58836-.04442.42984-.0542.78585-.07626,1.13985-.036.70829-.05306,1.41249-.03944,2.70322l.15543-.6304c-.0036.39172-.00533.78336.00464,1.17495l-.17463.15726c.03584,1.201.05578,2.40183.10637,3.60071.00281-.16476.0189-.32986.03273-.49482.00765.42256.1036,1.32411.16367,2.31922.06081.9953.12715,2.08123.17562,2.875l-.10375-.04805c.05222,1.12073.11431,2.19493.25657,3.24555.16106,1.04821.34778,2.08007.54882,3.13209.2351,1.04.48743,2.09945.77,3.21156l-.01649.05348C7.35316,103.41744,7.25567,103.7101,7.16312,103.99848ZM15.32819,124.751c-.09492-.16824-.19078-.33624-.28416-.50485l.00918.00555.0732.105-.06688-.10117a2.10153,2.10153,0,0,0,.26634.16067A.99152.99152,0,0,1,15.32819,124.751Zm.43016.76418q.21435.269.44794.57121l.5546.715.05563.06444c.35549.56467.59369.957.7707,1.30442.26446.49667.43554.89355.78718,1.53117Q16.99076,127.63353,15.75835,125.51519Zm2.64769,4.23325c-.20238-.458-.45811-1.076.16984-.17125.49616.67785.13841.45484.55584,1.13292.10676,0,.30844.15827.56353.42333a5.66657,5.66657,0,0,0,.36279.62533,12.05394,12.05394,0,0,0,1.00175,1.27525c.14107.15457.29423.3043.44626.45443.08006.11229.16214.22349.23707.33818-.04526.00605-.09951-.00185-.19319-.0811a6.2118,6.2118,0,0,1,.97845,1.17392l-.48111-.16975Q20.11507,132.2993,18.406,129.74844Zm8.775,10.86969-.8364-.86293c-.28159-.28441-.55647-.57432-.81447-.879l-1.57521-1.79465c-.2581-.30142-.5315-.58933-.77583-.90074l-.73683-.92877c-.10706-.13364-.21087-.26893-.31694-.40306l1.06192.93851a9.32965,9.32965,0,0,0,1.07485,1.26767c.339.3622.5694.62218.44591.6381l-.437-.41057.5204.61213c-.01348.01317-.02192.02741-.03683.04027l.83921.90733.03663.03948c.19087.2234.37646.45169.57745.666l.68116.72349,1.16438,1.23549-.00947.00271C27.75622,141.21175,27.47132,140.91181,27.181,140.61813Zm46.81829,24.14919c-.24788-.05417-.43851-.10158-.59656-.14477.73368.09736,1.477.186,2.24477.24608l.06683.00656-.10657.11841C74.90211,164.90732,74.38483,164.84276,73.99928,164.76732Zm4.70937.35686.08885.00469c.41176.04986.82356.09645,1.23482.144C79.58636,165.23068,79.14874,165.17557,78.70865,165.12418Zm16.26518-.04279c-.07424-.07283-.14808-.14837-.22212-.22231.99716-.12148,1.96732-.24315,2.88792-.35443a.42978.42978,0,0,1,.24127.23525C96.92323,164.86668,95.95183,164.979,94.97383,165.08139Zm4.23453-.52676c.26852-.2002.44108-.38044.44641-.44737,1.01715-.05955,1.41439.0173,1.46982.15963Q100.17616,164.416,99.20836,164.55463Zm3.06418-.4722a4.3364,4.3364,0,0,1,.7013-.27695,10.81339,10.81339,0,0,1,1.37352-.361,1.68347,1.68347,0,0,1,1.00229.11054C104.34953,163.73371,103.3194,163.91039,102.27254,164.08243Zm3.94248-.684c-.15109.02739-.30124.05469-.45361.08211l-.24917-.02715C106.5094,163.04088,106.43684,163.17439,106.215,163.39839Zm16.43255-6.27982-.66057.33654-.67628.30365-2.70459,1.21688c-.911.38308-1.83819.72783-2.75632,1.09452-.46186.176-.91636.37257-1.38424.53219L113.06,161.076l-1.40546.47449-.70273.23757c-.236.07347-.47528.13633-.71275.205l-1.2475.49144-.39532-.11441c.975-.58989,2.153-.76737,2.11648-1.00313q.60119-.18248,1.201-.36067.54033-.08748,1.1513-.22579a29.09377,29.09377,0,0,0,4.31253-1.41328c.36609-.14584.73594-.27792,1.08822-.43634l1.03413-.47091c.673-.3063,1.30827-.5954,1.87462-.85313.573-.24334,1.05559-.50038,1.45679-.67358a5.9553,5.9553,0,0,1,.739-.28483Zm10.23105-5.97309-.60505.42782c-.20484.13791-.41585.26654-.62345.40031l-2.50025,1.59243c-.84429.51286-1.71257.98587-2.56737,1.48166-.43155.24053-.85224.50132-1.29253.72563l-1.3213.67218-.12038.06133a13.32539,13.32539,0,0,1,1.16917-.956c.44922-.32024.89311-.66067,1.37372-.96389.47745-.30906.97825-.60586,1.50615-.903.26254-.15089.53777-.292.80939-.4527l.8322-.49621a.65323.65323,0,0,1-.67341-.13712q.70568-.46485,1.38-.90335c.40445.40741,1.23773.08784,2.2073-.42572.37281-.20519.76882-.43281,1.17194-.65043Zm5.974-4.50256a2.25626,2.25626,0,0,0,.17981-.26444c.196-.35168.07478-.52772-.63485-.37471,1.07154-.76453.93688-.22959,1.21715-.01617Zm11.94115-12.12681c-.07813-.112-.08529-.32042.06333-.72267.29922-.15815.60475-.31422.90767-.47356C151.443,133.72026,151.123,134.12214,150.79373,134.51611Zm3.07568-3.91847a1.67368,1.67368,0,0,1,.6819-.95572C154.32386,129.96041,154.1013,130.28253,153.86941,130.59764Zm10.93121-21.74623a86.91443,86.91443,0,0,1-4.43311,11.405,84.30222,84.30222,0,0,1-5.65282,9.15635c-.27839.06869-.513.04344-.25874-.46624,3.60169-4.22632,6.05021-9.42521,8.01378-14.71974,1.37337-3.69659,2.5306-7.43151,3.82021-11.17566Q165.64854,105.97454,164.80062,108.85141Z"/></svg>