<svg xmlns="http://www.w3.org/2000/svg" xmlns:xlink="http://www.w3.org/1999/xlink" viewBox="0 0 750 500"><defs><style>.cls-1{isolation:isolate;}.cls-2{fill:#bad6dd;}.cls-3{fill:#6495a0;}.cls-4{fill:#80acb7;}.cls-5{fill:#95adb5;}.cls-6{fill:url(#Nueva_muestra_de_degradado_2);}.cls-7{fill:#a5c1c6;}.cls-8{fill:#576870;}.cls-9{fill:#526872;}.cls-10{fill:url(#Nueva_muestra_de_degradado_5);}.cls-11{fill:url(#linear-gradient);}.cls-12,.cls-13,.cls-18,.cls-19{fill:#fff;}.cls-13{opacity:0.29;}.cls-14{fill:#76a3b2;}.cls-15{fill:#617a87;}.cls-16{fill:#3c525b;}.cls-17,.cls-39,.cls-40{fill:#30484f;}.cls-18{opacity:0.46;}.cls-19,.cls-60,.cls-66{opacity:0.33;}.cls-20{fill:#544d30;}.cls-21{fill:url(#Degradado_sin_nombre_18);}.cls-22{opacity:0.5;fill:url(#Degradado_sin_nombre_19);}.cls-23{fill:url(#Nueva_muestra_de_degradado_4);}.cls-24{fill:url(#Nueva_muestra_de_degradado_4-2);}.cls-25{fill:url(#Nueva_muestra_de_degradado_4-3);}.cls-26{fill:url(#Nueva_muestra_de_degradado_4-4);}.cls-27{fill:url(#Nueva_muestra_de_degradado_4-5);}.cls-28{fill:url(#Nueva_muestra_de_degradado_4-6);}.cls-29{fill:url(#Nueva_muestra_de_degradado_4-7);}.cls-30{fill:url(#Nueva_muestra_de_degradado_4-8);}.cls-31{fill:url(#Nueva_muestra_de_degradado_4-9);}.cls-32{fill:url(#Nueva_muestra_de_degradado_4-10);}.cls-33{fill:url(#Nueva_muestra_de_degradado_4-11);}.cls-34{fill:url(#Nueva_muestra_de_degradado_4-12);}.cls-35{fill:url(#Nueva_muestra_de_degradado_4-13);}.cls-36{fill:url(#Nueva_muestra_de_degradado_4-14);}.cls-37{fill:#2c6f84;}.cls-38{fill:#26414f;}.cls-39{stroke:#93835c;stroke-width:5px;}.cls-39,.cls-57{stroke-miterlimit:10;}.cls-40{opacity:0.1;}.cls-40,.cls-53,.cls-66{mix-blend-mode:multiply;}.cls-41{fill:#b2a983;}.cls-42{fill:#6d6954;}.cls-43{fill:#7a7561;}.cls-44{fill:#87826b;}.cls-45{fill:#a39454;}.cls-46{fill:#5b5749;}.cls-47{fill:#303030;}.cls-48{fill:#b2b2b2;}.cls-49{fill:#005284;}.cls-50{fill:#ffeead;}.cls-51{fill:#514d3f;}.cls-52{fill:#7396c0;}.cls-53{fill:#394c77;opacity:0.45;}.cls-54{fill:#a4bdda;}.cls-55{fill:#6b7c53;}.cls-56{fill:#576049;}.cls-57{fill:none;stroke:#2f3f2c;}.cls-58{fill:#ffa08c;}.cls-59{fill:#7a0000;}.cls-60{fill:#fefefe;mix-blend-mode:overlay;}.cls-61{fill:#2d0101;opacity:0.42;}.cls-62{fill:#737f60;}.cls-63{fill:#bf761d;}.cls-64{fill:#f5ad49;}.cls-65{fill:#995f20;}.cls-66{fill:#512626;}.cls-67{fill:#54371a;}.cls-68{fill:#77512f;}.cls-69{fill:#4f4b3b;}.cls-70{fill:#b2aa86;}.cls-71{fill:#877a45;}</style><linearGradient id="Nueva_muestra_de_degradado_2" x1="126.59" y1="190.86" x2="1079.12" y2="190.86" gradientUnits="userSpaceOnUse"><stop offset="0" stop-color="#7db0bc"/><stop offset="0.25" stop-color="#557880"/><stop offset="0.5" stop-color="#314549"/><stop offset="0.72" stop-color="#161f21"/><stop offset="0.89" stop-color="#060809"/><stop offset="1"/></linearGradient><linearGradient id="Nueva_muestra_de_degradado_5" y1="466.36" x2="750" y2="466.36" gradientUnits="userSpaceOnUse"><stop offset="0.22" stop-color="#bad4e0"/><stop offset="0.33" stop-color="#9bc1cd"/><stop offset="0.42" stop-color="#85b5c1"/><stop offset="0.48" stop-color="#7db0bc"/><stop offset="0.55" stop-color="#7aabb7"/><stop offset="0.62" stop-color="#709ea9"/><stop offset="0.71" stop-color="#618891"/><stop offset="0.79" stop-color="#4b6971"/><stop offset="0.88" stop-color="#2f4246"/><stop offset="0.97" stop-color="#0d1213"/><stop offset="1"/></linearGradient><linearGradient id="linear-gradient" x1="66.06" y1="89.49" x2="816.06" y2="89.49" gradientUnits="userSpaceOnUse"><stop offset="0.06" stop-color="#bad6dd"/><stop offset="0.31" stop-color="#b8d4db"/><stop offset="0.44" stop-color="#b1ccd3"/><stop offset="0.55" stop-color="#a6bfc5"/><stop offset="0.64" stop-color="#96acb2"/><stop offset="0.73" stop-color="#809498"/><stop offset="0.8" stop-color="#66767a"/><stop offset="0.88" stop-color="#475255"/><stop offset="0.94" stop-color="#242a2b"/><stop offset="1"/></linearGradient><radialGradient id="Degradado_sin_nombre_18" cx="192.3" cy="348.01" r="832.01" gradientUnits="userSpaceOnUse"><stop offset="0.32" stop-color="#fff" stop-opacity="0"/><stop offset="0.68" stop-color="#ffeead"/><stop offset="0.8" stop-color="#fff"/></radialGradient><radialGradient id="Degradado_sin_nombre_19" cx="365.12" cy="387.97" r="836.35" gradientTransform="translate(6.48) scale(0.99 1)" gradientUnits="userSpaceOnUse"><stop offset="0.29" stop-color="#fff" stop-opacity="0"/><stop offset="0.46" stop-color="#ffeead"/><stop offset="0.8" stop-color="#fff"/></radialGradient><radialGradient id="Nueva_muestra_de_degradado_4" cx="437.39" cy="366.33" r="5.76" gradientTransform="translate(224.23 179.51) scale(0.5)" gradientUnits="userSpaceOnUse"><stop offset="0.26" stop-color="#ffefb2" stop-opacity="0.94"/><stop offset="0.54" stop-color="#fff" stop-opacity="0"/></radialGradient><radialGradient id="Nueva_muestra_de_degradado_4-2" cx="528.07" cy="384.58" r="5.76" xlink:href="#Nueva_muestra_de_degradado_4"/><radialGradient id="Nueva_muestra_de_degradado_4-3" cx="464.64" cy="474.78" r="5.76" gradientTransform="translate(113.32 68.28) scale(0.74)" xlink:href="#Nueva_muestra_de_degradado_4"/><radialGradient id="Nueva_muestra_de_degradado_4-4" cx="262.68" cy="375.93" r="5.76" gradientTransform="translate(113.32 68.28) scale(0.74)" xlink:href="#Nueva_muestra_de_degradado_4"/><radialGradient id="Nueva_muestra_de_degradado_4-5" cx="242.07" cy="494.62" r="5.76" gradientTransform="translate(113.32 68.28) scale(0.74)" xlink:href="#Nueva_muestra_de_degradado_4"/><radialGradient id="Nueva_muestra_de_degradado_4-6" cx="559.22" cy="526.35" r="5.76" gradientTransform="translate(113.32 68.28) scale(0.74)" xlink:href="#Nueva_muestra_de_degradado_4"/><radialGradient id="Nueva_muestra_de_degradado_4-7" cx="644.89" cy="500.38" r="5.76" gradientTransform="translate(113.32 68.28) scale(0.74)" xlink:href="#Nueva_muestra_de_degradado_4"/><radialGradient id="Nueva_muestra_de_degradado_4-8" cx="658.03" cy="386.62" r="5.76" gradientTransform="translate(113.32 68.28) scale(0.74)" xlink:href="#Nueva_muestra_de_degradado_4"/><radialGradient id="Nueva_muestra_de_degradado_4-9" cx="639.14" cy="314.81" r="5.76" gradientTransform="translate(113.32 68.28) scale(0.74)" xlink:href="#Nueva_muestra_de_degradado_4"/><radialGradient id="Nueva_muestra_de_degradado_4-10" cx="628.1" cy="282.51" r="5.76" gradientTransform="translate(113.32 68.28) scale(0.74)" xlink:href="#Nueva_muestra_de_degradado_4"/><radialGradient id="Nueva_muestra_de_degradado_4-11" cx="568.25" cy="325.57" r="5.76" gradientTransform="translate(113.32 68.28) scale(0.74)" xlink:href="#Nueva_muestra_de_degradado_4"/><radialGradient id="Nueva_muestra_de_degradado_4-12" cx="776.31" cy="347.39" r="5.76" gradientTransform="translate(113.32 68.28) scale(0.74)" xlink:href="#Nueva_muestra_de_degradado_4"/><radialGradient id="Nueva_muestra_de_degradado_4-13" cx="752.56" cy="469.03" r="5.76" gradientTransform="translate(113.32 68.28) scale(0.74)" xlink:href="#Nueva_muestra_de_degradado_4"/><radialGradient id="Nueva_muestra_de_degradado_4-14" cx="611.03" cy="457.92" r="5.76" gradientTransform="translate(267.33 179.87) scale(0.49)" xlink:href="#Nueva_muestra_de_degradado_4"/></defs><g class="cls-1"><g id="BACKGROUND"><polygon class="cls-2" points="159.58 178.98 0 0 0 500 159.58 432.73 159.58 178.98"/><polygon class="cls-3" points="0 398.47 159.58 381 159.58 432.73 0 500 0 398.47"/><polygon class="cls-4" points="-1.17 53.41 160.07 203.69 160.07 179.7 -1.17 -0.94 -1.17 53.41"/><rect class="cls-2" x="159.58" y="179.08" width="393.76" height="253.75"/><rect class="cls-5" x="160.08" y="381" width="393.27" height="51.73"/><rect class="cls-6" x="159.58" y="178.98" width="393.76" height="23.77"/><polygon class="cls-7" points="551.74 178.98 750 0 750 500 551.74 432.73 551.74 178.98"/><polygon class="cls-8" points="551.74 381 750 396.03 750 500 551.74 432.73 551.74 381"/><polygon class="cls-9" points="551.74 178.98 750 0 750 48.96 551.74 202.74 551.74 178.98"/><polygon class="cls-10" points="159.58 432.73 551.74 432.73 750 500 0 500 159.58 432.73"/><polygon class="cls-11" points="159.58 178.98 551.74 178.98 750 0 0 0 159.58 178.98"/><polygon class="cls-12" points="105.41 48.96 284.01 48.96 295.19 126.2 159.58 126.2 105.41 48.96"/><polygon class="cls-13" points="104.94 42.9 283.54 42.9 294.73 120.14 159.12 120.14 104.94 42.9"/><polygon class="cls-12" points="431.51 126.2 467.39 48.96 638.24 48.96 560.59 126.2 431.51 126.2"/><polygon class="cls-13" points="431.51 119.68 467.39 42.43 638.24 42.43 560.59 119.68 431.51 119.68"/></g><g id="OBJECTS"><polygon class="cls-14" points="560.1 219.99 560.1 379.37 621.61 381.24 621.61 180.85 560.1 219.99"/><polygon class="cls-15" points="560.1 379.37 560.1 388.58 741.58 402.56 741.58 385.08 560.1 379.37"/><polygon class="cls-15" points="621.61 381.24 621.61 180.85 638.04 170.48 638.04 381.82 621.61 381.24"/><polygon class="cls-16" points="560.1 219.99 575.48 219.99 621.61 193.43 621.61 180.85 560.1 219.99"/><polygon class="cls-17" points="560.1 219.99 560.1 379.37 575.48 379.84 575.48 219.99 560.1 219.99"/><polygon class="cls-18" points="567.79 219.99 567.79 379.61 621.61 381.24 621.61 187.26 567.79 219.99"/><polygon class="cls-16" points="638.04 170.48 741.58 105.12 741.58 123.99 656.91 173.63 638.04 170.48"/><polygon class="cls-17" points="656.91 173.63 656.91 382.46 638.04 381.82 638.04 170.48 656.91 173.63"/><polygon class="cls-18" points="647.48 172.05 647.48 382.14 741.58 385.08 741.58 115.95 647.48 172.05"/><polygon class="cls-19" points="656.91 173.63 741.58 123.99 741.58 385.08 656.91 382.46 656.91 173.63"/><polygon class="cls-20" points="567.79 219.99 567.79 288.62 621.61 268.93 621.61 187.26 567.79 219.99"/><polygon class="cls-20" points="647.48 172.05 647.48 293.16 741.58 268.46 741.58 115.95 647.48 172.05"/><polygon class="cls-21" points="567.79 288.62 -8.42 425.63 -8.42 506.53 481.45 506.79 621.61 381.24 621.61 268.93 567.79 288.62"/><polygon class="cls-22" points="648.3 293.16 113.88 491.77 113.88 506.77 690.67 506.79 741.58 385.08 741.58 268.46 648.3 293.16"/><path class="cls-23" d="M445.8,362.68a2.88,2.88,0,1,1-2.87-2.88A2.87,2.87,0,0,1,445.8,362.68Z"/><circle class="cls-24" cx="488.27" cy="371.8" r="2.88"/><path class="cls-25" d="M459.44,417.63a4.24,4.24,0,1,1-4.24-4.24A4.23,4.23,0,0,1,459.44,417.63Z"/><path class="cls-26" d="M310.83,344.89a4.24,4.24,0,1,1-4.23-4.24A4.23,4.23,0,0,1,310.83,344.89Z"/><path class="cls-27" d="M295.67,432.22a4.24,4.24,0,1,1-4.23-4.23A4.24,4.24,0,0,1,295.67,432.22Z"/><path class="cls-28" d="M529,455.57a4.24,4.24,0,1,1-4.23-4.24A4.23,4.23,0,0,1,529,455.57Z"/><circle class="cls-29" cx="587.83" cy="436.46" r="4.23"/><path class="cls-30" d="M601.73,352.76a4.24,4.24,0,1,1-4.24-4.24A4.23,4.23,0,0,1,601.73,352.76Z"/><path class="cls-31" d="M587.83,299.92a4.24,4.24,0,1,1-4.24-4.24A4.23,4.23,0,0,1,587.83,299.92Z"/><path class="cls-32" d="M579.71,276.15a4.24,4.24,0,1,1-4.24-4.23A4.24,4.24,0,0,1,579.71,276.15Z"/><path class="cls-33" d="M535.67,307.84a4.24,4.24,0,1,1-4.23-4.24A4.23,4.23,0,0,1,535.67,307.84Z"/><path class="cls-34" d="M688.76,323.89a4.24,4.24,0,1,1-4.24-4.23A4.24,4.24,0,0,1,688.76,323.89Z"/><path class="cls-35" d="M671.28,413.39a4.24,4.24,0,1,1-4.23-4.23A4.23,4.23,0,0,1,671.28,413.39Z"/><path class="cls-36" d="M569.18,404a2.82,2.82,0,1,1-2.81-2.82A2.81,2.81,0,0,1,569.18,404Z"/><polygon class="cls-37" points="22.57 167.09 22.57 281.74 64.52 293.38 64.52 193.89 22.57 167.09"/><polygon class="cls-38" points="51.93 264.26 51.93 334.16 83.39 338.36 83.39 277.71 51.93 264.26"/><polygon class="cls-14" points="88.98 234.43 88.98 278.86 112.75 289.42 112.75 250 88.98 234.43"/><rect class="cls-39" x="200.3" y="229.43" width="309.92" height="155.71"/><path class="cls-40" d="M507.15,381.37H461.32c-52.68,0-105.5,1.13-158.16,0,8.66.19,20.1-4.92,28.48-7.21,21.59-5.92,42.5-15,63.21-23.65,16.1-6.73,32.54-14.37,43.89-27.62,3.14-3.66,6-8.54,4.34-13.08s-6.61-6.43-11.16-7.55c-22.23-5.48-46.08-2.18-68-8.85-7.92-2.41-16.25-7-18.38-15a18.73,18.73,0,0,1,.34-9.85c2-7.1,7.06-13,13-17.5,16.76-12.65,38.35-14.65,58.76-14.65h89.54Z"/><polyline class="cls-41" points="325.25 457.89 329.33 449.5 330.04 410.12 325.25 415.25"/><polygon class="cls-42" points="177.53 398.47 146.3 405 328.05 405 330.85 398.47 177.53 398.47"/><polygon class="cls-43" points="146.3 405 146.3 415.25 327.82 415.25 328.05 405 146.3 405"/><polygon class="cls-44" points="149.1 415.25 149.1 455.09 325.25 457.89 325.25 415.25 149.1 415.25"/><polygon class="cls-45" points="327.82 415.25 330.85 408.26 330.85 398.47 328.05 405 327.82 415.25"/><path class="cls-44" d="M234,372.61h30.23a6.64,6.64,0,0,1,6.64,6.64v19.22a0,0,0,0,1,0,0h-44a0,0,0,0,1,0,0v-18.7A7.16,7.16,0,0,1,234,372.61Z"/><path class="cls-46" d="M232.81,372.61H263a6.64,6.64,0,0,1,6.64,6.64v19.22a0,0,0,0,1,0,0h-44a0,0,0,0,1,0,0v-18.7A7.16,7.16,0,0,1,232.81,372.61Z"/><path class="cls-47" d="M168.26,401.73h27.21a.46.46,0,0,0,.46-.46v-3.38a.82.82,0,0,0-.81-.82H168.44a.82.82,0,0,0-.82.82v3.2A.64.64,0,0,0,168.26,401.73Z"/><polygon class="cls-48" points="195.93 397.07 202.92 395.68 202.92 400.22 195.93 401.74 195.93 397.07"/><polygon class="cls-49" points="168.44 397.07 179.16 395.22 202.92 395.68 195.12 397.07 168.44 397.07"/><path class="cls-50" d="M299.86,392.11v7.32a.59.59,0,0,0,.34.56c1,.43,3.75,1.41,6.11-.17a.63.63,0,0,0,.26-.52v-7.19a.58.58,0,0,0-.56-.61h-5.6A.58.58,0,0,0,299.86,392.11Z"/><path class="cls-51" d="M306.24,391.64c0,.27-1.36.48-3,.48s-3-.21-3-.48,1.36-.48,3-.48S306.24,391.37,306.24,391.64Z"/><path class="cls-50" d="M306.85,393.26a1.63,1.63,0,0,1,1.49.51,2,2,0,0,1,.48,1.47,3,3,0,0,1-2.09,2.69c-.29.09-.7.07-.75-.21s.21-.4.42-.52a3.68,3.68,0,0,0,1.3-1c.44-.6.61-1.7-.32-2a1,1,0,0,0-.95.23c-.18.18-.38.45-.6.34s-.16-.31-.11-.47A1.44,1.44,0,0,1,306.85,393.26Z"/><path class="cls-52" d="M163.51,383.12a31.09,31.09,0,0,1-4.79-22.28c5.51,3,15.27,15.77,12.68,27.38Z"/><path class="cls-53" d="M162.6,363.93a49.89,49.89,0,0,0,9,23.14l.08-.09C172.94,378.17,167.55,368.93,162.6,363.93Z"/><path class="cls-52" d="M179.75,385.71a41.7,41.7,0,0,0,12.86-20c4-13.27.29-19.85,2-30.83-9,15.3-19.55,40.64-19.53,53C176.5,388.57,179.75,385.71,179.75,385.71Z"/><path class="cls-53" d="M176.57,387.07c2.59-2.94,5.56-14.61,7-29.91-4.28,10.24-7.62,20.64-8.33,27.94C176,386.38,176.57,387.07,176.57,387.07Z"/><path class="cls-54" d="M174.24,387.07s-11-14.2-8.9-31.79,15-31.24,14.41-45.52C185.55,343.73,179.22,381.42,174.24,387.07Z"/><path class="cls-53" d="M173.57,384.58s6.13-35.5,4.63-48c-1.42,14.36-6.51,46.77-6.51,46.77Z"/><path class="cls-53" d="M163.51,383.12l7.89,5.1c.1-.41.17-.83.23-1.24h0c.08-.52.13-1.05.16-1.57,0-.05,0-.1,0-.15,0-.53,0-1.07,0-1.6h0c0-.07,0-.13,0-.2l.11.07a37.1,37.1,0,0,0,2.32,3.54,7.53,7.53,0,0,0,.92-1.37c-.06.74-.1,1.45-.1,2.12,1.44.75,4.69-2.11,4.69-2.11a37.71,37.71,0,0,0,8.08-9.45c-7.63,3.52-20.76,3.21-26.59,2.85A24.86,24.86,0,0,0,163.51,383.12Z"/><polygon class="cls-55" points="172.69 381.17 158.46 381.17 163.69 400.65 172.69 400.65 181.7 400.65 186.93 381.17 172.69 381.17"/><rect class="cls-55" x="163.69" y="400.65" width="18.01" height="2.48"/><polygon class="cls-56" points="169.71 403.14 169.71 400.65 166.5 381.17 158.46 381.17 163.69 400.65 163.69 403.14 169.71 403.14"/><line class="cls-57" x1="163.69" y1="400.65" x2="181.7" y2="400.65"/><path class="cls-58" d="M490.61,466.22l.95,17.59a6.33,6.33,0,0,1-6.32,6.67h-8V466.22Z"/><path class="cls-58" d="M422.43,466.22l-.95,17.59a6.34,6.34,0,0,0,6.32,6.67h8V466.22Z"/><path class="cls-58" d="M436.62,411.1a4.29,4.29,0,1,0,4.28-4.29A4.28,4.28,0,0,0,436.62,411.1Z"/><path class="cls-58" d="M467.5,411.1a4.29,4.29,0,1,0,4.28-4.29A4.28,4.28,0,0,0,467.5,411.1Z"/><rect class="cls-58" x="449.78" y="426.42" width="13.49" height="7.1"/><path class="cls-59" d="M471.79,396.81s3.9,19.08-8.52,29.61H450.84s-11-2.31-11-29.61a9.9,9.9,0,0,1,1.78-5.59s-8.52-2.17-5-3.55,16.33-5.87,25.92,2.89c2.84-5.92,6.39-8.22,5.32,1C472.5,386.62,481.38,391.55,471.79,396.81Z"/><path class="cls-60" d="M436.64,387.67c3.55-1.38,16.33-5.87,25.92,2.89,2.84-5.92,6.39-8.22,5.32,1,4.62-4.93,13.5,0,3.91,5.26,0,0,3.9,19.08-8.52,29.61,0,0,6.71-23.43,3.68-27.39,2.93-2.95,2.14-4.85-1.8-3.16.33-3.38-.91-3.72-3.27-.9-3.73-2.82-12.3-1.58-16.69,1.84s-5.36,0-5.36,0a9.9,9.9,0,0,1,1.78-5.59S433.09,389.05,436.64,387.67Z"/><path class="cls-61" d="M450.84,426.42s-8.36-1.76-10.51-20.29c2.63-2,8.07-5.44,11.22-3,3.57,2.82.17,17.64,3.77,23.25Z"/><path class="cls-55" d="M427.19,442.69c1.73-3,5.37-5.35,9.53-7.2a48.69,48.69,0,0,1,39.6,0c4.16,1.85,7.8,4.23,9.53,7.2,5.36,9.23,7.74,26.21,7.74,26.21H477.27v38.73h-41.5V468.9H419.45S421.83,451.92,427.19,442.69Z"/><path class="cls-62" d="M435.77,435.93v33H419.45s2.38-17,7.74-26.21C428.79,440,432,437.72,435.77,435.93Z"/><path class="cls-62" d="M477.27,435.93v33h16.32s-2.38-17-7.74-26.21C484.26,440,481,437.72,477.27,435.93Z"/><path class="cls-58" d="M98.61,466.34l.94,17.59a6.32,6.32,0,0,1-6.32,6.67h-8V466.34Z"/><path class="cls-58" d="M30.42,466.34l-.94,17.59a6.32,6.32,0,0,0,6.32,6.67h8V466.34Z"/><path class="cls-58" d="M44.61,411.22a4.29,4.29,0,1,0,4.29-4.29A4.28,4.28,0,0,0,44.61,411.22Z"/><path class="cls-58" d="M75.49,411.22a4.29,4.29,0,1,0,4.28-4.29A4.28,4.28,0,0,0,75.49,411.22Z"/><rect class="cls-58" x="57.77" y="426.54" width="13.49" height="7.1"/><path class="cls-63" d="M79.78,396.94s3.91,19.07-8.52,29.6H58.83s-11-2.3-11-29.6a10,10,0,0,1,1.77-5.6s-8.52-2.16-5-3.55,16.33-5.86,25.92,2.9c2.84-5.92,6.39-8.23,5.33,1C80.49,386.74,89.37,391.67,79.78,396.94Z"/><path class="cls-64" d="M44.63,387.79c3.55-1.38,16.33-5.86,25.92,2.9,2.84-5.92,6.39-8.23,5.33,1,4.61-4.93,13.49,0,3.9,5.27,0,0,3.91,19.07-8.52,29.6,0,0,6.71-23.43,3.68-27.39,2.94-2.95,2.15-4.84-1.8-3.15.34-3.39-.9-3.72-3.27-.91-3.72-2.81-12.29-1.57-16.69,1.85s-5.35,0-5.35,0a10,10,0,0,1,1.77-5.6S41.08,389.18,44.63,387.79Z"/><path class="cls-65" d="M58.83,426.54s-8.35-1.76-10.5-20.28c2.62-2,8.06-5.45,11.21-3,3.57,2.82.17,17.64,3.77,23.25Z"/><path class="cls-55" d="M35.19,442.81c1.72-3,5.37-5.34,9.52-7.2a48.72,48.72,0,0,1,39.61,0c4.15,1.86,7.8,4.23,9.52,7.2C99.2,452,101.59,469,101.59,469H85.26v38.73H43.77V469H27.44S29.83,452,35.19,442.81Z"/><path class="cls-62" d="M43.77,436.05v33H27.44s2.39-17,7.75-26.21C36.78,440.07,40,437.84,43.77,436.05Z"/><path class="cls-62" d="M85.26,436.05v33h16.33s-2.39-17-7.75-26.21C92.25,440.07,89,437.84,85.26,436.05Z"/><path class="cls-58" d="M247,477.08,246,494.67a6.32,6.32,0,0,0,6.32,6.67h8V477.08Z"/><path class="cls-58" d="M315.17,477.08l.94,17.59a6.32,6.32,0,0,1-6.32,6.67h-8V477.08Z"/><path class="cls-58" d="M301,422a4.29,4.29,0,1,1-4.29-4.29A4.29,4.29,0,0,1,301,422Z"/><path class="cls-58" d="M270.1,422a4.29,4.29,0,1,1-4.28-4.29A4.28,4.28,0,0,1,270.1,422Z"/><rect class="cls-58" x="274.33" y="437.28" width="13.49" height="7.1"/><path class="cls-55" d="M310.4,453.55c-1.72-3-5.37-5.35-9.52-7.2a48.72,48.72,0,0,0-39.61,0c-4.15,1.85-7.8,4.23-9.52,7.2-5.36,9.23-4.91,26.21-4.91,26.21h13.49v38.73h41.49V479.76l13.52.55S315.76,462.78,310.4,453.55Z"/><path class="cls-62" d="M301.82,446.79v33l13.52.55s.42-17.53-4.94-26.76C308.81,450.81,305.58,448.58,301.82,446.79Z"/><path class="cls-62" d="M260.33,446.79v33H246.84s-.45-17,4.91-26.21C253.34,450.81,256.57,448.58,260.33,446.79Z"/><path class="cls-64" d="M298.65,472H263.86V411.59a17.21,17.21,0,0,1,17.22-17.21h.35a17.21,17.21,0,0,1,17.22,17.21Z"/><path class="cls-66" d="M287.26,395.41a17.1,17.1,0,0,0-5.83-1h-.35a17.21,17.21,0,0,0-17.22,17.21V472h12V411.59A17.2,17.2,0,0,1,287.26,395.41Z"/><path class="cls-60" d="M292.41,472h6.24V411.59a17.08,17.08,0,0,0-2-8c-2.12,3.62-4.24,9.46-4.24,18.39Z"/><path class="cls-58" d="M654.37,465.44l-.94,17.6a6.32,6.32,0,0,0,6.32,6.66h8V465.44Z"/><path class="cls-58" d="M722.56,465.44l.94,17.6a6.32,6.32,0,0,1-6.32,6.66h-8V465.44Z"/><path class="cls-58" d="M708.37,410.32a4.29,4.29,0,1,1-4.29-4.28A4.29,4.29,0,0,1,708.37,410.32Z"/><path class="cls-58" d="M677.49,410.32a4.29,4.29,0,1,1-4.28-4.28A4.29,4.29,0,0,1,677.49,410.32Z"/><rect class="cls-58" x="681.72" y="425.64" width="13.49" height="7.1"/><path class="cls-55" d="M717.79,441.91c-1.72-3-5.37-5.34-9.52-7.2a48.72,48.72,0,0,0-39.61,0c-4.15,1.86-7.8,4.23-9.52,7.2-5.36,9.24-4.91,26.22-4.91,26.22h13.49v38.72h41.49V468.13l13.52.55S723.15,451.15,717.79,441.91Z"/><path class="cls-62" d="M709.21,435.15v33l13.52.55s.42-17.53-4.94-26.77C716.2,439.17,713,436.94,709.21,435.15Z"/><path class="cls-62" d="M667.72,435.15v33H654.23s-.45-17,4.91-26.22C660.73,439.17,664,436.94,667.72,435.15Z"/><path class="cls-67" d="M706,460.35H671.25V400a17.22,17.22,0,0,1,17.22-17.22h.35A17.21,17.21,0,0,1,706,400Z"/><path class="cls-66" d="M694.65,383.77a17.35,17.35,0,0,0-5.83-1h-.35A17.22,17.22,0,0,0,671.25,400v60.39h12V400A17.21,17.21,0,0,1,694.65,383.77Z"/><path class="cls-68" d="M699.8,460.35H706V400a17.11,17.11,0,0,0-2-8c-2.12,3.62-4.24,9.46-4.24,18.39Z"/><rect class="cls-69" x="154.07" y="477.73" width="9.76" height="27.12"/><rect class="cls-69" x="182.07" y="458.64" width="7.85" height="46.21"/><rect class="cls-69" x="-2.9" y="477.95" width="8.06" height="26.9"/><polygon class="cls-45" points="-8.42 470.1 53.22 451.01 191.4 451.01 161.49 470.1 -8.42 470.1"/><polygon class="cls-42" points="-8.42 470.1 -8.42 481.55 160.86 481.55 161.49 470.1 -8.42 470.1"/><polygon class="cls-70" points="160.86 481.55 191.4 457.69 191.4 451.01 161.49 470.1 160.86 481.55"/><path class="cls-70" d="M24.46,492.79v-32a10.61,10.61,0,0,1,10.61-10.6h66.71a11.35,11.35,0,0,1,11.35,11.35v29.38L111.64,493Z"/><path class="cls-71" d="M23,493V461a10.6,10.6,0,0,1,10.6-10.61H100.3a11.35,11.35,0,0,1,11.34,11.35V493Z"/><path class="cls-45" d="M43.13,472.22h0a4.24,4.24,0,0,1,4.24,4.24v28.05H39.31V476A3.82,3.82,0,0,1,43.13,472.22Z"/><path class="cls-69" d="M42.49,472.32h0a4.24,4.24,0,0,1,4.24,4.25v28H38.67V476.14A3.82,3.82,0,0,1,42.49,472.32Z"/><path class="cls-45" d="M88.08,472.54h0a3.84,3.84,0,0,1,3.84,3.84v28.45H83.86V476.77A4.23,4.23,0,0,1,88.08,472.54Z"/><path class="cls-69" d="M87.45,472.56h0a3.84,3.84,0,0,1,3.83,3.83v28.46H83.22V476.79A4.23,4.23,0,0,1,87.45,472.56Z"/><rect class="cls-69" x="602.98" y="476.68" width="9.76" height="27.52"/><rect class="cls-69" x="678.71" y="456.64" width="9.76" height="47.56"/><rect class="cls-69" x="554.45" y="455.93" width="9.76" height="48.28"/><polygon class="cls-45" points="549.31 450.59 684.54 449.96 771.41 469.69 598.31 471.28 549.31 450.59"/><polygon class="cls-46" points="549.31 450.59 549.31 458.23 598.31 481.14 598.31 471.28 549.31 450.59"/><polygon class="cls-42" points="598.31 471.28 771.41 469.69 771.41 481.14 598.31 481.14 598.31 471.28"/><path class="cls-42" d="M730.89,492v-32c0-5.85-5-10.6-11.2-10.6H649.25c-6.62,0-12,5.08-12,11.35v29.38l1.57,2.12Z"/><path class="cls-71" d="M732.45,492.19v-32c0-5.86-5-10.61-11.2-10.61H650.81c-6.61,0-12,5.08-12,11.35v31.29Z"/><path class="cls-45" d="M711.18,471.4h0a4.36,4.36,0,0,0-4.48,4.24v28.05h8.51V475.22A3.93,3.93,0,0,0,711.18,471.4Z"/><path class="cls-69" d="M711.85,471.51h0a4.36,4.36,0,0,0-4.48,4.24V503.8h8.51V475.32A3.92,3.92,0,0,0,711.85,471.51Z"/><path class="cls-45" d="M663.71,471.72h0a4,4,0,0,0-4.05,3.84V504h8.51V476A4.36,4.36,0,0,0,663.71,471.72Z"/><path class="cls-69" d="M664.38,471.74h0a4,4,0,0,0-4,3.83V504h8.51V476A4.34,4.34,0,0,0,664.38,471.74Z"/><rect class="cls-69" x="383.11" y="478.96" width="9.76" height="27.12"/><rect class="cls-69" x="524.81" y="478.96" width="9.76" height="26.88"/><rect class="cls-69" x="503.81" y="459.44" width="7.85" height="46.4"/><polygon class="cls-45" points="385.87 452.23 508.9 452.23 539.87 471.32 378.65 471.32 385.87 452.23"/><rect class="cls-42" x="378.65" y="471.32" width="161.22" height="11.45"/><path class="cls-71" d="M414.18,494.23v-32a10.61,10.61,0,0,1,10.61-10.61h66.72a11.35,11.35,0,0,1,11.34,11.35v31.29Z"/><path class="cls-69" d="M433.7,473.55h0a4.24,4.24,0,0,1,4.24,4.24v28h-8.06V477.37A3.82,3.82,0,0,1,433.7,473.55Z"/><path class="cls-69" d="M478.66,473.79h0a3.82,3.82,0,0,1,3.83,3.8v28.25h-8.06V478A4.2,4.2,0,0,1,478.66,473.79Z"/><rect class="cls-69" x="347.47" y="479.41" width="9.76" height="27.12" transform="translate(704.7 985.94) rotate(180)"/><rect class="cls-69" x="205.77" y="479.41" width="9.76" height="26.88" transform="translate(421.3 985.71) rotate(180)"/><rect class="cls-69" x="228.68" y="459.9" width="7.85" height="46.4" transform="translate(465.21 966.19) rotate(180)"/><polygon class="cls-45" points="354.47 452.69 231.44 452.69 200.47 471.78 361.68 471.78 354.47 452.69"/><rect class="cls-42" x="200.47" y="471.78" width="161.22" height="11.45"/><path class="cls-71" d="M326.15,494.69v-32a10.61,10.61,0,0,0-10.6-10.61H248.83a11.35,11.35,0,0,0-11.35,11.35v31.29Z"/><path class="cls-69" d="M306.64,474h0a4.25,4.25,0,0,0-4.25,4.25v28h8.06V477.82A3.81,3.81,0,0,0,306.64,474Z"/><path class="cls-69" d="M261.68,474.24h0a3.81,3.81,0,0,0-3.83,3.8v28.25h8.06V478.44A4.21,4.21,0,0,0,261.68,474.24Z"/></g></g></svg>