<svg xmlns="http://www.w3.org/2000/svg" xmlns:xlink="http://www.w3.org/1999/xlink" viewBox="0 0 143.2691 191.2632"><defs><style>.a{mask:url(#a);filter:url(#f);}.b,.d{mix-blend-mode:multiply;}.b{fill:url(#c);}.c{isolation:isolate;}.d{fill:#ddd;}.e{fill:url(#d);}.f{mask:url(#e);}.g{fill:url(#g);}.h{fill:#fff;opacity:0.4;mix-blend-mode:screen;}.i{opacity:0.8;fill:url(#h);}.j{filter:url(#b);}</style><filter id="b" x="0" y="-8403.7329" width="143.2691" height="32766" filterUnits="userSpaceOnUse" color-interpolation-filters="sRGB"><feFlood flood-color="#fff" result="bg"/><feBlend in="SourceGraphic" in2="bg"/></filter><mask id="a" x="0" y="-8403.7329" width="143.2691" height="32766" maskUnits="userSpaceOnUse"><g class="j"/></mask><linearGradient id="c" y1="98.95215" x2="143.2691" y2="98.95215" gradientUnits="userSpaceOnUse"><stop offset="0"/><stop offset="0.50004" stop-color="#fff"/><stop offset="1" stop-color="#fff"/></linearGradient><linearGradient id="d" x1="44.81565" y1="148.70846" x2="118.00087" y2="2.33835" gradientUnits="userSpaceOnUse"><stop offset="0.63752" stop-color="#f3f4f4"/><stop offset="1" stop-color="#edeeee"/></linearGradient><filter id="f" x="0" y="6.9614" width="143.2691" height="183.9815" filterUnits="userSpaceOnUse" color-interpolation-filters="sRGB"><feFlood flood-color="#fff" result="bg"/><feBlend in="SourceGraphic" in2="bg"/></filter><mask id="e" x="0" y="6.9614" width="143.2691" height="183.9815" maskUnits="userSpaceOnUse"><g class="a"><path class="b" d="M133.06591,190.9429H0v-7.5621l.0215-.0092,4.5225-1.9185.0161.0142a2.763,2.763,0,0,0,3.8569-.4024,2.783,2.783,0,0,0,.5757-2.31,2.76212,2.76212,0,0,0-4.9336-1.0801l-.0093.0122-.0146.0015L0,178.208V164.2109l.0288-.0053,4.2896-.8135.0132.0132a2.763,2.763,0,1,0-.2159-3.6626l-.0161.0205-.0244-.0093L0,158.1938V145.9975l.0303-.0048,4.12061-.6446.01269.0157a2.76314,2.76314,0,1,0,.0869-3.6363l-.0122.0127-.0171-.0014L0,141.3584V125.6211l.0484.0185,3.85351,1.4947.00579.0107a2.76357,2.76357,0,0,0,5.085-1.9614,2.76189,2.76189,0,0,0-4.6611-1.3985l-.01369.0137-.01951-.0044L0,122.7847V109.2705l3.8262-.1299.0103.0195a2.76447,2.76447,0,1,0,.4096-3.142l-.01319.0146-.01951-.0039L0,105.2275V92.3745l1.16991-.3081.01229.0063a4.44148,4.44148,0,0,0,1.4472-.2294c.8233-.1983,1.3321-.3155,1.4302-.1841a2.7612,2.7612,0,0,0,4.2842.205,2.73994,2.73994,0,0,0,.685-2.1596,2.76222,2.76222,0,0,0-4.2885-1.9712,8.37183,8.37183,0,0,1-1.2315.458,7.26651,7.26651,0,0,0-2.1323.8945l-.0093.0166-.019.002L0,89.227V73.8559l.0362.001,4.142.0952.0103.0122A2.7633,2.7633,0,1,0,4.2774,70.27l-.0127.0122-.0171-.0014L0,69.8769V58.6577l.0147-.0102,1.8525-1.336.0093-.0005,3.4912-.396.0078.003a2.78413,2.78413,0,0,0,1.416.1079,2.76333,2.76333,0,0,0-.8154-5.4624,2.78153,2.78153,0,0,0-2.4204,2.3139,2.81921,2.81921,0,0,0,.0249.9966l.00731.0352-.03511.0068L0,55.5874V37.8852l3.8516-.125.0107.0191a2.76385,2.76385,0,1,0,.1324-2.8716l-.0113.0166-.02-.001L0,34.7373V18.56l.0215-.0092.7817-.3448.0093.001c2.7105.2691,2.7105.3462,2.7105.3877A2.76177,2.76177,0,1,0,6.2852,15.833a3.61734,3.61734,0,0,0-2.11529.7646l-.01311.0181-.022-.0049L.9102,15.9521,0,15.4126V6.9614H133.314a9.96564,9.96564,0,0,1,9.9551,9.9546V180.7397A10.21483,10.21483,0,0,1,133.06591,190.9429ZM.0708,190.8725H133.06591a10.14388,10.14388,0,0,0,10.13189-10.1328V16.916a9.895,9.895,0,0,0-9.8838-9.8838H.0708v8.3399l.8706.5156,3.1866.6494a3.78446,3.78446,0,0,1,2.1572-.7754,2.83324,2.83324,0,1,1-2.833,2.8501c-.1636-.0679-1.6846-.2383-2.6372-.333l-.7442.3276V34.6689l3.876.1827A2.83336,2.83336,0,0,1,9.062,35.8838,2.83436,2.83436,0,0,1,3.8106,37.833l-3.7398.1211V55.5015l3.43311-.649a2.88847,2.88847,0,0,1-.01851-.9858,2.85156,2.85156,0,0,1,2.4829-2.3731,2.83409,2.83409,0,0,1,.8354,5.6026,2.85313,2.85313,0,0,1-1.44379-.1084l-3.46581.3926L.0708,58.6943V69.812l4.1665.3965a2.84383,2.84383,0,0,1,2.57961-.8267A2.8155,2.8155,0,0,1,9.062,71.5981a2.83374,2.83374,0,0,1-4.917,2.4244L.0708,73.9287V89.1494l1.2534-.1138a7.13733,7.13733,0,0,1,2.1622-.9116,8.45018,8.45018,0,0,0,1.2143-.4497,2.83337,2.83337,0,0,1,4.3984,2.023,2.83291,2.83291,0,0,1-2.8139,3.1591A2.84591,2.84591,0,0,1,4.002,91.7012c-.0733-.0987-.7847.0727-1.3555.2109a4.29144,4.29144,0,0,1-1.4834.23l-1.0923.2876v12.7392l4.1363.7862a2.84534,2.84534,0,0,1,2.5957-.8618,2.81393,2.81393,0,0,1,2.2592,2.2192,2.83423,2.83423,0,0,1-5.2778,1.9004l-3.7134.1264V122.728l4.2246.9927a2.83317,2.83317,0,0,1,4.7666,1.4492,2.83414,2.83414,0,0,1-5.2089,2.022L.0708,125.7246v15.5688l4.1392.3731a2.83251,2.83251,0,1,1-.0879,3.7583l-4.0513.6338V158.145l4.0054,1.5332a2.833,2.833,0,1,1,.21871,3.7901L.0708,164.27v13.8569l3.94-.5073a2.83148,2.83148,0,1,1,.5215,3.9165L.0708,183.4282Z"/></g></mask><linearGradient id="g" y1="98.95215" x2="143.2691" y2="98.95215" gradientUnits="userSpaceOnUse"><stop offset="0" stop-color="#c1c5c6"/><stop offset="0.50004" stop-color="#dadad9"/><stop offset="1" stop-color="#eee"/></linearGradient><linearGradient id="h" x1="-115.46163" y1="-455.17863" x2="-105.3584" y2="-365.25928" gradientTransform="matrix(0.3601, -0.656, 0.3074, 0.7548, 242.54626, 254.35068)" gradientUnits="userSpaceOnUse"><stop offset="0" stop-color="#04bed3"/><stop offset="0.48464" stop-color="#37dff2"/><stop offset="1" stop-color="#04c4d9"/></linearGradient></defs><g class="c"><path class="d" d="M4.0303,178.0083a2.797,2.797,0,1,1,.5078,3.8418L.0357,183.7598v7.5034H133.06591a10.16806,10.16806,0,0,0,10.16749-10.168V17.2715A9.91953,9.91953,0,0,0,133.314,7.352H.0357v8.3955l.8925.5293,3.2139.6548a3.6554,3.6554,0,0,1,2.1426-.7788,2.79836,2.79836,0,1,1-2.7969,2.7969c0-.0864-2.6787-.3521-2.6787-.3521l-.7734.3409V35.0586l3.92921.1846a2.79723,2.79723,0,1,1-.13381,2.9086l-3.7954.1236V55.8999l3.51021-.6636a2.85422,2.85422,0,0,1-.02541-1.0088,2.80008,2.80008,0,1,1,1.8433,3.0791l-3.4834.3946-1.8447,1.33V70.1997l4.2158.4009a2.797,2.797,0,1,1-.0903,3.7422L.0357,74.2475V89.5434l1.3091-.1191c.2153-.3965,3.0039-1.1138,3.3759-1.3652a2.7977,2.7977,0,1,1-.6899,3.9765c-.17089-.2319-2.5186.5992-2.8648.4239l-1.1303.2978v12.7964l4.1841.7954a2.79732,2.79732,0,1,1-.4146,3.1826l-3.7695.1284v13.4517l4.2715,1.0034a2.79642,2.79642,0,1,1-.4302,3.4029L.0357,126.0278v15.6533l4.1884.3775a2.79718,2.79718,0,1,1-.0878,3.6831l-4.1006.6416v12.1416l4.05221,1.5513a2.79753,2.79753,0,1,1,.21929,3.7094l-4.2715.8101v13.9268Z"/><path class="e" d="M4.0303,177.6533a2.7968,2.7968,0,1,1,.5078,3.8413L.0357,183.4048v7.5029H133.06591a10.168,10.168,0,0,0,10.16749-10.168V16.916a9.91951,9.91951,0,0,0-9.9194-9.9194H.0357v8.396l.8925.5288,3.2139.6548a3.65473,3.65473,0,0,1,2.1426-.7788,2.79831,2.79831,0,1,1-2.7969,2.7973c0-.0869-2.6787-.3525-2.6787-.3525l-.7734.3408V34.7031l3.92921.1851a2.7974,2.7974,0,1,1-.13381,2.9082l-3.7954.1235V55.5444l3.51021-.6631a2.85648,2.85648,0,0,1-.02541-1.0092,2.7999,2.7999,0,1,1,1.8433,3.0791l-3.4834.395L.0357,58.6763V69.8447l4.2158.4004a2.79754,2.79754,0,1,1-.0903,3.7422L.0357,73.8921V89.188l1.3091-.1192c.2153-.3964,3.0039-1.1137,3.3759-1.3652a2.79808,2.79808,0,1,1-.6899,3.9766c-.17089-.2315-2.5186.5991-2.8648.4243l-1.1303.2973v12.7964l4.1841.7954a2.79716,2.79716,0,1,1-.4146,3.1831l-3.7695.1285v13.4511l4.2715,1.0035a2.79663,2.79663,0,1,1-.4302,3.4033L.0357,125.6728v15.6534l4.1884.3774a2.79728,2.79728,0,1,1-.0878,3.6831l-4.1006.6411v12.1416l4.05221,1.5513a2.79747,2.79747,0,1,1,.21929,3.7095l-4.2715.8105v13.9268Z"/><g class="f"><path class="g" d="M133.06591,190.9429H0v-7.5621l.0215-.0092,4.5225-1.9185.0161.0142a2.763,2.763,0,0,0,3.8569-.4024,2.783,2.783,0,0,0,.5757-2.31,2.76212,2.76212,0,0,0-4.9336-1.0801l-.0093.0122-.0146.0015L0,178.208V164.2109l.0288-.0053,4.2896-.8135.0132.0132a2.763,2.763,0,1,0-.2159-3.6626l-.0161.0205-.0244-.0093L0,158.1938V145.9975l.0303-.0048,4.12061-.6446.01269.0157a2.76314,2.76314,0,1,0,.0869-3.6363l-.0122.0127-.0171-.0014L0,141.3584V125.6211l.0484.0185,3.85351,1.4947.00579.0107a2.76357,2.76357,0,0,0,5.085-1.9614,2.76189,2.76189,0,0,0-4.6611-1.3985l-.01369.0137-.01951-.0044L0,122.7847V109.2705l3.8262-.1299.0103.0195a2.76447,2.76447,0,1,0,.4096-3.142l-.01319.0146-.01951-.0039L0,105.2275V92.3745l1.16991-.3081.01229.0063a4.44148,4.44148,0,0,0,1.4472-.2294c.8233-.1983,1.3321-.3155,1.4302-.1841a2.7612,2.7612,0,0,0,4.2842.205,2.73994,2.73994,0,0,0,.685-2.1596,2.76222,2.76222,0,0,0-4.2885-1.9712,8.37183,8.37183,0,0,1-1.2315.458,7.26651,7.26651,0,0,0-2.1323.8945l-.0093.0166-.019.002L0,89.227V73.8559l.0362.001,4.142.0952.0103.0122A2.7633,2.7633,0,1,0,4.2774,70.27l-.0127.0122-.0171-.0014L0,69.8769V58.6577l.0147-.0102,1.8525-1.336.0093-.0005,3.4912-.396.0078.003a2.78413,2.78413,0,0,0,1.416.1079,2.76333,2.76333,0,0,0-.8154-5.4624,2.78153,2.78153,0,0,0-2.4204,2.3139,2.81921,2.81921,0,0,0,.0249.9966l.00731.0352-.03511.0068L0,55.5874V37.8852l3.8516-.125.0107.0191a2.76385,2.76385,0,1,0,.1324-2.8716l-.0113.0166-.02-.001L0,34.7373V18.56l.0215-.0092.7817-.3448.0093.001c2.7105.2691,2.7105.3462,2.7105.3877A2.76177,2.76177,0,1,0,6.2852,15.833a3.61734,3.61734,0,0,0-2.11529.7646l-.01311.0181-.022-.0049L.9102,15.9521,0,15.4126V6.9614H133.314a9.96564,9.96564,0,0,1,9.9551,9.9546V180.7397A10.21483,10.21483,0,0,1,133.06591,190.9429ZM.0708,190.8725H133.06591a10.14388,10.14388,0,0,0,10.13189-10.1328V16.916a9.895,9.895,0,0,0-9.8838-9.8838H.0708v8.3399l.8706.5156,3.1866.6494a3.78446,3.78446,0,0,1,2.1572-.7754,2.83324,2.83324,0,1,1-2.833,2.8501c-.1636-.0679-1.6846-.2383-2.6372-.333l-.7442.3276V34.6689l3.876.1827A2.83336,2.83336,0,0,1,9.062,35.8838,2.83436,2.83436,0,0,1,3.8106,37.833l-3.7398.1211V55.5015l3.43311-.649a2.88847,2.88847,0,0,1-.01851-.9858,2.85156,2.85156,0,0,1,2.4829-2.3731,2.83409,2.83409,0,0,1,.8354,5.6026,2.85313,2.85313,0,0,1-1.44379-.1084l-3.46581.3926L.0708,58.6943V69.812l4.1665.3965a2.84383,2.84383,0,0,1,2.57961-.8267A2.8155,2.8155,0,0,1,9.062,71.5981a2.83374,2.83374,0,0,1-4.917,2.4244L.0708,73.9287V89.1494l1.2534-.1138a7.13733,7.13733,0,0,1,2.1622-.9116,8.45018,8.45018,0,0,0,1.2143-.4497,2.83337,2.83337,0,0,1,4.3984,2.023,2.83291,2.83291,0,0,1-2.8139,3.1591A2.84591,2.84591,0,0,1,4.002,91.7012c-.0733-.0987-.7847.0727-1.3555.2109a4.29144,4.29144,0,0,1-1.4834.23l-1.0923.2876v12.7392l4.1363.7862a2.84534,2.84534,0,0,1,2.5957-.8618,2.81393,2.81393,0,0,1,2.2592,2.2192,2.83423,2.83423,0,0,1-5.2778,1.9004l-3.7134.1264V122.728l4.2246.9927a2.83317,2.83317,0,0,1,4.7666,1.4492,2.83414,2.83414,0,0,1-5.2089,2.022L.0708,125.7246v15.5688l4.1392.3731a2.83251,2.83251,0,1,1-.0879,3.7583l-4.0513.6338V158.145l4.0054,1.5332a2.833,2.833,0,1,1,.21871,3.7901L.0708,164.27v13.8569l3.94-.5073a2.83148,2.83148,0,1,1,.5215,3.9165L.0708,183.4282Z"/></g><polygon class="h" points="46.718 13.22 47.63 11.512 46.737 9.793 47.649 7.839 46.757 6.121 47.666 4.657 46.773 2.938 47.683 1.719 46.79 0 96.532 0.078 95.445 1.908 96.514 3.138 95.427 5.213 96.496 6.688 95.469 8.273 96.479 9.748 95.509 11.579 96.46 13.297 46.718 13.22"/><polygon class="i" points="46.737 13.845 47.649 12.136 46.757 10.418 47.669 8.464 46.776 6.745 47.686 5.282 46.792 3.563 47.702 2.344 46.809 0.625 96.551 0.703 95.464 2.533 96.533 3.763 95.447 5.838 96.515 7.313 95.488 8.898 96.499 10.373 95.528 12.204 96.479 13.922 46.737 13.845"/></g></svg>