<svg xmlns="http://www.w3.org/2000/svg" viewBox="0 0 222.1 124.11"><defs><style>.cls-1{isolation:isolate;}.cls-2{fill:#ffa08c;}.cls-3{fill:#6b7c53;}.cls-4{fill:#737f60;}.cls-5{fill:#54371a;}.cls-6{fill:#512626;opacity:0.33;mix-blend-mode:multiply;}.cls-7{fill:#77512f;}.cls-8{fill:#4f4b3b;}.cls-9{fill:#a39454;}.cls-10{fill:#5b5749;}.cls-11{fill:#6d6954;}.cls-12{fill:#877a45;}</style></defs><g class="cls-1"><g id="OBJECTS"><path class="cls-2" d="M107.77,82.7l-.94,17.6a6.33,6.33,0,0,0,6.32,6.66h8V82.7Z"/><path class="cls-2" d="M176,82.7l.94,17.6a6.32,6.32,0,0,1-6.32,6.66h-8V82.7Z"/><path class="cls-2" d="M161.77,27.58a4.29,4.29,0,1,1-4.28-4.28A4.29,4.29,0,0,1,161.77,27.58Z"/><path class="cls-2" d="M130.89,27.58a4.29,4.29,0,1,1-4.28-4.28A4.29,4.29,0,0,1,130.89,27.58Z"/><rect class="cls-2" x="135.12" y="42.9" width="13.49" height="7.1"/><path class="cls-3" d="M171.19,59.17c-1.72-3-5.37-5.34-9.52-7.2a48.72,48.72,0,0,0-39.61,0c-4.15,1.86-7.8,4.23-9.52,7.2-5.36,9.24-4.91,26.22-4.91,26.22h13.49v38.72h41.49V85.39l13.52.55S176.55,68.41,171.19,59.17Z"/><path class="cls-4" d="M162.61,52.41v33l13.52.55s.42-17.53-4.94-26.77C169.6,56.43,166.37,54.2,162.61,52.41Z"/><path class="cls-4" d="M121.12,52.41v33H107.63s-.45-17,4.91-26.22C114.13,56.43,117.36,54.2,121.12,52.41Z"/><path class="cls-5" d="M159.44,77.61H124.66V17.22A17.21,17.21,0,0,1,141.87,0h.35a17.22,17.22,0,0,1,17.22,17.22Z"/><path class="cls-6" d="M148.05,1a17.3,17.3,0,0,0-5.83-1h-.35a17.21,17.21,0,0,0-17.21,17.22V77.61h12V17.22A17.21,17.21,0,0,1,148.05,1Z"/><path class="cls-7" d="M153.2,77.61h6.24V17.22a17.23,17.23,0,0,0-2-8c-2.13,3.62-4.25,9.46-4.25,18.39Z"/><rect class="cls-8" x="53.67" y="93.09" width="9.76" height="27.52"/><rect class="cls-8" x="206.08" y="93.09" width="9.76" height="27.52"/><rect class="cls-8" x="129.4" y="73.05" width="9.76" height="47.56"/><rect class="cls-8" x="5.14" y="72.33" width="9.76" height="48.28"/><polygon class="cls-9" points="0 67 135.23 66.36 222.1 86.09 49 87.68 0 67"/><polygon class="cls-10" points="0 67 0 74.64 49 97.55 49 87.68 0 67"/><polygon class="cls-11" points="49 87.68 222.1 86.09 222.1 97.55 49 97.55 49 87.68"/><path class="cls-11" d="M181.58,108.38v-32c0-5.86-5-10.6-11.2-10.6H99.94c-6.62,0-12,5.08-12,11.34v29.38l1.57,2.12Z"/><path class="cls-12" d="M183.14,108.59v-32c0-5.85-5-10.6-11.2-10.6H101.5c-6.61,0-12,5.08-12,11.35v31.28Z"/><path class="cls-9" d="M161.87,87.81h0a4.36,4.36,0,0,0-4.48,4.24V120.1h8.51V91.62A3.93,3.93,0,0,0,161.87,87.81Z"/><path class="cls-8" d="M162.54,87.91h0a4.36,4.36,0,0,0-4.48,4.24V120.2h8.51V91.73A3.93,3.93,0,0,0,162.54,87.91Z"/><path class="cls-9" d="M114.4,88.13h0A4,4,0,0,0,110.35,92v28.46h8.51V92.36A4.35,4.35,0,0,0,114.4,88.13Z"/><path class="cls-8" d="M115.07,88.15h0A4,4,0,0,0,111,92v28.46h8.51V92.38A4.34,4.34,0,0,0,115.07,88.15Z"/></g></g></svg>