<svg xmlns="http://www.w3.org/2000/svg" viewBox="0 0 161.22 122.34"><defs><style>.cls-1{isolation:isolate;}.cls-2{fill:#ffa08c;}.cls-3{fill:#7a0000;}.cls-4{fill:#fefefe;opacity:0.33;mix-blend-mode:overlay;}.cls-5{fill:#2d0101;opacity:0.42;}.cls-6{fill:#6b7c53;}.cls-7{fill:#737f60;}.cls-8{fill:#4f4b3b;}.cls-9{fill:#a39454;}.cls-10{fill:#6d6954;}.cls-11{fill:#877a45;}</style></defs><g class="cls-1"><g id="OBJECTS"><path class="cls-2" d="M114.67,80.93l1,17.59a6.34,6.34,0,0,1-6.32,6.67h-8V80.93Z"/><path class="cls-2" d="M46.49,80.93l-1,17.59a6.33,6.33,0,0,0,6.32,6.67h8V80.93Z"/><path class="cls-2" d="M60.68,25.81A4.28,4.28,0,1,0,65,21.52,4.28,4.28,0,0,0,60.68,25.81Z"/><path class="cls-2" d="M91.55,25.81a4.29,4.29,0,1,0,4.29-4.29A4.29,4.29,0,0,0,91.55,25.81Z"/><rect class="cls-2" x="73.83" y="41.13" width="13.49" height="7.1"/><path class="cls-3" d="M95.85,11.52s3.9,19.08-8.53,29.61H74.9s-11-2.31-11-29.61a9.9,9.9,0,0,1,1.78-5.59s-8.52-2.17-5-3.55S77-3.49,86.61,5.27c2.85-5.92,6.4-8.22,5.33,1C96.56,1.33,105.43,6.26,95.85,11.52Z"/><path class="cls-4" d="M60.7,2.38C64.25,1,77-3.49,86.61,5.27c2.85-5.92,6.4-8.22,5.33,1,4.62-4.93,13.49,0,3.91,5.26,0,0,3.9,19.08-8.53,29.61,0,0,6.71-23.43,3.69-27.39,2.93-3,2.14-4.85-1.81-3.16.34-3.38-.9-3.72-3.27-.9C82.21,6.86,73.64,8.1,69.24,11.52s-5.35,0-5.35,0a9.9,9.9,0,0,1,1.78-5.59S57.15,3.76,60.7,2.38Z"/><path class="cls-5" d="M74.9,41.13s-8.36-1.76-10.51-20.29c2.63-2,8.07-5.44,11.22-3,3.57,2.82.17,17.64,3.76,23.25Z"/><path class="cls-6" d="M51.25,57.39c1.73-3,5.37-5.34,9.53-7.19a48.69,48.69,0,0,1,39.6,0c4.16,1.85,7.8,4.23,9.53,7.19,5.36,9.24,7.74,26.22,7.74,26.22H101.33v38.73H59.83V83.61H43.51S45.89,66.63,51.25,57.39Z"/><path class="cls-7" d="M59.83,50.64v33H43.51s2.38-17,7.74-26.22C52.84,54.65,56.08,52.42,59.83,50.64Z"/><path class="cls-7" d="M101.33,50.64v33h16.32s-2.38-17-7.74-26.22C108.31,54.65,105.08,52.42,101.33,50.64Z"/><rect class="cls-8" x="4.45" y="92.82" width="9.76" height="27.12"/><rect class="cls-8" x="146.16" y="92.82" width="9.76" height="26.88"/><rect class="cls-8" x="125.15" y="73.3" width="7.85" height="46.4"/><polygon class="cls-9" points="7.21 66.09 130.25 66.09 161.22 85.18 0 85.18 7.21 66.09"/><rect class="cls-10" y="85.18" width="161.22" height="11.45"/><path class="cls-11" d="M35.53,108.09v-32A10.61,10.61,0,0,1,46.14,65.45h66.71A11.35,11.35,0,0,1,124.2,76.8v31.29Z"/><path class="cls-8" d="M55.05,87.41h0a4.24,4.24,0,0,1,4.24,4.24V119.7H51.23V91.22A3.82,3.82,0,0,1,55.05,87.41Z"/><path class="cls-8" d="M100,87.64h0a3.83,3.83,0,0,1,3.84,3.81V119.7H95.78V91.84A4.21,4.21,0,0,1,100,87.64Z"/></g></g></svg>