<svg xmlns="http://www.w3.org/2000/svg" viewBox="0 0 75.35 228.88">
	<defs>
		<style>
			.cls-1{isolation:isolate;}.cls-2{fill:#7a0000;}.cls-3{fill:#2d0101;}.cls-4{fill:#2d2a29;}.cls-5{fill:#ffa08c;}.cls-6{fill:#f1766b;}.cls-15,.cls-19,.cls-20,.cls-25,.cls-28,.cls-30,.cls-7{fill:none;}.cls-7{stroke:#ad6262;}.cls-15,.cls-19,.cls-20,.cls-25,.cls-26,.cls-28,.cls-30,.cls-7{stroke-miterlimit:10;}.cls-12,.cls-22,.cls-8{fill:#512626;}.cls-12,.cls-16,.cls-21,.cls-8{mix-blend-mode:multiply;}.cls-9{fill:#6b7c53;}.cls-10{fill:#891313;}.cls-11{fill:#7b8964;}.cls-12,.cls-17,.cls-21{opacity:0.33;}.cls-13,.cls-17{fill:#fefefe;mix-blend-mode:overlay;}.cls-13{opacity:0.31;}.cls-14{fill:#ba645b;}.cls-15{stroke:#4d5e46;}.cls-16{fill:#5b7755;opacity:0.51;}.cls-18{fill:#fff;}.cls-19{stroke:#512626;stroke-width:0.58px;}.cls-20{stroke:#842115;stroke-width:0.85px;}.cls-20,.cls-28{stroke-linecap:round;}.cls-23{fill:#77875f;}.cls-24{fill:#414439;}.cls-25{stroke:#0c0606;}.cls-26{fill:#636b47;stroke:#3f4431;stroke-width:0.25px;}.cls-27{fill:#3c3f2e;opacity:0.5;}.cls-28{stroke:#3b3d33;}.cls-29{fill:#3a3f29;}.cls-30{stroke:#45473e;stroke-width:0.5px;}.cls-31{fill:#6d6d6c;}.cls-32{opacity:0.38;}
		</style>
	</defs>
	<g class="cls-1">
		<g id="OBJECTS">
			<path class="cls-2" d="M50.67,0h0A11.58,11.58,0,0,1,62.25,11.58V30.24a0,0,0,0,1,0,0H39.09a0,0,0,0,1,0,0V11.58A11.58,11.58,0,0,1,50.67,0Z" />
			<rect class="cls-3" x="43.97" y="12.8" width="13.4" height="17.44" />
			<path class="cls-4" d="M39.6,213.68a87.54,87.54,0,0,0-6.19,15.2H47.15a3.62,3.62,0,0,0,3.61-3.62v-8.91Z" />
			<path class="cls-4" d="M61.93,213.68a87.54,87.54,0,0,1,6.19,15.2H54.38a3.62,3.62,0,0,1-3.62-3.62v-8.91Z" />
			<path class="cls-4" d="M50.1,195.48h.66A46.23,46.23,0,0,1,39,194.06c1.41,8.42,2.61,15.11,2.61,15.11s-7.52,14.67-1.9,14.36,11-7.18,11-7.18V195.48Z" />
			<path class="cls-5" d="M34.76,163.59c.36,6.13,2.48,19.71,4.27,30.47a46.23,46.23,0,0,0,11.73,1.42V163.59Z" />
			<path class="cls-6" d="M62.37,194.78c1.82-10.86,4-24.92,4.4-31.19h-16v31.89A108,108,0,0,0,62.37,194.78Z" />
			<path class="cls-4" d="M59.89,209.17s1.13-6.31,2.48-14.39a108,108,0,0,1-11.61.7h0v20.87s5.41,6.86,11,7.18S59.89,209.17,59.89,209.17Z" />
			<line class="cls-7" x1="50.76" y1="216.35" x2="50.76" y2="169.83" />
			<path class="cls-8" d="M34.76,163.59c.17,2.87.72,7.37,1.45,12.45,14.25,1.21,25.78-4.78,30.08-7.41.23-2,.4-3.69.48-5h-32Z" />
			<path class="cls-9" d="M74.58,49.49c-1.28-9.74-8-12.82-8-12.82s-3.72,5.89-6.21,17.22,3.74,55,3.74,55l9.23-18.38a17.75,17.75,0,0,0,1.89-7.7C75.38,74.77,75.56,56.92,74.58,49.49Zm-9.48,14v0Z" />
			<path class="cls-9" d="M61.64,57.84s7.3-3.07,13.45-1.78c-.12-2.58-.28-4.85-.51-6.57-1.28-9.74-8-12.82-8-12.82s-3,4.82-5.46,14.1Z" />
			<path class="cls-10" d="M59.18,19.14H42.35V11.93a8.33,8.33,0,0,1,8.33-8.32h.17a8.33,8.33,0,0,1,8.33,8.32Z" />
			<path class="cls-11" d="M66.58,80.16,50.67,82.74,34.76,80.16s-12,33.48-6.61,83.43a40.37,40.37,0,0,0,22.52,6.24,40.37,40.37,0,0,0,22.52-6.24C78.57,113.64,66.58,80.16,66.58,80.16Z" />
			<path class="cls-12" d="M39.74,105.39c0,9.53,1.56,45.71,2.65,22.93s6.55-45.86,6.55-45.86h0l-14.18-2.3s-12,33.48-6.61,83.43C29,123.94,39.74,95.85,39.74,105.39Z" />
			<path class="cls-13" d="M66.58,80.16l-6,1c1.11,6.41,7.11,43.21,3.78,72.46-.86,5.93-5.85-.66-6.16-6.73-.27-5.14-6.15,4.61-.62,22.53a40.48,40.48,0,0,0,15.65-5.81C78.57,113.64,66.58,80.16,66.58,80.16Z" />
			<circle class="cls-14" cx="59.1" cy="19.14" r="2.54" />
			<path class="cls-5" d="M61.64,19.14a2.52,2.52,0,0,0-2.17-2.5,2.5,2.5,0,0,0-.37,1.3,2.52,2.52,0,0,0,2.17,2.5A2.5,2.5,0,0,0,61.64,19.14Z" />
			<path class="cls-11" d="M66.58,36.67,52.21,32.45l-1.54.21-1.54-.21L34.76,36.67s3.58,25.23,0,43.49a23.49,23.49,0,0,0,15.91,6.78,23.49,23.49,0,0,0,15.91-6.78C63,61.9,66.58,36.67,66.58,36.67Z" />
			<path class="cls-5" d="M50.8,39.83h-.07a3.49,3.49,0,0,1-3.49-3.49V25.49h7V36.34A3.49,3.49,0,0,1,50.8,39.83Z" />
			<path class="cls-8" d="M47.24,25.49v7.56c4.32-1.12,7-6.36,7-6.36v-1.2Z" />
			<path class="cls-5" d="M13,49.7,5.58,41.76,1.64,46.14a5.18,5.18,0,0,0,.11,7l4.51,4.75C9.57,56.7,12,54,13,49.7Z" />
			<path class="cls-9" d="M34.76,36.67a13,13,0,0,0-5.46,4.9c-1.69,3.2-7,18.13-7,18.13L13,49.7c-1,4.26-3.43,7-6.74,8.22L20.77,73.15a6,6,0,0,0,10-2.06l5.52-15S38.72,42.51,34.76,36.67Z" />
			<line class="cls-15" x1="22.34" y1="59.7" x2="26.1" y2="63.6" />
			<path class="cls-9" d="M29.3,41.57a13,13,0,0,1,5.46-4.9c4,5.84,1.52,19.41,1.52,19.41l-.65,1.76c-1-2.4-3.57-5.73-9.76-7.85C27.21,46.43,28.58,42.93,29.3,41.57Z" />
			<path class="cls-16" d="M20.77,73.15l-.26-.27a7.32,7.32,0,0,1,6-3.07,7.24,7.24,0,0,1,4.24,1.36A6,6,0,0,1,20.77,73.15Z" />
			<path class="cls-6" d="M6.4,53c4.1,3.35,6.1-3.84,6.1-3.84L9.39,45.83l-6.65-7a1.56,1.56,0,0,0-2.33.05l0,0a1.57,1.57,0,0,0-.08,2L3.41,45A8.3,8.3,0,0,0,6.4,53Z" />
			<path class="cls-5" d="M57,33.87l-4.82-1.42-1.54.21-1.54-.21-4.64,1.36A6.28,6.28,0,0,0,57,33.87Z" />
			<path class="cls-14" d="M39.86,19.14A2.54,2.54,0,1,0,42.4,16.6,2.54,2.54,0,0,0,39.86,19.14Z" />
			<path class="cls-5" d="M39.86,19.14A2.52,2.52,0,0,1,42,16.64a2.5,2.5,0,0,1,.37,1.3,2.52,2.52,0,0,1-2.17,2.5A2.5,2.5,0,0,1,39.86,19.14Z" />
			<path class="cls-5" d="M51.6,6.17H49.9A6.88,6.88,0,0,0,43,13.06v4.75a11.23,11.23,0,0,0,4.49,9.11,5.74,5.74,0,0,0,3.24,1.28A5.74,5.74,0,0,0,54,26.92a11.23,11.23,0,0,0,4.49-9.11V13.06A6.88,6.88,0,0,0,51.6,6.17Z" />
			<path class="cls-17" d="M53.25,6.38,53,7.51c.39,1.42,2.45,11.54.43,19.79.19-.12.37-.24.56-.38a11.23,11.23,0,0,0,4.49-9.11V13.06A6.88,6.88,0,0,0,53.25,6.38Z" />
			<path class="cls-18" d="M48.65,22.15a.51.51,0,0,0-.31.91,3.78,3.78,0,0,0,4.85,0,.51.51,0,0,0-.32-.91Z" />
			<polyline class="cls-19" points="49.96 20.48 51.38 20.48 51.38 16.39" />
			<path class="cls-20" d="M53,16.6a4.07,4.07,0,0,1,3.56,0" />
			<path class="cls-20" d="M53,11.46A6.32,6.32,0,0,1,57,12" />
			<path class="cls-20" d="M48.5,16.6a4.07,4.07,0,0,0-3.56,0" />
			<path class="cls-20" d="M48.5,12a6.36,6.36,0,0,0-4,.54" />
			<path class="cls-12" d="M22.34,59.5c.61-1.74,5.31-14.94,6.89-17.93a13,13,0,0,1,5.46-4.9l9.55-2.8s-13,5.91-14.62,15.67S26.1,63.6,26.1,63.6Z" />
			<path class="cls-2" d="M55.34,7.28A6.85,6.85,0,0,0,51.6,6.17H49.9A6.88,6.88,0,0,0,43,13.06v2.06C49.37,14.64,54,9.09,55.34,7.28Z" />
			<path class="cls-16" d="M70.53,85.69a5.52,5.52,0,0,0,2.83,4.82,17.73,17.73,0,0,0,1.87-7.66c0-.79,0-1.67,0-2.63A5.52,5.52,0,0,0,70.53,85.69Z" />
			<path class="cls-9" d="M50.76,39.83l7.17,5.82s1.16-8.06-.9-11.78Z" />
			<path class="cls-9" d="M50.76,39.83,43.6,45.65s-1.16-8.06.9-11.78Z" />
			<path class="cls-17" d="M43,13.17c4-1.13,7-4.63,8.59-7H49.9A6.88,6.88,0,0,0,43,13.06Z" />
			<line class="cls-15" x1="50.8" y1="39.83" x2="50.8" y2="86.94" />
			<path class="cls-17" d="M74.58,49.49c-1.28-9.74-8-12.82-8-12.82L54.29,33.06h0s5.2,6.27,10.59,8.24,6.18,20.77,5.65,29.76c-.39,6.5,1.11,13.72,3.89,16.81a17.75,17.75,0,0,0,.81-5C75.38,74.77,75.56,56.92,74.58,49.49Z" />
			<g class="cls-21">
				<polygon class="cls-22" points="35.29 77.03 35.29 77.03 35.29 77.04 35.29 77.03" />
				<path class="cls-22" d="M53,63.6a30.58,30.58,0,0,1-16.65-3.14h0a123.55,123.55,0,0,1-.58,12.72c.83-2.56,3-5.42,8.47-5.26C54.07,68.23,62.1,62.55,53,63.6Z" />
			</g>
			<path class="cls-9" d="M61.79,58.21h-8a31,31,0,0,0,.32-4.6,32.94,32.94,0,0,0-.32-4.15h8A40.64,40.64,0,0,1,62,53.68,38.74,38.74,0,0,1,61.79,58.21Z" />
			<rect class="cls-23" x="53.81" y="49.21" width="8.23" height="2.55" />
			<circle class="cls-24" cx="57.92" cy="50.89" r="0.41" />
			<line class="cls-25" x1="50.76" y1="195.48" x2="50.76" y2="216.35" />
			<path class="cls-26" d="M65.16,35.72s-.63-1.4-.67-1.43a2.68,2.68,0,0,0-2.43-.23A5.46,5.46,0,0,0,59,37.27c-.48,1-1.05,2.26-.44,3a2,2,0,0,0,2.38.44c.84-.45.5-1.3,1.38-2.49A10.6,10.6,0,0,1,65.16,35.72Z" />
			<path class="cls-27" d="M61.63,38.6c-.16-.1-.36.24-1.08.56s-1.41.26-1.48.53.46.64.5.67a1.46,1.46,0,0,0,1.51,0C61.84,40,61.91,38.77,61.63,38.6Z" />
			<path class="cls-28" d="M61.38,40.74A6.66,6.66,0,0,1,62.1,39a6.2,6.2,0,0,1,.9-1.23,7.63,7.63,0,0,1,1.4-1.13c.41-.28.77-.48,1-.63" />
			<path class="cls-24" d="M35.06,36.73l.36,1a3.89,3.89,0,0,0,1.24-.64c.9-.66,1.35-1,1.63-1.15a6.48,6.48,0,0,1,3.64-.73,6.19,6.19,0,0,0,.89-.13l.29-.7-.9-.45s-3.41.4-3.63.48A11.75,11.75,0,0,0,35.06,36.73Z" />
			<path class="cls-29" d="M34.08,79.32a.59.59,0,0,1,1-.32A21.86,21.86,0,0,0,50.8,85.85,21.83,21.83,0,0,0,66.31,79a.59.59,0,0,1,1,.31l.2,1.2a.57.57,0,0,1-.14.48,22.9,22.9,0,0,1-16.16,7.74A23,23,0,0,1,34,81.36a.57.57,0,0,1-.14-.48Z" />
			<rect class="cls-30" x="51.09" y="85.88" width="0.61" height="2.68" rx="0.3" />
			<rect class="cls-30" x="49.95" y="85.88" width="0.61" height="2.68" rx="0.3" />
			<path class="cls-31" d="M64.33,37.22c-.57,5-.89,10.11-1.79,15.06-.71,3.87-.37,7.4,2.33,10.45.53.61,1.41-.28.88-.88a9.09,9.09,0,0,1-2.36-5.44A26.22,26.22,0,0,1,64,51.26c.61-4.67,1.08-9.36,1.61-14,.1-.79-1.16-.79-1.25,0Z" />
			<g class="cls-32">
				<path class="cls-31" d="M64.67,37.22c-.57,5-.89,10.11-1.79,15.06-.71,3.87-.37,7.4,2.33,10.45.53.61,1.41-.28.88-.88a9.09,9.09,0,0,1-2.36-5.44,26.22,26.22,0,0,1,.58-5.15c.61-4.67,1.08-9.36,1.61-14,.1-.79-1.15-.79-1.25,0Z" />
			</g>
			<path class="cls-11" d="M66.25,36.73l-.35,1a3.89,3.89,0,0,1-1.24-.64c-.9-.66-1.35-1-1.63-1.15a6.5,6.5,0,0,0-3.64-.73,6.19,6.19,0,0,1-.89-.13l-.29-.7L59.1,34s3.42.4,3.64.48A11.64,11.64,0,0,1,66.25,36.73Z" />
			<path class="cls-9" d="M65.22,59.37c-.3.22-.23.58-.22,2.71,0,2.63-.1,3.17.37,3.54a2.1,2.1,0,0,0,2.15-.05,3.46,3.46,0,0,0,1.15-4.33C67.94,59.71,66,58.85,65.22,59.37Z" />
		</g>
	</g>
</svg>
