<svg xmlns="http://www.w3.org/2000/svg" viewBox="0 0 161.22 124.11"><defs><style>.cls-1{isolation:isolate;}.cls-2{fill:#ffa08c;}.cls-3{fill:#6b7c53;}.cls-4{fill:#737f60;}.cls-5{fill:#f5ad49;}.cls-6{fill:#512626;mix-blend-mode:multiply;}.cls-6,.cls-7{opacity:0.33;}.cls-7{fill:#fefefe;mix-blend-mode:overlay;}.cls-8{fill:#4f4b3b;}.cls-9{fill:#a39454;}.cls-10{fill:#6d6954;}.cls-11{fill:#877a45;}</style></defs><g class="cls-1"><g id="OBJECTS"><path class="cls-2" d="M49.23,82.7l-.95,17.6A6.33,6.33,0,0,0,54.6,107h8V82.7Z"/><path class="cls-2" d="M117.41,82.7l1,17.6A6.33,6.33,0,0,1,112,107h-8V82.7Z"/><path class="cls-2" d="M103.22,27.58a4.29,4.29,0,1,1-4.28-4.28A4.29,4.29,0,0,1,103.22,27.58Z"/><path class="cls-2" d="M72.35,27.58a4.29,4.29,0,1,1-4.29-4.28A4.29,4.29,0,0,1,72.35,27.58Z"/><rect class="cls-2" x="76.57" y="42.9" width="13.49" height="7.1"/><path class="cls-3" d="M112.65,59.17c-1.73-3-5.37-5.34-9.53-7.2a48.69,48.69,0,0,0-39.6,0c-4.16,1.86-7.8,4.23-9.53,7.2-5.36,9.24-4.91,26.22-4.91,26.22H62.57v38.72h41.5V85.39l13.52.55S118,68.41,112.65,59.17Z"/><path class="cls-4" d="M104.07,52.41v33l13.52.55s.42-17.53-4.94-26.77C111.05,56.43,107.82,54.2,104.07,52.41Z"/><path class="cls-4" d="M62.57,52.41v33H49.08s-.45-17,4.91-26.22C55.58,56.43,58.82,54.2,62.57,52.41Z"/><path class="cls-5" d="M100.89,42.19H66.11V9.36C66.11,4.19,73.82,0,83.33,0h.34c9.51,0,17.22,4.19,17.22,9.36Z"/><path class="cls-6" d="M89.5.56A30.12,30.12,0,0,0,83.67,0h-.34C73.82,0,66.11,4.19,66.11,9.36V42.19h12V9.36C78.11,5.3,82.87,1.86,89.5.56Z"/><path class="cls-7" d="M94.65,42.19h6.24V9.36A6.25,6.25,0,0,0,98.9,5a13.11,13.11,0,0,0-4.25,10Z"/><rect class="cls-8" x="147" y="84.18" width="9.76" height="27.12" transform="translate(303.77 195.48) rotate(180)"/><rect class="cls-8" x="5.3" y="84.18" width="9.76" height="26.88" transform="translate(20.36 195.25) rotate(180)"/><rect class="cls-8" x="28.21" y="64.67" width="7.85" height="46.4" transform="translate(64.27 175.73) rotate(180)"/><polygon class="cls-9" points="154 57.46 30.97 57.46 0 76.55 161.22 76.55 154 57.46"/><rect class="cls-10" y="76.55" width="161.22" height="11.45"/><path class="cls-11" d="M125.69,99.46v-32a10.61,10.61,0,0,0-10.61-10.61H48.36A11.35,11.35,0,0,0,37,68.17V99.46Z"/><path class="cls-8" d="M106.17,78.77h0A4.24,4.24,0,0,0,101.93,83v28H110V82.59A3.82,3.82,0,0,0,106.17,78.77Z"/><path class="cls-8" d="M61.21,79h0a3.82,3.82,0,0,0-3.83,3.81v28.24h8.06V83.21A4.21,4.21,0,0,0,61.21,79Z"/></g></g></svg>