<svg xmlns="http://www.w3.org/2000/svg" viewBox="0 0 199.82 122.34"><defs><style>.cls-1{fill:#ffa08c;}.cls-2{fill:#bf761d;}.cls-3{fill:#f5ad49;}.cls-4{fill:#995f20;}.cls-5{fill:#6b7c53;}.cls-6{fill:#737f60;}.cls-7{fill:#4f4b3b;}.cls-8{fill:#a39454;}.cls-9{fill:#6d6954;}.cls-10{fill:#b2aa86;}.cls-11{fill:#877a45;}</style></defs><g id="OBJECTS"><path class="cls-1" d="M109.74,80.93l.94,17.59a6.33,6.33,0,0,1-6.32,6.67h-8V80.93Z"/><path class="cls-1" d="M41.55,80.93l-.94,17.59a6.33,6.33,0,0,0,6.32,6.67h8V80.93Z"/><path class="cls-1" d="M55.74,25.81A4.29,4.29,0,1,0,60,21.52,4.29,4.29,0,0,0,55.74,25.81Z"/><path class="cls-1" d="M86.62,25.81a4.29,4.29,0,1,0,4.28-4.29A4.28,4.28,0,0,0,86.62,25.81Z"/><rect class="cls-1" x="68.9" y="41.13" width="13.49" height="7.1"/><path class="cls-2" d="M90.91,11.52s3.91,19.08-8.52,29.61H70S59,38.82,59,11.52a9.94,9.94,0,0,1,1.77-5.59s-8.52-2.17-5-3.55S72.09-3.49,81.68,5.27c2.84-5.92,6.39-8.22,5.33,1C91.62,1.33,100.5,6.26,90.91,11.52Z"/><path class="cls-3" d="M55.76,2.38C59.31,1,72.09-3.49,81.68,5.27c2.84-5.92,6.39-8.22,5.33,1,4.61-4.93,13.49,0,3.9,5.26,0,0,3.91,19.08-8.52,29.61,0,0,6.71-23.43,3.68-27.39,2.94-3,2.15-4.85-1.8-3.16.34-3.38-.9-3.72-3.27-.9C77.28,6.86,68.71,8.1,64.31,11.52s-5.35,0-5.35,0a9.94,9.94,0,0,1,1.77-5.59S52.21,3.76,55.76,2.38Z"/><path class="cls-4" d="M70,41.13s-8.35-1.76-10.5-20.29c2.62-2,8.06-5.44,11.21-3,3.57,2.82.17,17.64,3.77,23.25Z"/><path class="cls-5" d="M46.32,57.39c1.72-3,5.37-5.34,9.52-7.19a48.72,48.72,0,0,1,39.61,0c4.15,1.85,7.8,4.23,9.52,7.19,5.36,9.24,7.75,26.22,7.75,26.22H96.39v38.73H54.9V83.61H38.57S41,66.63,46.32,57.39Z"/><path class="cls-6" d="M54.9,50.64v33H38.57s2.39-17,7.75-26.22C47.91,54.65,51.14,52.42,54.9,50.64Z"/><path class="cls-6" d="M96.39,50.64v33h16.33s-2.39-17-7.75-26.22C103.38,54.65,100.15,52.42,96.39,50.64Z"/><rect class="cls-7" x="162.49" y="91.47" width="9.76" height="27.12"/><rect class="cls-7" x="190.49" y="72.38" width="7.85" height="46.21"/><rect class="cls-7" x="5.52" y="91.68" width="8.06" height="26.9"/><polygon class="cls-8" points="0 83.83 61.64 64.74 199.82 64.74 169.91 83.83 0 83.83"/><polygon class="cls-9" points="0 83.83 0 95.28 169.28 95.28 169.91 83.83 0 83.83"/><polygon class="cls-10" points="169.28 95.28 199.82 71.42 199.82 64.74 169.91 83.83 169.28 95.28"/><path class="cls-10" d="M32.88,106.53v-32A10.61,10.61,0,0,1,43.49,63.89H110.2a11.35,11.35,0,0,1,11.35,11.35v29.38l-1.49,2.12Z"/><path class="cls-11" d="M31.39,106.74v-32A10.61,10.61,0,0,1,42,64.1h66.71a11.35,11.35,0,0,1,11.35,11.35v31.29Z"/><path class="cls-8" d="M51.55,86h0a4.24,4.24,0,0,1,4.24,4.24v28.05H47.73V89.77A3.82,3.82,0,0,1,51.55,86Z"/><path class="cls-7" d="M50.91,86.06h0a4.24,4.24,0,0,1,4.24,4.24v28.05H47.09V89.88A3.82,3.82,0,0,1,50.91,86.06Z"/><path class="cls-8" d="M96.5,86.28h0a3.83,3.83,0,0,1,3.84,3.83v28.46H92.28V90.5A4.22,4.22,0,0,1,96.5,86.28Z"/><path class="cls-7" d="M95.87,86.29h0a3.84,3.84,0,0,1,3.83,3.84v28.45H91.64V90.52A4.23,4.23,0,0,1,95.87,86.29Z"/></g></svg>