<svg xmlns="http://www.w3.org/2000/svg" viewBox="0 0 779.83 135.75"><defs><style>.cls-1{isolation:isolate;}.cls-2{fill:#ffa08c;}.cls-3{fill:#7a0000;}.cls-4{fill:#fefefe;mix-blend-mode:overlay;}.cls-11,.cls-4{opacity:0.33;}.cls-5{fill:#2d0101;opacity:0.42;}.cls-6{fill:#6b7c53;}.cls-7{fill:#737f60;}.cls-8{fill:#bf761d;}.cls-9{fill:#f5ad49;}.cls-10{fill:#995f20;}.cls-11{fill:#512626;mix-blend-mode:multiply;}.cls-12{fill:#54371a;}.cls-13{fill:#77512f;}.cls-14{fill:#4f4b3b;}.cls-15{fill:#a39454;}.cls-16{fill:#6d6954;}.cls-17{fill:#b2aa86;}.cls-18{fill:#877a45;}.cls-19{fill:#5b5749;}</style></defs><g class="cls-1"><g id="OBJECTS"><path class="cls-2" d="M501.74,83.48l.95,17.59a6.33,6.33,0,0,1-6.32,6.67h-8V83.48Z"/><path class="cls-2" d="M433.56,83.48l-.94,17.59a6.33,6.33,0,0,0,6.31,6.67h8V83.48Z"/><path class="cls-2" d="M447.75,28.36A4.29,4.29,0,1,0,452,24.07,4.28,4.28,0,0,0,447.75,28.36Z"/><path class="cls-2" d="M478.63,28.36a4.29,4.29,0,1,0,4.28-4.29A4.28,4.28,0,0,0,478.63,28.36Z"/><rect class="cls-2" x="460.91" y="43.68" width="13.49" height="7.1"/><path class="cls-3" d="M482.92,14.07s3.9,19.08-8.52,29.61H462s-11-2.31-11-29.61a9.9,9.9,0,0,1,1.78-5.59s-8.52-2.17-5-3.55S464.1-.94,473.69,7.82c2.84-5.92,6.39-8.22,5.32,1C483.63,3.88,492.51,8.81,482.92,14.07Z"/><path class="cls-4" d="M447.77,4.93c3.55-1.38,16.33-5.87,25.92,2.89,2.84-5.92,6.39-8.22,5.32,1,4.62-4.93,13.5,0,3.91,5.26,0,0,3.9,19.08-8.52,29.61,0,0,6.71-23.43,3.68-27.39,2.93-2.95,2.14-4.85-1.8-3.16.33-3.38-.91-3.72-3.27-.9-3.73-2.82-12.29-1.58-16.69,1.84s-5.36,0-5.36,0a9.9,9.9,0,0,1,1.78-5.59S444.22,6.31,447.77,4.93Z"/><path class="cls-5" d="M462,43.68s-8.36-1.76-10.51-20.28c2.63-2,8.07-5.45,11.22-3,3.57,2.82.17,17.64,3.77,23.25Z"/><path class="cls-6" d="M438.33,60c1.72-3,5.36-5.35,9.52-7.2a48.72,48.72,0,0,1,39.61,0C491.61,54.6,495.25,57,497,60c5.36,9.23,7.74,26.21,7.74,26.21H488.4v38.73H446.9V86.16H430.58S433,69.18,438.33,60Z"/><path class="cls-7" d="M446.9,53.19v33H430.58s2.38-17,7.75-26.21C439.92,57.21,443.15,55,446.9,53.19Z"/><path class="cls-7" d="M488.4,53.19v33h16.32S502.34,69.18,497,60C495.39,57.21,492.15,55,488.4,53.19Z"/><path class="cls-2" d="M109.74,83.6l.94,17.59a6.32,6.32,0,0,1-6.32,6.67h-8V83.6Z"/><path class="cls-2" d="M41.55,83.6l-.94,17.59a6.32,6.32,0,0,0,6.32,6.67h8V83.6Z"/><path class="cls-2" d="M55.74,28.48A4.29,4.29,0,1,0,60,24.19,4.28,4.28,0,0,0,55.74,28.48Z"/><path class="cls-2" d="M86.62,28.48a4.29,4.29,0,1,0,4.28-4.29A4.28,4.28,0,0,0,86.62,28.48Z"/><rect class="cls-2" x="68.9" y="43.8" width="13.49" height="7.1"/><path class="cls-8" d="M90.91,14.2s3.91,19.07-8.52,29.6H70S59,41.5,59,14.2a10,10,0,0,1,1.77-5.6s-8.52-2.16-5-3.55S72.09-.81,81.68,8C84.52,2,88.07-.28,87,8.93,91.62,4,100.5,8.93,90.91,14.2Z"/><path class="cls-9" d="M55.76,5.05C59.31,3.67,72.09-.81,81.68,8,84.52,2,88.07-.28,87,8.93c4.61-4.93,13.49,0,3.9,5.27,0,0,3.91,19.07-8.52,29.6,0,0,6.71-23.43,3.68-27.39,2.94-2.95,2.15-4.84-1.8-3.15.34-3.39-.9-3.72-3.27-.91-3.72-2.81-12.29-1.57-16.69,1.85s-5.35,0-5.35,0a10,10,0,0,1,1.77-5.6S52.21,6.44,55.76,5.05Z"/><path class="cls-10" d="M70,43.8S61.61,42,59.46,23.52c2.62-2,8.06-5.45,11.21-3,3.57,2.82.17,17.64,3.77,23.25Z"/><path class="cls-6" d="M46.32,60.07c1.72-3,5.37-5.34,9.52-7.2a48.72,48.72,0,0,1,39.61,0c4.15,1.86,7.8,4.23,9.52,7.2,5.36,9.23,7.75,26.21,7.75,26.21H96.39V125H54.9V86.28H38.57S41,69.3,46.32,60.07Z"/><path class="cls-7" d="M54.9,53.31v33H38.57s2.39-17,7.75-26.21C47.91,57.33,51.14,55.1,54.9,53.31Z"/><path class="cls-7" d="M96.39,53.31v33h16.33s-2.39-17-7.75-26.21C103.38,57.33,100.15,55.1,96.39,53.31Z"/><path class="cls-2" d="M258.11,94.34l-.94,17.59a6.32,6.32,0,0,0,6.32,6.67h8V94.34Z"/><path class="cls-2" d="M326.3,94.34l.94,17.59a6.32,6.32,0,0,1-6.32,6.67h-8V94.34Z"/><path class="cls-2" d="M312.11,39.22a4.29,4.29,0,1,1-4.29-4.29A4.29,4.29,0,0,1,312.11,39.22Z"/><path class="cls-2" d="M281.23,39.22A4.29,4.29,0,1,1,277,34.93,4.28,4.28,0,0,1,281.23,39.22Z"/><rect class="cls-2" x="285.46" y="54.54" width="13.49" height="7.1"/><path class="cls-6" d="M321.53,70.81c-1.72-3-5.37-5.34-9.52-7.2a48.72,48.72,0,0,0-39.61,0c-4.15,1.86-7.8,4.23-9.52,7.2C257.52,80,258,97,258,97h13.49v38.73H313V97l13.52.55S326.89,80,321.53,70.81Z"/><path class="cls-7" d="M313,64.05V97l13.52.55s.42-17.53-4.94-26.76C319.94,68.07,316.71,65.84,313,64.05Z"/><path class="cls-7" d="M271.46,64.05V97H258s-.45-17,4.91-26.21C264.47,68.07,267.7,65.84,271.46,64.05Z"/><path class="cls-9" d="M309.78,53.83H275V21c0-5.17,7.7-9.36,17.21-9.36h.35c9.51,0,17.22,4.19,17.22,9.36Z"/><path class="cls-11" d="M298.39,12.2a30.19,30.19,0,0,0-5.83-.56h-.35C282.7,11.64,275,15.83,275,21V53.83h12V21C287,16.94,291.75,13.5,298.39,12.2Z"/><path class="cls-4" d="M303.54,53.83h6.24V21a6.33,6.33,0,0,0-2-4.37,13.15,13.15,0,0,0-4.25,10Z"/><path class="cls-2" d="M665.5,82.7l-.94,17.6a6.32,6.32,0,0,0,6.32,6.66h8V82.7Z"/><path class="cls-2" d="M733.69,82.7l.94,17.6a6.32,6.32,0,0,1-6.32,6.66h-8V82.7Z"/><path class="cls-2" d="M719.5,27.58a4.29,4.29,0,1,1-4.29-4.28A4.29,4.29,0,0,1,719.5,27.58Z"/><path class="cls-2" d="M688.62,27.58a4.29,4.29,0,1,1-4.28-4.28A4.29,4.29,0,0,1,688.62,27.58Z"/><rect class="cls-2" x="692.85" y="42.9" width="13.49" height="7.1"/><path class="cls-6" d="M728.92,59.17c-1.72-3-5.37-5.34-9.52-7.2a48.72,48.72,0,0,0-39.61,0c-4.15,1.86-7.8,4.23-9.52,7.2-5.36,9.24-4.91,26.22-4.91,26.22h13.49v38.72h41.49V85.39l13.52.55S734.28,68.41,728.92,59.17Z"/><path class="cls-7" d="M720.34,52.41v33l13.52.55s.42-17.53-4.94-26.77C727.33,56.43,724.1,54.2,720.34,52.41Z"/><path class="cls-7" d="M678.85,52.41v33H665.36s-.45-17,4.91-26.22C671.86,56.43,675.09,54.2,678.85,52.41Z"/><path class="cls-12" d="M717.16,77.61H682.38V17.22A17.22,17.22,0,0,1,699.6,0H700a17.21,17.21,0,0,1,17.21,17.22Z"/><path class="cls-11" d="M705.78,1A17.35,17.35,0,0,0,700,0h-.35a17.22,17.22,0,0,0-17.22,17.22V77.61h12V17.22A17.21,17.21,0,0,1,705.78,1Z"/><path class="cls-13" d="M710.93,77.61h6.24V17.22a17.12,17.12,0,0,0-2-8c-2.12,3.62-4.24,9.46-4.24,18.39Z"/><rect class="cls-14" x="162.49" y="94.14" width="9.76" height="27.12"/><rect class="cls-14" x="190.49" y="75.05" width="7.85" height="46.21"/><rect class="cls-14" x="5.52" y="94.35" width="8.06" height="26.9"/><polygon class="cls-15" points="0 86.5 61.64 67.41 199.82 67.41 169.91 86.5 0 86.5"/><polygon class="cls-16" points="0 86.5 0 97.96 169.28 97.96 169.91 86.5 0 86.5"/><polygon class="cls-17" points="169.28 97.96 199.82 74.09 199.82 67.41 169.91 86.5 169.28 97.96"/><path class="cls-17" d="M32.88,109.2v-32A10.61,10.61,0,0,1,43.49,66.56H110.2a11.35,11.35,0,0,1,11.35,11.35v29.38l-1.49,2.12Z"/><path class="cls-18" d="M31.39,109.41v-32A10.6,10.6,0,0,1,42,66.78h66.71a11.35,11.35,0,0,1,11.35,11.35v31.28Z"/><path class="cls-15" d="M51.55,88.63h0a4.24,4.24,0,0,1,4.24,4.24v28.05H47.73V92.44A3.81,3.81,0,0,1,51.55,88.63Z"/><path class="cls-14" d="M50.91,88.73h0A4.24,4.24,0,0,1,55.15,93V121H47.09V92.55A3.82,3.82,0,0,1,50.91,88.73Z"/><path class="cls-15" d="M96.5,89h0a3.84,3.84,0,0,1,3.84,3.83v28.46H92.28V93.18A4.22,4.22,0,0,1,96.5,89Z"/><path class="cls-14" d="M95.87,89h0A3.83,3.83,0,0,1,99.7,92.8v28.46H91.64V93.19A4.22,4.22,0,0,1,95.87,89Z"/><rect class="cls-14" x="611.4" y="93.09" width="9.76" height="27.52"/><rect class="cls-14" x="763.81" y="93.09" width="9.76" height="27.52"/><rect class="cls-14" x="687.13" y="73.05" width="9.76" height="47.56"/><rect class="cls-14" x="562.87" y="72.33" width="9.76" height="48.28"/><polygon class="cls-15" points="557.73 67 692.96 66.36 779.83 86.09 606.73 87.68 557.73 67"/><polygon class="cls-19" points="557.73 67 557.73 74.64 606.73 97.55 606.73 87.68 557.73 67"/><polygon class="cls-16" points="606.73 87.68 779.83 86.09 779.83 97.55 606.73 97.55 606.73 87.68"/><path class="cls-16" d="M739.3,108.38v-32c0-5.86-5-10.6-11.19-10.6H657.67c-6.62,0-12,5.08-12,11.34v29.38l1.57,2.12Z"/><path class="cls-18" d="M740.87,108.59v-32c0-5.85-5-10.6-11.2-10.6H659.23c-6.61,0-12,5.08-12,11.35v31.28Z"/><path class="cls-15" d="M719.59,87.81h0a4.36,4.36,0,0,0-4.47,4.24V120.1h8.51V91.62A3.93,3.93,0,0,0,719.59,87.81Z"/><path class="cls-14" d="M720.27,87.91h0a4.36,4.36,0,0,0-4.48,4.24V120.2h8.51V91.73A3.93,3.93,0,0,0,720.27,87.91Z"/><path class="cls-15" d="M672.13,88.13h0a4,4,0,0,0-4,3.83v28.46h8.51V92.36A4.35,4.35,0,0,0,672.13,88.13Z"/><path class="cls-14" d="M672.8,88.15h0a3.94,3.94,0,0,0-4,3.83v28.46h8.51V92.38A4.34,4.34,0,0,0,672.8,88.15Z"/><rect class="cls-14" x="391.53" y="95.37" width="9.76" height="27.12"/><rect class="cls-14" x="533.23" y="95.37" width="9.76" height="26.88"/><rect class="cls-14" x="512.23" y="75.85" width="7.85" height="46.4"/><polygon class="cls-15" points="394.29 68.64 517.32 68.64 548.29 87.73 387.07 87.73 394.29 68.64"/><rect class="cls-16" x="387.07" y="87.73" width="161.22" height="11.45"/><path class="cls-18" d="M422.6,110.64v-32A10.61,10.61,0,0,1,433.21,68h66.71a11.35,11.35,0,0,1,11.35,11.35v31.29Z"/><path class="cls-14" d="M442.12,90h0a4.24,4.24,0,0,1,4.24,4.24v28.05H438.3V93.78A3.82,3.82,0,0,1,442.12,90Z"/><path class="cls-14" d="M487.08,90.19h0A3.83,3.83,0,0,1,490.91,94v28.25h-8.06V94.39A4.21,4.21,0,0,1,487.08,90.19Z"/><rect class="cls-14" x="355.89" y="95.82" width="9.76" height="27.12" transform="translate(721.54 218.76) rotate(180)"/><rect class="cls-14" x="214.19" y="95.82" width="9.76" height="26.88" transform="translate(438.14 218.52) rotate(180)"/><rect class="cls-14" x="237.1" y="76.3" width="7.85" height="46.4" transform="translate(482.05 199.01) rotate(180)"/><polygon class="cls-15" points="362.89 69.09 239.86 69.09 208.89 88.18 370.1 88.18 362.89 69.09"/><rect class="cls-16" x="208.89" y="88.18" width="161.22" height="11.45"/><path class="cls-18" d="M334.57,111.09v-32A10.6,10.6,0,0,0,324,68.46H257.25A11.35,11.35,0,0,0,245.9,79.8v31.29Z"/><path class="cls-14" d="M315.06,90.41h0a4.24,4.24,0,0,0-4.25,4.24V122.7h8.06V94.23A3.82,3.82,0,0,0,315.06,90.41Z"/><path class="cls-14" d="M270.1,90.65h0a3.81,3.81,0,0,0-3.83,3.8V122.7h8.06V94.84A4.22,4.22,0,0,0,270.1,90.65Z"/></g></g></svg>