<svg xmlns="http://www.w3.org/2000/svg" xmlns:xlink="http://www.w3.org/1999/xlink" viewBox="0 0 751.17 500.99"><defs><style>.cls-1{isolation:isolate;}.cls-2{fill:#bad6dd;}.cls-3{fill:#6495a0;}.cls-4{fill:#80acb7;}.cls-5{fill:#95adb5;}.cls-6{fill:url(#Nueva_muestra_de_degradado_2);}.cls-7{fill:#a5c1c6;}.cls-8{fill:#576870;}.cls-9{fill:#526872;}.cls-10{fill:url(#Nueva_muestra_de_degradado_5);}.cls-11{fill:url(#linear-gradient);}.cls-12,.cls-13,.cls-18,.cls-19{fill:#fff;}.cls-13{opacity:0.29;}.cls-14{fill:#76a3b2;}.cls-15{fill:#617a87;}.cls-16{fill:#3c525b;}.cls-17,.cls-39,.cls-40{fill:#30484f;}.cls-18{opacity:0.46;}.cls-19,.cls-61,.cls-67{opacity:0.33;}.cls-20{fill:#544d30;}.cls-21{fill:url(#Degradado_sin_nombre_18);}.cls-22{opacity:0.5;fill:url(#Degradado_sin_nombre_19);}.cls-23{fill:url(#Nueva_muestra_de_degradado_4);}.cls-24{fill:url(#Nueva_muestra_de_degradado_4-2);}.cls-25{fill:url(#Nueva_muestra_de_degradado_4-3);}.cls-26{fill:url(#Nueva_muestra_de_degradado_4-4);}.cls-27{fill:url(#Nueva_muestra_de_degradado_4-5);}.cls-28{fill:url(#Nueva_muestra_de_degradado_4-6);}.cls-29{fill:url(#Nueva_muestra_de_degradado_4-7);}.cls-30{fill:url(#Nueva_muestra_de_degradado_4-8);}.cls-31{fill:url(#Nueva_muestra_de_degradado_4-9);}.cls-32{fill:url(#Nueva_muestra_de_degradado_4-10);}.cls-33{fill:url(#Nueva_muestra_de_degradado_4-11);}.cls-34{fill:url(#Nueva_muestra_de_degradado_4-12);}.cls-35{fill:url(#Nueva_muestra_de_degradado_4-13);}.cls-36{fill:url(#Nueva_muestra_de_degradado_4-14);}.cls-37{fill:#2c6f84;}.cls-38{fill:#26414f;}.cls-39{stroke:#93835c;stroke-width:5px;}.cls-39,.cls-57{stroke-miterlimit:10;}.cls-40{opacity:0.1;}.cls-40,.cls-53,.cls-67{mix-blend-mode:multiply;}.cls-41{fill:#b2a983;}.cls-42{fill:#6d6954;}.cls-43{fill:#7a7561;}.cls-44{fill:#87826b;}.cls-45{fill:#a39454;}.cls-46{fill:#5b5749;}.cls-47{fill:#303030;}.cls-48{fill:#b2b2b2;}.cls-49{fill:#005284;}.cls-50{fill:#ffeead;}.cls-51{fill:#514d3f;}.cls-52{fill:#7396c0;}.cls-53{fill:#394c77;opacity:0.45;}.cls-54{fill:#a4bdda;}.cls-55{fill:#6b7c53;}.cls-56{fill:#576049;}.cls-57,.cls-73{fill:none;}.cls-57{stroke:#2f3f2c;}.cls-58{fill:#c4c3c2;}.cls-59{fill:#ffa08c;}.cls-60{fill:#7a0000;}.cls-61{fill:#fefefe;mix-blend-mode:overlay;}.cls-62{fill:#2d0101;opacity:0.42;}.cls-63{fill:#737f60;}.cls-64{fill:#bf761d;}.cls-65{fill:#f5ad49;}.cls-66{fill:#995f20;}.cls-67{fill:#512626;}.cls-68{fill:#54371a;}.cls-69{fill:#77512f;}.cls-70{fill:#4f4b3b;}.cls-71{fill:#b2aa86;}.cls-72{fill:#877a45;}</style><linearGradient id="Nueva_muestra_de_degradado_2" x1="127.76" y1="191.8" x2="1080.29" y2="191.8" gradientUnits="userSpaceOnUse"><stop offset="0" stop-color="#7db0bc"/><stop offset="0.25" stop-color="#557880"/><stop offset="0.5" stop-color="#314549"/><stop offset="0.72" stop-color="#161f21"/><stop offset="0.89" stop-color="#060809"/><stop offset="1"/></linearGradient><linearGradient id="Nueva_muestra_de_degradado_5" x1="1.17" y1="467.31" x2="751.17" y2="467.31" gradientUnits="userSpaceOnUse"><stop offset="0.22" stop-color="#bad4e0"/><stop offset="0.33" stop-color="#9bc1cd"/><stop offset="0.42" stop-color="#85b5c1"/><stop offset="0.48" stop-color="#7db0bc"/><stop offset="0.55" stop-color="#7aabb7"/><stop offset="0.62" stop-color="#709ea9"/><stop offset="0.71" stop-color="#618891"/><stop offset="0.79" stop-color="#4b6971"/><stop offset="0.88" stop-color="#2f4246"/><stop offset="0.97" stop-color="#0d1213"/><stop offset="1"/></linearGradient><linearGradient id="linear-gradient" x1="67.23" y1="90.43" x2="817.23" y2="90.43" gradientUnits="userSpaceOnUse"><stop offset="0.06" stop-color="#bad6dd"/><stop offset="0.31" stop-color="#b8d4db"/><stop offset="0.44" stop-color="#b1ccd3"/><stop offset="0.55" stop-color="#a6bfc5"/><stop offset="0.64" stop-color="#96acb2"/><stop offset="0.73" stop-color="#809498"/><stop offset="0.8" stop-color="#66767a"/><stop offset="0.88" stop-color="#475255"/><stop offset="0.94" stop-color="#242a2b"/><stop offset="1"/></linearGradient><radialGradient id="Degradado_sin_nombre_18" cx="188.91" cy="272.03" r="832.01" gradientTransform="translate(13.96 77.42) scale(0.99 0.98)" gradientUnits="userSpaceOnUse"><stop offset="0.32" stop-color="#fff" stop-opacity="0"/><stop offset="0.68" stop-color="#ffeead"/><stop offset="0.8" stop-color="#fff"/></radialGradient><radialGradient id="Degradado_sin_nombre_19" cx="359.02" cy="311.99" r="836.35" gradientTransform="translate(22.97 77.42) scale(0.98 0.98)" gradientUnits="userSpaceOnUse"><stop offset="0.29" stop-color="#fff" stop-opacity="0"/><stop offset="0.46" stop-color="#ffeead"/><stop offset="0.8" stop-color="#fff"/></radialGradient><radialGradient id="Nueva_muestra_de_degradado_4" cx="129.18" cy="-3186.71" r="5.76" gradientTransform="translate(384.13 1925.67) scale(0.49 0.49)" gradientUnits="userSpaceOnUse"><stop offset="0.26" stop-color="#ffefb2" stop-opacity="0.94"/><stop offset="0.54" stop-color="#fff" stop-opacity="0"/></radialGradient><radialGradient id="Nueva_muestra_de_degradado_4-2" cx="219.87" cy="-3168.46" r="5.76" xlink:href="#Nueva_muestra_de_degradado_4"/><radialGradient id="Nueva_muestra_de_degradado_4-3" cx="351.8" cy="-849.69" r="5.76" gradientTransform="translate(204.45 1027.91) scale(0.73 0.72)" xlink:href="#Nueva_muestra_de_degradado_4"/><radialGradient id="Nueva_muestra_de_degradado_4-4" cx="149.84" cy="-948.55" r="5.76" gradientTransform="translate(204.45 1027.91) scale(0.73 0.72)" xlink:href="#Nueva_muestra_de_degradado_4"/><radialGradient id="Nueva_muestra_de_degradado_4-5" cx="129.24" cy="-829.85" r="5.76" gradientTransform="translate(204.45 1027.91) scale(0.73 0.72)" xlink:href="#Nueva_muestra_de_degradado_4"/><radialGradient id="Nueva_muestra_de_degradado_4-6" cx="446.39" cy="-798.13" r="5.76" gradientTransform="translate(204.45 1027.91) scale(0.73 0.72)" xlink:href="#Nueva_muestra_de_degradado_4"/><radialGradient id="Nueva_muestra_de_degradado_4-7" cx="532.05" cy="-824.09" r="5.76" gradientTransform="translate(204.45 1027.91) scale(0.73 0.72)" xlink:href="#Nueva_muestra_de_degradado_4"/><radialGradient id="Nueva_muestra_de_degradado_4-8" cx="545.19" cy="-937.85" r="5.76" gradientTransform="translate(204.45 1027.91) scale(0.73 0.72)" xlink:href="#Nueva_muestra_de_degradado_4"/><radialGradient id="Nueva_muestra_de_degradado_4-9" cx="526.3" cy="-1009.67" r="5.76" gradientTransform="translate(204.45 1027.91) scale(0.73 0.72)" xlink:href="#Nueva_muestra_de_degradado_4"/><radialGradient id="Nueva_muestra_de_degradado_4-10" cx="515.26" cy="-1041.96" r="5.76" gradientTransform="translate(204.45 1027.91) scale(0.73 0.72)" xlink:href="#Nueva_muestra_de_degradado_4"/><radialGradient id="Nueva_muestra_de_degradado_4-11" cx="455.41" cy="-998.9" r="5.76" gradientTransform="translate(204.45 1027.91) scale(0.73 0.72)" xlink:href="#Nueva_muestra_de_degradado_4"/><radialGradient id="Nueva_muestra_de_degradado_4-12" cx="663.47" cy="-977.08" r="5.76" gradientTransform="translate(204.45 1027.91) scale(0.73 0.72)" xlink:href="#Nueva_muestra_de_degradado_4"/><radialGradient id="Nueva_muestra_de_degradado_4-13" cx="639.72" cy="-855.45" r="5.76" gradientTransform="translate(204.45 1027.91) scale(0.73 0.72)" xlink:href="#Nueva_muestra_de_degradado_4"/><radialGradient id="Nueva_muestra_de_degradado_4-14" cx="289.62" cy="-3245.74" r="5.76" gradientTransform="translate(429.83 1961.47) scale(0.48 0.48)" xlink:href="#Nueva_muestra_de_degradado_4"/></defs><g class="cls-1"><g id="OBJECTS"><polygon class="cls-2" points="160.75 179.92 1.17 0.94 1.17 500.94 160.75 433.67 160.75 179.92"/><polygon class="cls-3" points="1.17 399.42 160.75 381.94 160.75 433.67 1.17 500.94 1.17 399.42"/><polygon class="cls-4" points="0 54.35 161.24 204.63 161.24 180.64 0 0 0 54.35"/><rect class="cls-2" x="160.75" y="180.03" width="393.76" height="253.75"/><rect class="cls-5" x="161.25" y="381.94" width="393.27" height="51.73"/><rect class="cls-6" x="160.75" y="179.92" width="393.76" height="23.77"/><path class="cls-7" d="M552.91,179.92V433.67l198.26,67.27V.94Zm198,302.54v0Z"/><path class="cls-8" d="M552.91,381.94v51.73l198.26,67.27V397Zm198,100.52v0Z"/><polygon class="cls-9" points="552.91 179.92 751.17 0.94 751.17 49.9 552.91 203.69 552.91 179.92"/><polygon class="cls-10" points="552.91 433.67 160.75 433.67 1.17 500.94 751.17 500.94 552.91 433.67"/><polygon class="cls-11" points="160.75 179.92 552.91 179.92 751.17 0.94 1.17 0.94 160.75 179.92"/><polygon class="cls-12" points="106.58 49.9 285.18 49.9 296.37 127.14 160.75 127.14 106.58 49.9"/><polygon class="cls-13" points="106.11 43.84 284.71 43.84 295.9 121.09 160.29 121.09 106.11 43.84"/><polygon class="cls-12" points="432.68 127.14 468.56 49.9 639.41 49.9 561.76 127.14 432.68 127.14"/><polygon class="cls-13" points="432.68 120.62 468.56 43.38 639.41 43.38 561.76 120.62 432.68 120.62"/><polygon class="cls-14" points="563.58 218.99 563.58 375.68 624.31 377.51 624.31 180.51 563.58 218.99"/><polygon class="cls-15" points="563.58 375.68 563.58 384.73 742.75 398.47 742.75 381.29 563.58 375.68"/><polygon class="cls-15" points="624.31 377.51 624.31 180.51 640.53 170.32 640.53 378.09 624.31 377.51"/><polygon class="cls-16" points="563.58 218.99 578.76 218.99 624.31 192.88 624.31 180.51 563.58 218.99"/><polygon class="cls-17" points="563.58 218.99 563.58 375.68 578.76 376.14 578.76 218.99 563.58 218.99"/><polygon class="cls-18" points="571.17 218.99 571.17 375.92 624.31 377.51 624.31 186.81 571.17 218.99"/><polygon class="cls-16" points="640.53 170.32 742.75 106.06 742.75 124.62 659.16 173.41 640.53 170.32"/><polygon class="cls-17" points="659.16 173.41 659.16 378.71 640.53 378.09 640.53 170.32 659.16 173.41"/><polygon class="cls-18" points="649.84 171.86 649.84 378.4 742.75 381.29 742.75 116.72 649.84 171.86"/><polygon class="cls-19" points="659.16 173.41 742.75 124.62 742.75 381.29 659.16 378.71 659.16 173.41"/><polygon class="cls-20" points="571.17 218.99 571.17 286.45 624.31 267.1 624.31 186.81 571.17 218.99"/><polygon class="cls-20" points="649.84 171.86 649.84 290.92 742.75 266.64 742.75 116.72 649.84 171.86"/><polygon class="cls-21" points="571.17 286.45 2.3 421.15 2.3 500.69 485.94 500.94 624.31 377.51 624.31 267.1 571.17 286.45"/><polygon class="cls-22" points="650.66 290.92 123.04 486.17 123.04 500.92 692.49 500.94 742.75 381.29 742.75 266.64 650.66 290.92"/><path class="cls-23" d="M450.74,359.26a2.84,2.84,0,1,1-2.84-2.82A2.83,2.83,0,0,1,450.74,359.26Z"/><ellipse class="cls-24" cx="492.66" cy="368.23" rx="2.84" ry="2.83"/><path class="cls-25" d="M464.2,413.28a4.19,4.19,0,1,1-4.18-4.16A4.18,4.18,0,0,1,464.2,413.28Z"/><path class="cls-26" d="M317.48,341.78a4.18,4.18,0,1,1-4.18-4.17A4.17,4.17,0,0,1,317.48,341.78Z"/><path class="cls-27" d="M302.52,427.64a4.19,4.19,0,1,1-4.18-4.17A4.17,4.17,0,0,1,302.52,427.64Z"/><path class="cls-28" d="M532.91,450.58a4.19,4.19,0,1,1-4.19-4.16A4.18,4.18,0,0,1,532.91,450.58Z"/><ellipse class="cls-29" cx="590.96" cy="431.8" rx="4.18" ry="4.16"/><path class="cls-30" d="M604.68,349.51a4.18,4.18,0,1,1-4.18-4.16A4.18,4.18,0,0,1,604.68,349.51Z"/><path class="cls-31" d="M591,297.56a4.19,4.19,0,1,1-4.18-4.16A4.18,4.18,0,0,1,591,297.56Z"/><path class="cls-32" d="M582.94,274.2a4.18,4.18,0,1,1-4.18-4.16A4.18,4.18,0,0,1,582.94,274.2Z"/><path class="cls-33" d="M539.46,305.35a4.18,4.18,0,1,1-4.18-4.16A4.18,4.18,0,0,1,539.46,305.35Z"/><path class="cls-34" d="M690.6,321.14a4.18,4.18,0,1,1-4.18-4.17A4.17,4.17,0,0,1,690.6,321.14Z"/><path class="cls-35" d="M673.35,409.12a4.18,4.18,0,1,1-4.18-4.16A4.17,4.17,0,0,1,673.35,409.12Z"/><path class="cls-36" d="M572.55,399.86a2.78,2.78,0,1,1-2.78-2.76A2.78,2.78,0,0,1,572.55,399.86Z"/><polygon class="cls-37" points="23.74 168.04 23.74 282.68 65.69 294.33 65.69 194.83 23.74 168.04"/><polygon class="cls-38" points="53.1 265.2 53.1 335.11 84.56 339.3 84.56 278.66 53.1 265.2"/><polygon class="cls-14" points="90.15 235.38 90.15 279.81 113.92 290.37 113.92 250.94 90.15 235.38"/><rect class="cls-39" x="201.47" y="230.37" width="309.92" height="155.71"/><path class="cls-40" d="M508.32,382.32H462.49c-52.68,0-105.5,1.12-158.16,0,8.66.19,20.1-4.92,28.48-7.21,21.59-5.92,42.5-15,63.21-23.65,16.1-6.73,32.54-14.36,43.89-27.62,3.14-3.66,6-8.53,4.34-13.07s-6.61-6.43-11.16-7.56c-22.23-5.48-46.08-2.18-68-8.85-7.92-2.41-16.25-7-18.38-15a18.69,18.69,0,0,1,.34-9.84c2-7.11,7.06-13.06,12.95-17.51,16.76-12.65,38.35-14.65,58.76-14.65h89.54Z"/><polyline class="cls-41" points="326.42 458.83 330.5 450.44 331.21 411.07 326.42 416.19"/><polygon class="cls-42" points="178.69 399.42 147.47 405.94 329.22 405.94 332.01 399.42 178.69 399.42"/><polygon class="cls-43" points="147.47 405.94 147.47 416.19 328.99 416.19 329.22 405.94 147.47 405.94"/><polygon class="cls-44" points="150.27 416.19 150.27 456.04 326.42 458.83 326.42 416.19 150.27 416.19"/><polygon class="cls-45" points="328.99 416.19 332.01 409.2 332.01 399.42 329.22 405.94 328.99 416.19"/><path class="cls-44" d="M235.2,373.55h30.23a6.64,6.64,0,0,1,6.64,6.64v19.22a0,0,0,0,1,0,0H228a0,0,0,0,1,0,0v-18.7A7.16,7.16,0,0,1,235.2,373.55Z"/><path class="cls-46" d="M234,373.55h30.23a6.64,6.64,0,0,1,6.64,6.64v19.22a0,0,0,0,1,0,0h-44a0,0,0,0,1,0,0v-18.7A7.16,7.16,0,0,1,234,373.55Z"/><path class="cls-47" d="M169.43,402.68h27.21a.47.47,0,0,0,.46-.47v-3.38a.81.81,0,0,0-.81-.81H169.61a.82.82,0,0,0-.82.81V402A.64.64,0,0,0,169.43,402.68Z"/><polygon class="cls-48" points="197.1 398.02 204.09 396.62 204.09 401.16 197.1 402.68 197.1 398.02"/><polygon class="cls-49" points="169.61 398.02 180.33 396.17 204.09 396.62 196.29 398.02 169.61 398.02"/><path class="cls-50" d="M301,393.05v7.32a.62.62,0,0,0,.34.57c1,.42,3.75,1.4,6.11-.18a.63.63,0,0,0,.26-.52v-7.19a.58.58,0,0,0-.56-.6h-5.6A.57.57,0,0,0,301,393.05Z"/><path class="cls-51" d="M307.41,392.58c0,.27-1.36.49-3,.49s-3-.22-3-.49,1.36-.48,3-.48S307.41,392.32,307.41,392.58Z"/><path class="cls-50" d="M308,394.21a1.6,1.6,0,0,1,1.49.5,2.06,2.06,0,0,1,.48,1.47,3,3,0,0,1-2.09,2.69c-.29.09-.7.07-.75-.21s.21-.4.42-.51a3.91,3.91,0,0,0,1.3-1c.44-.61.61-1.71-.32-2a1,1,0,0,0-.95.22c-.18.18-.38.45-.6.34s-.16-.3-.11-.47A1.41,1.41,0,0,1,308,394.21Z"/><path class="cls-52" d="M164.68,384.06a31.09,31.09,0,0,1-4.79-22.28c5.51,3,15.27,15.77,12.68,27.39Z"/><path class="cls-53" d="M163.77,364.87A50,50,0,0,0,172.72,388l.08-.1C174.11,379.11,168.72,369.87,163.77,364.87Z"/><path class="cls-52" d="M180.92,386.66a41.7,41.7,0,0,0,12.86-20.06c4-13.26.29-19.84,2-30.83-9,15.3-19.55,40.64-19.53,53C177.67,389.51,180.92,386.66,180.92,386.66Z"/><path class="cls-53" d="M177.74,388c2.59-2.95,5.56-14.62,7-29.92-4.28,10.24-7.62,20.64-8.33,27.95C177.19,387.32,177.74,388,177.74,388Z"/><path class="cls-54" d="M175.41,388s-11-14.2-8.9-31.79,15-31.25,14.41-45.53C186.72,344.67,180.39,382.36,175.41,388Z"/><path class="cls-53" d="M174.74,385.53s6.13-35.51,4.63-48c-1.42,14.36-6.51,46.77-6.51,46.77Z"/><path class="cls-53" d="M164.68,384.06l7.89,5.11c.1-.42.17-.83.23-1.25h0c.08-.52.13-1,.16-1.56,0-.06,0-.11,0-.16,0-.53,0-1.06,0-1.59h0c0-.07,0-.14,0-.21l.11.07a38.31,38.31,0,0,0,2.32,3.55,7.9,7.9,0,0,0,.92-1.37c-.06.73-.1,1.44-.1,2.11,1.44.75,4.69-2.1,4.69-2.1A37.9,37.9,0,0,0,189,377.2c-7.63,3.52-20.76,3.21-26.59,2.86A25,25,0,0,0,164.68,384.06Z"/><polygon class="cls-55" points="173.87 382.11 159.63 382.11 164.86 401.6 173.87 401.6 182.87 401.6 188.1 382.11 173.87 382.11"/><rect class="cls-55" x="164.86" y="401.6" width="18.01" height="2.48"/><polygon class="cls-56" points="170.88 404.08 170.88 401.6 167.67 382.11 159.63 382.11 164.86 401.6 164.86 404.08 170.88 404.08"/><line class="cls-57" x1="164.86" y1="401.6" x2="182.87" y2="401.6"/><rect class="cls-12" x="249.74" y="394.6" width="47.79" height="6.28"/><rect class="cls-54" x="215.85" y="394.6" width="33.89" height="6.28"/><polygon class="cls-54" points="217.94 350.06 184.05 350.06 217.94 394.6 251.83 394.6 217.94 350.06"/><polygon class="cls-58" points="215.85 350.06 181.96 350.06 215.85 394.6 249.74 394.6 215.85 350.06"/><path class="cls-54" d="M216.73,371.3c3.25,1.39,5.23,4.07,4.41,6s-4.12,2.35-7.37,1-5.23-4.06-4.41-6S213.48,369.91,216.73,371.3Z"/><rect class="cls-54" x="254.15" y="396.12" width="10.95" height="3.01"/><rect class="cls-54" x="268.16" y="396.12" width="10.95" height="3.01"/><path class="cls-59" d="M491.78,467.16l1,17.59a6.33,6.33,0,0,1-6.32,6.67h-8V467.16Z"/><path class="cls-59" d="M423.6,467.16l-1,17.59a6.33,6.33,0,0,0,6.32,6.67h8V467.16Z"/><path class="cls-59" d="M437.79,412a4.29,4.29,0,1,0,4.28-4.29A4.28,4.28,0,0,0,437.79,412Z"/><path class="cls-59" d="M468.67,412a4.29,4.29,0,1,0,4.28-4.29A4.27,4.27,0,0,0,468.67,412Z"/><rect class="cls-59" x="450.95" y="427.36" width="13.49" height="7.1"/><path class="cls-60" d="M473,397.76s3.9,19.07-8.52,29.6H452s-11-2.3-11-29.6a10,10,0,0,1,1.78-5.6s-8.52-2.16-5-3.55,16.33-5.86,25.92,2.9c2.84-5.92,6.39-8.23,5.32,1C473.67,387.56,482.55,392.49,473,397.76Z"/><path class="cls-61" d="M437.81,388.61c3.55-1.38,16.33-5.86,25.92,2.9,2.84-5.92,6.39-8.23,5.32,1,4.62-4.93,13.5,0,3.91,5.27,0,0,3.9,19.07-8.52,29.6,0,0,6.71-23.43,3.68-27.39,2.93-3,2.14-4.84-1.8-3.15.33-3.39-.91-3.72-3.27-.91-3.73-2.81-12.3-1.57-16.69,1.85s-5.36,0-5.36,0a10,10,0,0,1,1.78-5.6S434.26,390,437.81,388.61Z"/><path class="cls-62" d="M452,427.36s-8.36-1.76-10.51-20.28c2.63-2,8.07-5.45,11.22-3,3.57,2.82.17,17.64,3.77,23.25Z"/><path class="cls-55" d="M428.36,442.48c1.73-2.67,5.37-4.81,9.53-6.47a53.65,53.65,0,0,1,39.6,0c4.16,1.66,7.8,3.8,9.53,6.47,5.36,8.3,7.74,23.57,7.74,23.57H478.44v34.82h-41.5V466.05H420.62S423,450.78,428.36,442.48Z"/><path class="cls-63" d="M436.94,436.87v33H420.62s2.38-17,7.74-26.21C430,440.89,433.19,438.66,436.94,436.87Z"/><path class="cls-63" d="M478.44,436.87v33h16.32s-2.38-17-7.74-26.21C485.43,440.89,482.19,438.66,478.44,436.87Z"/><path class="cls-59" d="M99.78,467.28l.94,17.6a6.32,6.32,0,0,1-6.32,6.66h-8V467.28Z"/><path class="cls-59" d="M31.59,467.28l-.94,17.6A6.32,6.32,0,0,0,37,491.54h8V467.28Z"/><path class="cls-59" d="M45.78,412.16a4.29,4.29,0,1,0,4.29-4.28A4.29,4.29,0,0,0,45.78,412.16Z"/><path class="cls-59" d="M76.66,412.16a4.29,4.29,0,1,0,4.28-4.28A4.29,4.29,0,0,0,76.66,412.16Z"/><rect class="cls-59" x="58.94" y="427.48" width="13.49" height="7.1"/><path class="cls-64" d="M81,397.88s3.91,19.08-8.52,29.6H60s-11-2.3-11-29.6a9.94,9.94,0,0,1,1.77-5.59s-8.52-2.17-5-3.55,16.33-5.87,25.92,2.89c2.84-5.92,6.39-8.22,5.33,1C81.66,387.68,90.54,392.62,81,397.88Z"/><path class="cls-65" d="M45.8,388.74c3.55-1.39,16.33-5.87,25.92,2.89,2.84-5.92,6.39-8.22,5.33,1,4.61-4.94,13.49,0,3.9,5.26,0,0,3.91,19.08-8.52,29.6,0,0,6.71-23.43,3.68-27.38,2.94-3,2.15-4.85-1.8-3.16.34-3.38-.9-3.72-3.27-.9-3.72-2.82-12.29-1.58-16.69,1.84s-5.35,0-5.35,0a9.94,9.94,0,0,1,1.77-5.59S42.25,390.12,45.8,388.74Z"/><path class="cls-66" d="M60,427.48s-8.35-1.75-10.5-20.28c2.62-2,8.06-5.45,11.21-3,3.57,2.81.17,17.63,3.77,23.24Z"/><path class="cls-55" d="M36.36,442.59c1.72-2.66,5.37-4.8,9.52-6.46a53.77,53.77,0,0,1,39.61,0c4.15,1.66,7.8,3.8,9.52,6.46,5.36,8.3,7.75,23.56,7.75,23.56H86.43v34.79H44.94V466.15H28.61S31,450.89,36.36,442.59Z"/><path class="cls-63" d="M44.94,437v33H28.61s2.39-17,7.75-26.22C38,441,41.18,438.78,44.94,437Z"/><path class="cls-63" d="M86.43,437v33h16.33s-2.39-17-7.75-26.22C93.42,441,90.19,438.78,86.43,437Z"/><path class="cls-59" d="M248.15,478l-.94,16.62a6.13,6.13,0,0,0,6.32,6.3h8V478Z"/><path class="cls-59" d="M316.34,478l.94,16.62A6.13,6.13,0,0,1,311,501h-8V478Z"/><path class="cls-59" d="M302.15,422.9a4.29,4.29,0,1,1-4.29-4.28A4.29,4.29,0,0,1,302.15,422.9Z"/><path class="cls-59" d="M271.27,422.9a4.29,4.29,0,1,1-4.28-4.28A4.29,4.29,0,0,1,271.27,422.9Z"/><rect class="cls-59" x="275.5" y="438.23" width="13.49" height="7.1"/><path class="cls-55" d="M311.57,451.73c-1.72-2.25-5.37-4-9.52-5.45a63.12,63.12,0,0,0-39.61,0c-4.15,1.41-7.8,3.2-9.52,5.45-5.36,7-4.91,19.87-4.91,19.87H261.5V501H303V471.6l13.52.42S316.93,458.73,311.57,451.73Z"/><path class="cls-63" d="M303,447.74v33l13.52.56s.42-17.54-4.94-26.77C310,451.76,306.75,449.53,303,447.74Z"/><path class="cls-63" d="M261.5,447.74v33H248s-.45-17,4.91-26.21C254.51,451.76,257.74,449.53,261.5,447.74Z"/><path class="cls-65" d="M299.82,437.51H265V404.68c0-5.17,7.71-9.36,17.22-9.36h.35c9.51,0,17.22,4.19,17.22,9.36Z"/><path class="cls-67" d="M288.43,395.88a30.19,30.19,0,0,0-5.83-.56h-.35c-9.51,0-17.22,4.19-17.22,9.36v32.83h12V404.68C277,400.62,281.79,397.18,288.43,395.88Z"/><path class="cls-61" d="M293.58,437.51h6.24V404.68a6.26,6.26,0,0,0-2-4.36,13.14,13.14,0,0,0-4.24,10Z"/><path class="cls-59" d="M655.54,466.39,654.6,484a6.33,6.33,0,0,0,6.32,6.67h8V466.39Z"/><path class="cls-59" d="M723.73,466.39l.94,17.59a6.33,6.33,0,0,1-6.32,6.67h-8V466.39Z"/><path class="cls-59" d="M709.54,411.26a4.29,4.29,0,1,1-4.29-4.28A4.29,4.29,0,0,1,709.54,411.26Z"/><path class="cls-59" d="M678.66,411.26a4.29,4.29,0,1,1-4.28-4.28A4.29,4.29,0,0,1,678.66,411.26Z"/><rect class="cls-59" x="682.89" y="426.58" width="13.49" height="7.1"/><path class="cls-55" d="M719,441.84c-1.72-2.71-5.37-4.87-9.52-6.56a53.09,53.09,0,0,0-39.61,0c-4.15,1.69-7.8,3.85-9.52,6.56-5.36,8.41-4.91,23.87-4.91,23.87h13.49V501h41.49V465.71l13.52.51S724.32,450.25,719,441.84Z"/><path class="cls-63" d="M710.38,436.1v33l13.52.55s.42-17.53-4.94-26.77C717.37,440.11,714.14,437.88,710.38,436.1Z"/><path class="cls-63" d="M668.89,436.1v33H655.4s-.45-17,4.91-26.22C661.9,440.11,665.13,437.88,668.89,436.1Z"/><path class="cls-68" d="M707.2,461.29H672.42V400.9a17.22,17.22,0,0,1,17.22-17.22H690A17.21,17.21,0,0,1,707.2,400.9Z"/><path class="cls-67" d="M695.82,384.72a17.11,17.11,0,0,0-5.83-1h-.35a17.22,17.22,0,0,0-17.22,17.22v60.39h12V400.9A17.2,17.2,0,0,1,695.82,384.72Z"/><path class="cls-69" d="M701,461.29h6.23V400.9a17.11,17.11,0,0,0-2-8c-2.12,3.62-4.24,9.46-4.24,18.39Z"/><rect class="cls-70" x="155.24" y="478.68" width="9.76" height="22.09"/><rect class="cls-70" x="183.24" y="459.59" width="7.85" height="41.36"/><path class="cls-70" d="M6.45,478.89H.91v22.05H6.45Z"/><path class="cls-45" d="M192.57,452H54.39L.91,468.51V471H162.66Z"/><path class="cls-42" d="M162.66,471H.91V482.5H162Z"/><polygon class="cls-71" points="162.03 482.5 192.57 458.63 192.57 451.95 162.66 471.04 162.03 482.5"/><path class="cls-71" d="M25.63,493.74v-32A10.61,10.61,0,0,1,36.24,451.1H103a11.35,11.35,0,0,1,11.35,11.35v29.38L112.81,494Z"/><path class="cls-72" d="M24.15,494v-32a10.6,10.6,0,0,1,10.6-10.61h66.72a11.35,11.35,0,0,1,11.34,11.35V494Z"/><path class="cls-45" d="M44.3,473.16h0c2.34,0,4.24,1.63,4.24,3.64v24.05H40.48V476.44A3.58,3.58,0,0,1,44.3,473.16Z"/><path class="cls-70" d="M43.66,473.25h0c2.34,0,4.24,1.63,4.24,3.64v24.05H39.84V476.53A3.58,3.58,0,0,1,43.66,473.25Z"/><path class="cls-45" d="M89.25,473.49h0a3.58,3.58,0,0,1,3.84,3.25v24.19H85V477.08C85,475.09,86.92,473.49,89.25,473.49Z"/><path class="cls-70" d="M88.62,473.5h0a3.58,3.58,0,0,1,3.83,3.26v24.18H84.39V477.09C84.39,475.11,86.28,473.5,88.62,473.5Z"/><rect class="cls-70" x="604.15" y="477.63" width="9.76" height="23.24"/><rect class="cls-70" x="555.62" y="456.87" width="9.76" height="44.07"/><path class="cls-45" d="M685.71,450.9l-135.23.64,49,20.68,151.43-1.39v-5.12Z"/><polygon class="cls-46" points="550.48 451.54 550.48 459.17 599.48 482.08 599.48 472.22 550.48 451.54"/><path class="cls-42" d="M599.48,472.22v9.86H750.91V470.83Z"/><path class="cls-42" d="M732.06,492.92v-32c0-5.86-5-10.61-11.2-10.61H650.42c-6.62,0-12,5.08-12,11.35V491l1.57,2.12Z"/><path class="cls-72" d="M733.62,493.13v-32c0-5.86-5-10.61-11.2-10.61H652c-6.61,0-12,5.08-12,11.35v31.29Z"/><path class="cls-45" d="M712.35,472.34h0c-2.48,0-4.48,1.68-4.48,3.75v24.76h8.51V475.71C716.38,473.85,714.57,472.34,712.35,472.34Z"/><path class="cls-70" d="M713,472.44h0c-2.48,0-4.48,1.67-4.48,3.74v24.76h8.51V475.81C717.05,474,715.24,472.44,713,472.44Z"/><path class="cls-45" d="M664.88,472.67h0c-2.24,0-4,1.5-4,3.36V501h8.51v-24.6C669.34,474.33,667.34,472.67,664.88,472.67Z"/><path class="cls-70" d="M665.55,472.68h0c-2.23,0-4,1.51-4,3.36V501H670v-24.6C670,474.34,668,472.68,665.55,472.68Z"/><rect class="cls-70" x="384.28" y="479.9" width="9.76" height="20.97"/><rect class="cls-70" x="525.98" y="479.9" width="9.76" height="20.97"/><rect class="cls-70" x="504.98" y="460.39" width="7.85" height="40.48"/><polygon class="cls-45" points="387.04 453.18 510.07 453.18 541.04 472.27 379.82 472.27 387.04 453.18"/><rect class="cls-42" x="379.82" y="472.27" width="161.22" height="11.45"/><path class="cls-72" d="M415.35,495.18v-32A10.61,10.61,0,0,1,426,452.54h66.72A11.35,11.35,0,0,1,504,463.89v31.29Z"/><path class="cls-70" d="M434.87,474.49h0c2.34,0,4.24,1.55,4.24,3.47v22.91h-8.06V477.61C431.05,475.89,432.76,474.49,434.87,474.49Z"/><path class="cls-70" d="M479.83,474.73h0c2.11,0,3.83,1.39,3.83,3.11v23.1H475.6V478.16C475.6,476.27,477.49,474.73,479.83,474.73Z"/><rect class="cls-70" x="348.64" y="472.93" width="9.76" height="27.94" transform="translate(707.04 973.8) rotate(180)"/><rect class="cls-70" x="206.94" y="480.36" width="9.76" height="20.44" transform="translate(423.64 981.15) rotate(180)"/><rect class="cls-70" x="229.85" y="460.84" width="7.85" height="39.97" transform="translate(467.55 961.65) rotate(180)"/><polygon class="cls-45" points="355.64 453.63 232.61 453.63 201.64 472.72 362.85 472.72 355.64 453.63"/><rect class="cls-42" x="201.64" y="472.72" width="161.22" height="11.45"/><path class="cls-72" d="M327.32,495.63v-32A10.61,10.61,0,0,0,316.72,453H250a11.35,11.35,0,0,0-11.35,11.35v31.29Z"/><path class="cls-70" d="M307.81,475h0c-2.35,0-4.25,1.53-4.25,3.41V501h8.06V478C311.62,476.32,309.92,475,307.81,475Z"/><path class="cls-70" d="M262.85,475.18h0c-2.12,0-3.83,1.37-3.83,3.06V501h8.06V478.56C267.08,476.69,265.19,475.18,262.85,475.18Z"/><path class="cls-73" d="M1.17,0V500.94h750V0ZM750.91,482.46v0Z"/></g></g></svg>